<?xml version="1.0" encoding="UTF-8" standalone="no"?>
<!DOCTYPE svg PUBLIC "-//W3C//DTD SVG 1.1//EN"
 "http://www.w3.org/Graphics/SVG/1.1/DTD/svg11.dtd">
<!-- Generated by graphviz version 2.43.0 (0)
 -->
<!-- Title: workflow Pages: 1 -->
<svg width="2875pt" height="455pt"
 viewBox="0.00 0.00 2875.00 455.00" xmlns="http://www.w3.org/2000/svg" xmlns:xlink="http://www.w3.org/1999/xlink">
<g id="graph0" class="graph" transform="scale(1 1) rotate(0) translate(4 451)">
<title>workflow</title>
<g id="clust1" class="cluster">
<title>cluster_inputs</title>
<polygon fill="#eeeeee" stroke="#818281" stroke-width="2" points="336,-363 336,-439 1772,-439 1772,-363 336,-363"/>
<text text-anchor="middle" x="1054" y="-423.8" font-family="Fira Sans" font-size="14.00">Workflow Inputs</text>
</g>
<g id="clust2" class="cluster">
<title>cluster_outputs</title>
<polygon fill="#eeeeee" stroke="#818281" stroke-width="2" points="535,-8 535,-84 1355,-84 1355,-8 535,-8"/>
<text text-anchor="middle" x="945" y="-15.8" font-family="Fira Sans" font-size="14.00">Workflow Outputs</text>
</g>
<!-- icasa_template -->
<g id="node1" class="node">
<title>icasa_template</title>
<polygon fill="#6fc1b5" stroke="#0f9884" stroke-width="2" points="762,-371.5 762,-407.5 882,-407.5 882,-371.5 762,-371.5"/>
<text text-anchor="middle" x="822" y="-385.8" font-family="Fira Sans" font-size="14.00">icasa_template</text>
</g>
<!-- generate_icasa_json -->
<g id="node17" class="node">
<title>generate_icasa_json</title>
<polygon fill="#c5e0b4" stroke="#385723" stroke-width="2" points="814,-288.5 814,-324.5 970,-324.5 970,-288.5 814,-288.5"/>
<text text-anchor="middle" x="892" y="-302.8" font-family="Fira Sans" font-size="14.00">generate_icasa_json</text>
</g>
<!-- icasa_template&#45;&gt;generate_icasa_json -->
<g id="edge3" class="edge">
<title>icasa_template&#45;&gt;generate_icasa_json</title>
<path fill="none" stroke="#385723" stroke-width="2" d="M818.38,-371.31C817.41,-362.24 817.81,-351.31 823,-343 825.95,-338.29 829.73,-334.17 834.02,-330.58"/>
<polygon fill="#385723" stroke="#385723" stroke-width="2" points="836.13,-333.38 842.18,-324.68 832.03,-327.7 836.13,-333.38"/>
<text text-anchor="middle" x="856.5" y="-345.8" font-family="Fira Sans" font-size="9.00" fill="#818281">template_path</text>
</g>
<!-- evaluation_folder_name -->
<g id="node2" class="node">
<title>evaluation_folder_name</title>
<polygon fill="#6fc1b5" stroke="#0f9884" stroke-width="2" points="1234,-371.5 1234,-407.5 1416,-407.5 1416,-371.5 1234,-371.5"/>
<text text-anchor="middle" x="1325" y="-385.8" font-family="Fira Sans" font-size="14.00">evaluation_folder_name</text>
</g>
<!-- evaluation -->
<g id="node39" class="node">
<title>evaluation</title>
<polygon fill="#c5e0b4" stroke="#385723" stroke-width="2" points="1394.5,-122.5 1394.5,-158.5 1483.5,-158.5 1483.5,-122.5 1394.5,-122.5"/>
<text text-anchor="middle" x="1439" y="-136.8" font-family="Fira Sans" font-size="14.00">evaluation</text>
</g>
<!-- evaluation_folder_name&#45;&gt;evaluation -->
<g id="edge37" class="edge">
<title>evaluation_folder_name&#45;&gt;evaluation</title>
<path fill="none" stroke="#385723" stroke-width="2" d="M1262.17,-371.44C1201.99,-354.81 1119.62,-331.15 1115,-325 1082.95,-282.37 1080.09,-246.17 1114,-205 1147.64,-164.16 1300.93,-149.22 1384.41,-144.05"/>
<polygon fill="#385723" stroke="#385723" stroke-width="2" points="1384.71,-147.54 1394.48,-143.45 1384.29,-140.55 1384.71,-147.54"/>
<text text-anchor="middle" x="1120.5" y="-262.8" font-family="Fira Sans" font-size="9.00" fill="#818281">output_folder</text>
</g>
<!-- processed_folder_name -->
<g id="node3" class="node">
<title>processed_folder_name</title>
<polygon fill="#6fc1b5" stroke="#0f9884" stroke-width="2" points="344,-371.5 344,-407.5 524,-407.5 524,-371.5 344,-371.5"/>
<text text-anchor="middle" x="434" y="-385.8" font-family="Fira Sans" font-size="14.00">processed_folder_name</text>
</g>
<!-- process_paper -->
<g id="node15" class="node">
<title>process_paper</title>
<polygon fill="#c5e0b4" stroke="#385723" stroke-width="2" points="280.5,-288.5 280.5,-324.5 397.5,-324.5 397.5,-288.5 280.5,-288.5"/>
<text text-anchor="middle" x="339" y="-302.8" font-family="Fira Sans" font-size="14.00">process_paper</text>
</g>
<!-- processed_folder_name&#45;&gt;process_paper -->
<g id="edge1" class="edge">
<title>processed_folder_name&#45;&gt;process_paper</title>
<path fill="none" stroke="#385723" stroke-width="2" d="M354.75,-371.43C346.65,-366.7 339.42,-360.67 334,-353 330.27,-347.72 329.42,-341.2 329.99,-334.76"/>
<polygon fill="#385723" stroke="#385723" stroke-width="2" points="333.43,-335.37 331.85,-324.9 326.55,-334.07 333.43,-335.37"/>
<text text-anchor="middle" x="364.5" y="-345.8" font-family="Fira Sans" font-size="9.00" fill="#818281">output_folder</text>
</g>
<!-- json_folder_name -->
<g id="node4" class="node">
<title>json_folder_name</title>
<polygon fill="#6fc1b5" stroke="#0f9884" stroke-width="2" points="900,-371.5 900,-407.5 1038,-407.5 1038,-371.5 900,-371.5"/>
<text text-anchor="middle" x="969" y="-385.8" font-family="Fira Sans" font-size="14.00">json_folder_name</text>
</g>
<!-- json_folder_name&#45;&gt;generate_icasa_json -->
<g id="edge4" class="edge">
<title>json_folder_name&#45;&gt;generate_icasa_json</title>
<path fill="none" stroke="#385723" stroke-width="2" d="M935.17,-371.44C927.2,-366.3 919.22,-360.1 913,-353 908.23,-347.55 904.33,-340.82 901.26,-334.24"/>
<polygon fill="#385723" stroke="#385723" stroke-width="2" points="904.42,-332.71 897.32,-324.84 897.96,-335.42 904.42,-332.71"/>
<text text-anchor="middle" x="952.5" y="-345.8" font-family="Fira Sans" font-size="9.00" fill="#818281">json_folder_name</text>
</g>
<!-- tabular_folder_name -->
<g id="node5" class="node">
<title>tabular_folder_name</title>
<polygon fill="#6fc1b5" stroke="#0f9884" stroke-width="2" points="1056.5,-371.5 1056.5,-407.5 1215.5,-407.5 1215.5,-371.5 1056.5,-371.5"/>
<text text-anchor="middle" x="1136" y="-385.8" font-family="Fira Sans" font-size="14.00">tabular_folder_name</text>
</g>
<!-- json_to_xlsx -->
<g id="node19" class="node">
<title>json_to_xlsx</title>
<polygon fill="#c5e0b4" stroke="#385723" stroke-width="2" points="943,-205.5 943,-241.5 1043,-241.5 1043,-205.5 943,-205.5"/>
<text text-anchor="middle" x="993" y="-219.8" font-family="Fira Sans" font-size="14.00">json_to_xlsx</text>
</g>
<!-- tabular_folder_name&#45;&gt;json_to_xlsx -->
<g id="edge7" class="edge">
<title>tabular_folder_name&#45;&gt;json_to_xlsx</title>
<path fill="none" stroke="#385723" stroke-width="2" d="M1085.52,-371.47C1062.48,-361.33 1036.67,-346.21 1020,-325 1003.48,-303.98 997.03,-273.67 994.54,-251.85"/>
<polygon fill="#385723" stroke="#385723" stroke-width="2" points="998,-251.23 993.58,-241.59 991.03,-251.88 998,-251.23"/>
<text text-anchor="middle" x="1050.5" y="-304.3" font-family="Fira Sans" font-size="9.00" fill="#818281">output_folder</text>
</g>
<!-- llm_output_json -->
<g id="node6" class="node">
<title>llm_output_json</title>
<polygon fill="#6fc1b5" stroke="#0f9884" stroke-width="2" points="1434.5,-371.5 1434.5,-407.5 1559.5,-407.5 1559.5,-371.5 1434.5,-371.5"/>
<text text-anchor="middle" x="1497" y="-385.8" font-family="Fira Sans" font-size="14.00">llm_output_json</text>
</g>
<!-- split -->
<g id="node23" class="node">
<title>split</title>
<polygon fill="#c5e0b4" stroke="#385723" stroke-width="2" points="1857,-288.5 1857,-324.5 1911,-324.5 1911,-288.5 1857,-288.5"/>
<text text-anchor="middle" x="1884" y="-302.8" font-family="Fira Sans" font-size="14.00">split</text>
</g>
<!-- llm_output_json&#45;&gt;split -->
<g id="edge38" class="edge">
<title>llm_output_json&#45;&gt;split</title>
<path fill="none" stroke="#385723" stroke-width="2" d="M1540.76,-371.48C1549.98,-368.32 1559.73,-365.3 1569,-363 1681.49,-335.08 1713.94,-350.53 1827,-325 1833.65,-323.5 1840.65,-321.61 1847.38,-319.64"/>
<polygon fill="#385723" stroke="#385723" stroke-width="2" points="1848.43,-322.98 1856.97,-316.72 1846.39,-316.28 1848.43,-322.98"/>
<text text-anchor="middle" x="1733" y="-345.8" font-family="Fira Sans" font-size="9.00" fill="#818281">llm_output_json</text>
</g>
<!-- llm_tabular_folder_name -->
<g id="node7" class="node">
<title>llm_tabular_folder_name</title>
<polygon fill="#6fc1b5" stroke="#0f9884" stroke-width="2" points="1577.5,-371.5 1577.5,-407.5 1764.5,-407.5 1764.5,-371.5 1577.5,-371.5"/>
<text text-anchor="middle" x="1671" y="-385.8" font-family="Fira Sans" font-size="14.00">llm_tabular_folder_name</text>
</g>
<!-- merge -->
<g id="node40" class="node">
<title>merge</title>
<polygon fill="#c5e0b4" stroke="#385723" stroke-width="2" points="1945.5,-122.5 1945.5,-158.5 2006.5,-158.5 2006.5,-122.5 1945.5,-122.5"/>
<text text-anchor="middle" x="1976" y="-136.8" font-family="Fira Sans" font-size="14.00">merge</text>
</g>
<!-- llm_tabular_folder_name&#45;&gt;merge -->
<g id="edge47" class="edge">
<title>llm_tabular_folder_name&#45;&gt;merge</title>
<path fill="none" stroke="#385723" stroke-width="2" d="M1764.8,-386.29C2020.37,-379.83 2712.29,-359.26 2747,-325 2785.01,-287.49 2786.41,-246.65 2753,-205 2706.63,-147.2 2171,-141.82 2017.11,-141.47"/>
<polygon fill="#385723" stroke="#385723" stroke-width="2" points="2016.71,-137.97 2006.7,-141.46 2016.69,-144.97 2016.71,-137.97"/>
<text text-anchor="middle" x="2821.5" y="-262.8" font-family="Fira Sans" font-size="9.00" fill="#818281">output_folder_name</text>
</g>
<!-- training_data_folder_name -->
<g id="node8" class="node">
<title>training_data_folder_name</title>
<polygon fill="#6fc1b5" stroke="#0f9884" stroke-width="2" points="542.5,-371.5 542.5,-407.5 743.5,-407.5 743.5,-371.5 542.5,-371.5"/>
<text text-anchor="middle" x="643" y="-385.8" font-family="Fira Sans" font-size="14.00">training_data_folder_name</text>
</g>
<!-- create_training_data -->
<g id="node20" class="node">
<title>create_training_data</title>
<polygon fill="#c5e0b4" stroke="#385723" stroke-width="2" points="633,-205.5 633,-241.5 791,-241.5 791,-205.5 633,-205.5"/>
<text text-anchor="middle" x="712" y="-219.8" font-family="Fira Sans" font-size="14.00">create_training_data</text>
</g>
<!-- training_data_folder_name&#45;&gt;create_training_data -->
<g id="edge10" class="edge">
<title>training_data_folder_name&#45;&gt;create_training_data</title>
<path fill="none" stroke="#385723" stroke-width="2" d="M588.7,-371.36C542.55,-353.84 487.65,-324.12 514,-288 539.01,-253.72 582.79,-237.53 622.84,-230.05"/>
<polygon fill="#385723" stroke="#385723" stroke-width="2" points="623.65,-233.46 632.92,-228.33 622.48,-226.56 623.65,-233.46"/>
<text text-anchor="middle" x="567" y="-304.3" font-family="Fira Sans" font-size="9.00" fill="#818281">output_directory_name</text>
</g>
<!-- evaluation_directory -->
<g id="node9" class="node">
<title>evaluation_directory</title>
<polygon fill="#f8cbad" stroke="#823909" stroke-width="2" points="1077.5,-39.5 1077.5,-75.5 1234.5,-75.5 1234.5,-39.5 1077.5,-39.5"/>
<text text-anchor="middle" x="1156" y="-53.8" font-family="Fira Sans" font-size="14.00">evaluation_directory</text>
</g>
<!-- training_data -->
<g id="node10" class="node">
<title>training_data</title>
<polygon fill="#f8cbad" stroke="#823909" stroke-width="2" points="703,-39.5 703,-75.5 811,-75.5 811,-39.5 703,-39.5"/>
<text text-anchor="middle" x="757" y="-53.8" font-family="Fira Sans" font-size="14.00">training_data</text>
</g>
<!-- processed_papers -->
<g id="node11" class="node">
<title>processed_papers</title>
<polygon fill="#f8cbad" stroke="#823909" stroke-width="2" points="543,-39.5 543,-75.5 685,-75.5 685,-39.5 543,-39.5"/>
<text text-anchor="middle" x="614" y="-53.8" font-family="Fira Sans" font-size="14.00">processed_papers</text>
</g>
<!-- icasa_json -->
<g id="node12" class="node">
<title>icasa_json</title>
<polygon fill="#f8cbad" stroke="#823909" stroke-width="2" points="829.5,-39.5 829.5,-75.5 916.5,-75.5 916.5,-39.5 829.5,-39.5"/>
<text text-anchor="middle" x="873" y="-53.8" font-family="Fira Sans" font-size="14.00">icasa_json</text>
</g>
<!-- manual_tabular -->
<g id="node13" class="node">
<title>manual_tabular</title>
<polygon fill="#f8cbad" stroke="#823909" stroke-width="2" points="934.5,-39.5 934.5,-75.5 1059.5,-75.5 1059.5,-39.5 934.5,-39.5"/>
<text text-anchor="middle" x="997" y="-53.8" font-family="Fira Sans" font-size="14.00">manual_tabular</text>
</g>
<!-- tabular_llm -->
<g id="node14" class="node">
<title>tabular_llm</title>
<polygon fill="#f8cbad" stroke="#823909" stroke-width="2" points="1253,-39.5 1253,-75.5 1347,-75.5 1347,-39.5 1253,-39.5"/>
<text text-anchor="middle" x="1300" y="-53.8" font-family="Fira Sans" font-size="14.00">tabular_llm</text>
</g>
<!-- process_paper&#45;&gt;processed_papers -->
<g id="edge50" class="edge">
<title>process_paper&#45;&gt;processed_papers</title>
<path fill="none" stroke="#385723" stroke-width="2" d="M355.81,-288.41C364.42,-279.77 375.14,-269.2 385,-260 455.9,-193.85 542.53,-119.24 586.12,-82.12"/>
<polygon fill="#385723" stroke="#385723" stroke-width="2" points="588.39,-84.78 593.74,-75.63 583.86,-79.45 588.39,-84.78"/>
<text text-anchor="middle" x="516" y="-179.8" font-family="Fira Sans" font-size="9.00" fill="#818281">processed_papers</text>
</g>
<!-- process_paper&#45;&gt;create_training_data -->
<g id="edge9" class="edge">
<title>process_paper&#45;&gt;create_training_data</title>
<path fill="none" stroke="#385723" stroke-width="2" d="M360.36,-288.4C374.03,-278.41 392.6,-266.52 411,-260 479.48,-235.74 561.64,-227.32 622.81,-224.71"/>
<polygon fill="#385723" stroke="#385723" stroke-width="2" points="622.97,-228.21 632.83,-224.33 622.7,-221.22 622.97,-228.21"/>
<text text-anchor="middle" x="450.5" y="-262.8" font-family="Fira Sans" font-size="9.00" fill="#818281">markdown_folder</text>
</g>
<!-- process_paper_input_folder -->
<g id="node16" class="node">
<title>process_paper_input_folder</title>
<polygon fill="#cfeae6" stroke="#9fd6ce" stroke-width="2" points="0,-380 0,-399 140,-399 140,-380 0,-380"/>
<text text-anchor="middle" x="70" y="-387" font-family="Fira Sans" font-size="10.00">../../data/01_paper_to_md</text>
</g>
<!-- process_paper_input_folder&#45;&gt;process_paper -->
<g id="edge2" class="edge">
<title>process_paper_input_folder&#45;&gt;process_paper</title>
<path fill="none" stroke="#385723" stroke-width="2" stroke-dasharray="5,2" d="M96.26,-379.96C111.85,-374.94 132.02,-368.5 150,-363 189.75,-350.83 234.37,-337.7 270.27,-327.27"/>
<polygon fill="#385723" stroke="#385723" stroke-width="2" points="271.53,-330.55 280.15,-324.4 269.57,-323.83 271.53,-330.55"/>
<text text-anchor="middle" x="239.5" y="-345.8" font-family="Fira Sans" font-size="9.00" fill="#818281">input_folder</text>
</g>
<!-- generate_icasa_json&#45;&gt;icasa_json -->
<g id="edge51" class="edge">
<title>generate_icasa_json&#45;&gt;icasa_json</title>
<path fill="none" stroke="#385723" stroke-width="2" d="M890.66,-288.13C887.41,-245.78 879.03,-136.92 875.1,-85.79"/>
<polygon fill="#385723" stroke="#385723" stroke-width="2" points="878.57,-85.22 874.31,-75.52 871.59,-85.76 878.57,-85.22"/>
<text text-anchor="middle" x="905" y="-179.8" font-family="Fira Sans" font-size="9.00" fill="#818281">icasa_json</text>
</g>
<!-- generate_icasa_json&#45;&gt;json_to_xlsx -->
<g id="edge6" class="edge">
<title>generate_icasa_json&#45;&gt;json_to_xlsx</title>
<path fill="none" stroke="#385723" stroke-width="2" d="M907.4,-288.14C915.73,-279.23 926.44,-268.5 937,-260 942.48,-255.59 948.54,-251.26 954.58,-247.22"/>
<polygon fill="#385723" stroke="#385723" stroke-width="2" points="956.87,-249.91 963.37,-241.54 953.07,-244.03 956.87,-249.91"/>
<text text-anchor="middle" x="964.5" y="-262.8" font-family="Fira Sans" font-size="9.00" fill="#818281">input_folder</text>
</g>
<!-- generate_icasa_json&#45;&gt;create_training_data -->
<g id="edge8" class="edge">
<title>generate_icasa_json&#45;&gt;create_training_data</title>
<path fill="none" stroke="#385723" stroke-width="2" d="M853.83,-288.32C826.17,-275.88 788.61,-258.97 759.09,-245.69"/>
<polygon fill="#385723" stroke="#385723" stroke-width="2" points="760.36,-242.43 749.81,-241.51 757.49,-248.81 760.36,-242.43"/>
<text text-anchor="middle" x="836.5" y="-262.8" font-family="Fira Sans" font-size="9.00" fill="#818281">json_folder</text>
</g>
<!-- generate_icasa_json_icasa_attributes -->
<g id="node18" class="node">
<title>generate_icasa_json_icasa_attributes</title>
<polygon fill="#cfeae6" stroke="#9fd6ce" stroke-width="2" points="158.5,-380 158.5,-399 325.5,-399 325.5,-380 158.5,-380"/>
<text text-anchor="middle" x="242" y="-387" font-family="Fira Sans" font-size="10.00">../../R/icasa_attributes_config.R</text>
</g>
<!-- generate_icasa_json_icasa_attributes&#45;&gt;generate_icasa_json -->
<g id="edge5" class="edge">
<title>generate_icasa_json_icasa_attributes&#45;&gt;generate_icasa_json</title>
<path fill="none" stroke="#385723" stroke-width="2" stroke-dasharray="5,2" d="M267.29,-379.9C285.16,-374.17 309.78,-367 332,-363 432.84,-344.84 685.7,-339.92 803.84,-325.01"/>
<polygon fill="#385723" stroke="#385723" stroke-width="2" points="804.37,-328.47 813.82,-323.68 803.45,-321.53 804.37,-328.47"/>
<text text-anchor="middle" x="593" y="-345.8" font-family="Fira Sans" font-size="9.00" fill="#818281">icasa_attributes</text>
</g>
<!-- json_to_xlsx&#45;&gt;manual_tabular -->
<g id="edge52" class="edge">
<title>json_to_xlsx&#45;&gt;manual_tabular</title>
<path fill="none" stroke="#385723" stroke-width="2" d="M993.42,-205.26C994.12,-176.76 995.51,-119.62 996.34,-85.66"/>
<polygon fill="#385723" stroke="#385723" stroke-width="2" points="999.84,-85.59 996.59,-75.51 992.84,-85.42 999.84,-85.59"/>
<text text-anchor="middle" x="1030.5" y="-138.3" font-family="Fira Sans" font-size="9.00" fill="#818281">manual_tabular</text>
</g>
<!-- json_to_xlsx&#45;&gt;evaluation -->
<g id="edge36" class="edge">
<title>json_to_xlsx&#45;&gt;evaluation</title>
<path fill="none" stroke="#385723" stroke-width="2" d="M996.01,-205.47C998.7,-195.51 1003.73,-183.62 1013,-177 1042.55,-155.91 1275.84,-146.32 1384.13,-142.97"/>
<polygon fill="#385723" stroke="#385723" stroke-width="2" points="1384.31,-146.47 1394.2,-142.67 1384.1,-139.47 1384.31,-146.47"/>
<text text-anchor="middle" x="1047" y="-179.8" font-family="Fira Sans" font-size="9.00" fill="#818281">reference_data</text>
</g>
<!-- create_training_data&#45;&gt;training_data -->
<g id="edge49" class="edge">
<title>create_training_data&#45;&gt;training_data</title>
<path fill="none" stroke="#385723" stroke-width="2" d="M716.73,-205.26C724.58,-176.64 740.36,-119.13 749.67,-85.22"/>
<polygon fill="#385723" stroke="#385723" stroke-width="2" points="753.06,-86.08 752.33,-75.51 746.31,-84.23 753.06,-86.08"/>
<text text-anchor="middle" x="768.5" y="-138.3" font-family="Fira Sans" font-size="9.00" fill="#818281">training_data</text>
</g>
<!-- create_training_data_icasa_attributes -->
<g id="node21" class="node">
<title>create_training_data_icasa_attributes</title>
<polygon fill="#cfeae6" stroke="#9fd6ce" stroke-width="2" points="628.5,-297 628.5,-316 795.5,-316 795.5,-297 628.5,-297"/>
<text text-anchor="middle" x="712" y="-304" font-family="Fira Sans" font-size="10.00">../../R/icasa_attributes_config.R</text>
</g>
<!-- create_training_data_icasa_attributes&#45;&gt;create_training_data -->
<g id="edge11" class="edge">
<title>create_training_data_icasa_attributes&#45;&gt;create_training_data</title>
<path fill="none" stroke="#385723" stroke-width="2" stroke-dasharray="5,2" d="M712,-296.83C712,-286.15 712,-267.5 712,-251.81"/>
<polygon fill="#385723" stroke="#385723" stroke-width="2" points="715.5,-251.56 712,-241.56 708.5,-251.56 715.5,-251.56"/>
<text text-anchor="middle" x="748" y="-262.8" font-family="Fira Sans" font-size="9.00" fill="#818281">icasa_attributes</text>
</g>
<!-- json2tabular_exp_metadata -->
<g id="node22" class="node">
<title>json2tabular_exp_metadata</title>
<polygon fill="#c5e0b4" stroke="#385723" stroke-width="2" points="2334.5,-205.5 2334.5,-241.5 2543.5,-241.5 2543.5,-205.5 2334.5,-205.5"/>
<text text-anchor="middle" x="2439" y="-219.8" font-family="Fira Sans" font-size="14.00">json2tabular_exp_metadata</text>
</g>
<!-- json2tabular_exp_metadata&#45;&gt;evaluation -->
<g id="edge35" class="edge">
<title>json2tabular_exp_metadata&#45;&gt;evaluation</title>
<path fill="none" stroke="#385723" stroke-width="2" d="M2334.35,-206.26C2331.2,-205.83 2328.08,-205.41 2325,-205 2252.74,-195.47 2232.43,-205.74 2162,-187 2151.23,-184.13 2149.85,-179.55 2139,-177 2076.97,-162.45 1647.92,-147.95 1493.89,-143.15"/>
<polygon fill="#385723" stroke="#385723" stroke-width="2" points="1493.82,-139.65 1483.72,-142.84 1493.6,-146.64 1493.82,-139.65"/>
<text text-anchor="middle" x="2212" y="-179.8" font-family="Fira Sans" font-size="9.00" fill="#818281">context_metadata_dir</text>
</g>
<!-- json2tabular_exp_metadata&#45;&gt;merge -->
<g id="edge46" class="edge">
<title>json2tabular_exp_metadata&#45;&gt;merge</title>
<path fill="none" stroke="#385723" stroke-width="2" d="M2429.02,-205.22C2422.21,-195.16 2412.23,-183.25 2400,-177 2333.83,-143.15 2109.67,-140.58 2016.81,-141.03"/>
<polygon fill="#385723" stroke="#385723" stroke-width="2" points="2016.66,-137.53 2006.68,-141.1 2016.7,-144.53 2016.66,-137.53"/>
<text text-anchor="middle" x="2463" y="-179.8" font-family="Fira Sans" font-size="9.00" fill="#818281">context_metadata_dir</text>
</g>
<!-- split&#45;&gt;json2tabular_exp_metadata -->
<g id="edge12" class="edge">
<title>split&#45;&gt;json2tabular_exp_metadata</title>
<path fill="none" stroke="#385723" stroke-width="2" d="M1911.14,-302.2C1979.39,-293.9 2153.59,-272.59 2166,-270 2181.42,-266.78 2184.61,-263.35 2200,-260 2251.84,-248.7 2267.76,-250.06 2324.13,-242.09"/>
<polygon fill="#385723" stroke="#385723" stroke-width="2" points="2324.94,-245.51 2334.33,-240.61 2323.93,-238.58 2324.94,-245.51"/>
<text text-anchor="middle" x="2227.5" y="-262.8" font-family="Fira Sans" font-size="9.00" fill="#818281">input_folder</text>
</g>
<!-- json2tabular_fertilizeration_improved -->
<g id="node25" class="node">
<title>json2tabular_fertilizeration_improved</title>
<polygon fill="#c5e0b4" stroke="#385723" stroke-width="2" points="1317.5,-205.5 1317.5,-241.5 1592.5,-241.5 1592.5,-205.5 1317.5,-205.5"/>
<text text-anchor="middle" x="1455" y="-219.8" font-family="Fira Sans" font-size="14.00">json2tabular_fertilizeration_improved</text>
</g>
<!-- split&#45;&gt;json2tabular_fertilizeration_improved -->
<g id="edge14" class="edge">
<title>split&#45;&gt;json2tabular_fertilizeration_improved</title>
<path fill="none" stroke="#385723" stroke-width="2" d="M1856.73,-295.97C1847.4,-293.02 1836.84,-290.02 1827,-288 1753.88,-272.98 1733.41,-283.54 1660,-270 1642.83,-266.83 1638.99,-264.04 1622,-260 1598.3,-254.37 1572.61,-248.69 1548.65,-243.58"/>
<polygon fill="#385723" stroke="#385723" stroke-width="2" points="1549.36,-240.16 1538.85,-241.5 1547.91,-247 1549.36,-240.16"/>
<text text-anchor="middle" x="1687.5" y="-262.8" font-family="Fira Sans" font-size="9.00" fill="#818281">input_folder</text>
</g>
<!-- json2tabular_fields -->
<g id="node27" class="node">
<title>json2tabular_fields</title>
<polygon fill="#c5e0b4" stroke="#385723" stroke-width="2" points="2168,-205.5 2168,-241.5 2316,-241.5 2316,-205.5 2168,-205.5"/>
<text text-anchor="middle" x="2242" y="-219.8" font-family="Fira Sans" font-size="14.00">json2tabular_fields</text>
</g>
<!-- split&#45;&gt;json2tabular_fields -->
<g id="edge16" class="edge">
<title>split&#45;&gt;json2tabular_fields</title>
<path fill="none" stroke="#385723" stroke-width="2" d="M1911.01,-300.22C1938.48,-294.42 1982.01,-284.03 2018,-270 2026.89,-266.53 2027.93,-262.96 2037,-260 2086.25,-243.92 2103.2,-250.79 2157.94,-242.05"/>
<polygon fill="#385723" stroke="#385723" stroke-width="2" points="2158.56,-245.5 2167.83,-240.37 2157.39,-238.6 2158.56,-245.5"/>
<text text-anchor="middle" x="2064.5" y="-262.8" font-family="Fira Sans" font-size="9.00" fill="#818281">input_folder</text>
</g>
<!-- json2tabular_genotype -->
<g id="node29" class="node">
<title>json2tabular_genotype</title>
<polygon fill="#c5e0b4" stroke="#385723" stroke-width="2" points="1123,-205.5 1123,-241.5 1299,-241.5 1299,-205.5 1123,-205.5"/>
<text text-anchor="middle" x="1211" y="-219.8" font-family="Fira Sans" font-size="14.00">json2tabular_genotype</text>
</g>
<!-- split&#45;&gt;json2tabular_genotype -->
<g id="edge18" class="edge">
<title>split&#45;&gt;json2tabular_genotype</title>
<path fill="none" stroke="#385723" stroke-width="2" d="M1856.79,-295.67C1847.46,-292.7 1836.89,-289.76 1827,-288 1682.39,-262.25 1642.47,-290.35 1497,-270 1477.14,-267.22 1472.75,-263.47 1453,-260 1389.47,-248.84 1372.77,-251.67 1309,-242 1308.9,-241.98 1308.8,-241.97 1308.7,-241.95"/>
<polygon fill="#385723" stroke="#385723" stroke-width="2" points="1309.53,-238.54 1299.11,-240.46 1308.45,-245.46 1309.53,-238.54"/>
<text text-anchor="middle" x="1524.5" y="-262.8" font-family="Fira Sans" font-size="9.00" fill="#818281">input_folder</text>
</g>
<!-- json2tabular_harvest -->
<g id="node31" class="node">
<title>json2tabular_harvest</title>
<polygon fill="#c5e0b4" stroke="#385723" stroke-width="2" points="1986.5,-205.5 1986.5,-241.5 2149.5,-241.5 2149.5,-205.5 1986.5,-205.5"/>
<text text-anchor="middle" x="2068" y="-219.8" font-family="Fira Sans" font-size="14.00">json2tabular_harvest</text>
</g>
<!-- split&#45;&gt;json2tabular_harvest -->
<g id="edge20" class="edge">
<title>split&#45;&gt;json2tabular_harvest</title>
<path fill="none" stroke="#385723" stroke-width="2" d="M1910.72,-288.35C1925.71,-279.18 1944.97,-268.14 1963,-260 1975.09,-254.54 1988.28,-249.45 2001.1,-244.92"/>
<polygon fill="#385723" stroke="#385723" stroke-width="2" points="2002.5,-248.14 2010.81,-241.57 2000.22,-241.52 2002.5,-248.14"/>
<text text-anchor="middle" x="1990.5" y="-262.8" font-family="Fira Sans" font-size="9.00" fill="#818281">input_folder</text>
</g>
<!-- json2tabular_irrigation -->
<g id="node33" class="node">
<title>json2tabular_irrigation</title>
<polygon fill="#c5e0b4" stroke="#385723" stroke-width="2" points="1795.5,-205.5 1795.5,-241.5 1968.5,-241.5 1968.5,-205.5 1795.5,-205.5"/>
<text text-anchor="middle" x="1882" y="-219.8" font-family="Fira Sans" font-size="14.00">json2tabular_irrigation</text>
</g>
<!-- split&#45;&gt;json2tabular_irrigation -->
<g id="edge22" class="edge">
<title>split&#45;&gt;json2tabular_irrigation</title>
<path fill="none" stroke="#385723" stroke-width="2" d="M1883.58,-288.32C1883.31,-277.69 1882.97,-263.81 1882.67,-251.7"/>
<polygon fill="#385723" stroke="#385723" stroke-width="2" points="1886.17,-251.56 1882.42,-241.65 1879.17,-251.74 1886.17,-251.56"/>
<text text-anchor="middle" x="1910.5" y="-262.8" font-family="Fira Sans" font-size="9.00" fill="#818281">input_folder</text>
</g>
<!-- json2tabular_planting -->
<g id="node35" class="node">
<title>json2tabular_planting</title>
<polygon fill="#c5e0b4" stroke="#385723" stroke-width="2" points="1610.5,-205.5 1610.5,-241.5 1777.5,-241.5 1777.5,-205.5 1610.5,-205.5"/>
<text text-anchor="middle" x="1694" y="-219.8" font-family="Fira Sans" font-size="14.00">json2tabular_planting</text>
</g>
<!-- split&#45;&gt;json2tabular_planting -->
<g id="edge24" class="edge">
<title>split&#45;&gt;json2tabular_planting</title>
<path fill="none" stroke="#385723" stroke-width="2" d="M1856.58,-292.56C1836.58,-283.24 1808.76,-270.51 1784,-260 1772.41,-255.08 1759.89,-250 1747.98,-245.27"/>
<polygon fill="#385723" stroke="#385723" stroke-width="2" points="1749.17,-241.98 1738.59,-241.57 1746.61,-248.49 1749.17,-241.98"/>
<text text-anchor="middle" x="1833.5" y="-262.8" font-family="Fira Sans" font-size="9.00" fill="#818281">input_folder</text>
</g>
<!-- json2tabular_plotdetails -->
<g id="node37" class="node">
<title>json2tabular_plotdetails</title>
<polygon fill="#c5e0b4" stroke="#385723" stroke-width="2" points="2562,-205.5 2562,-241.5 2744,-241.5 2744,-205.5 2562,-205.5"/>
<text text-anchor="middle" x="2653" y="-219.8" font-family="Fira Sans" font-size="14.00">json2tabular_plotdetails</text>
</g>
<!-- split&#45;&gt;json2tabular_plotdetails -->
<g id="edge26" class="edge">
<title>split&#45;&gt;json2tabular_plotdetails</title>
<path fill="none" stroke="#385723" stroke-width="2" d="M1911.04,-301.8C1940.5,-297.89 1989.02,-291.77 2031,-288 2162.71,-276.18 2196.6,-284.89 2328,-270 2354.86,-266.96 2361.22,-263.69 2388,-260 2457.94,-250.36 2478.24,-252.18 2551.55,-242.14"/>
<polygon fill="#385723" stroke="#385723" stroke-width="2" points="2552.33,-245.57 2561.75,-240.72 2551.36,-238.64 2552.33,-245.57"/>
<text text-anchor="middle" x="2415.5" y="-262.8" font-family="Fira Sans" font-size="9.00" fill="#818281">input_folder</text>
</g>
<!-- json2tabular_exp_metadata_output_folder -->
<g id="node24" class="node">
<title>json2tabular_exp_metadata_output_folder</title>
<polygon fill="#cfeae6" stroke="#9fd6ce" stroke-width="2" points="2368,-297 2368,-316 2550,-316 2550,-297 2368,-297"/>
<text text-anchor="middle" x="2459" y="-304" font-family="Fira Sans" font-size="10.00">llm_output_tabular/exp_metadata</text>
</g>
<!-- json2tabular_exp_metadata_output_folder&#45;&gt;json2tabular_exp_metadata -->
<g id="edge13" class="edge">
<title>json2tabular_exp_metadata_output_folder&#45;&gt;json2tabular_exp_metadata</title>
<path fill="none" stroke="#385723" stroke-width="2" stroke-dasharray="5,2" d="M2456.86,-296.83C2454.2,-286.05 2449.53,-267.14 2445.63,-251.36"/>
<polygon fill="#385723" stroke="#385723" stroke-width="2" points="2449.01,-250.43 2443.21,-241.56 2442.21,-252.11 2449.01,-250.43"/>
<text text-anchor="middle" x="2480.5" y="-262.8" font-family="Fira Sans" font-size="9.00" fill="#818281">output_folder</text>
</g>
<!-- json2tabular_fertilizeration_improved&#45;&gt;evaluation -->
<g id="edge34" class="edge">
<title>json2tabular_fertilizeration_improved&#45;&gt;evaluation</title>
<path fill="none" stroke="#385723" stroke-width="2" d="M1379.33,-205.24C1371.38,-200.55 1364.28,-194.58 1359,-187 1348.27,-171.59 1364.25,-160.74 1384.67,-153.51"/>
<polygon fill="#385723" stroke="#385723" stroke-width="2" points="1385.83,-156.82 1394.29,-150.44 1383.7,-150.15 1385.83,-156.82"/>
<text text-anchor="middle" x="1388" y="-179.8" font-family="Fira Sans" font-size="9.00" fill="#818281">fertilizers_dir</text>
</g>
<!-- json2tabular_fertilizeration_improved&#45;&gt;merge -->
<g id="edge45" class="edge">
<title>json2tabular_fertilizeration_improved&#45;&gt;merge</title>
<path fill="none" stroke="#385723" stroke-width="2" d="M1592.68,-206.01C1668.67,-196.89 1747.98,-187.32 1749,-187 1758.11,-184.16 1758.96,-180.06 1768,-177 1824.25,-157.94 1892.68,-148.78 1935.3,-144.63"/>
<polygon fill="#385723" stroke="#385723" stroke-width="2" points="1935.66,-148.11 1945.3,-143.7 1935.02,-141.14 1935.66,-148.11"/>
<text text-anchor="middle" x="1797" y="-179.8" font-family="Fira Sans" font-size="9.00" fill="#818281">fertilizers_dir</text>
</g>
<!-- json2tabular_fertilizeration_improved_output_folder -->
<g id="node26" class="node">
<title>json2tabular_fertilizeration_improved_output_folder</title>
<polygon fill="#cfeae6" stroke="#9fd6ce" stroke-width="2" points="1305,-297 1305,-316 1463,-316 1463,-297 1305,-297"/>
<text text-anchor="middle" x="1384" y="-304" font-family="Fira Sans" font-size="10.00">llm_output_tabular/fertilizers</text>
</g>
<!-- json2tabular_fertilizeration_improved_output_folder&#45;&gt;json2tabular_fertilizeration_improved -->
<g id="edge15" class="edge">
<title>json2tabular_fertilizeration_improved_output_folder&#45;&gt;json2tabular_fertilizeration_improved</title>
<path fill="none" stroke="#385723" stroke-width="2" stroke-dasharray="5,2" d="M1383.43,-296.97C1383.2,-287.16 1384.22,-271 1392,-260 1395.39,-255.21 1399.65,-250.98 1404.34,-247.27"/>
<polygon fill="#385723" stroke="#385723" stroke-width="2" points="1406.38,-250.12 1412.56,-241.52 1402.36,-244.38 1406.38,-250.12"/>
<text text-anchor="middle" x="1422.5" y="-262.8" font-family="Fira Sans" font-size="9.00" fill="#818281">output_folder</text>
</g>
<!-- json2tabular_fields&#45;&gt;evaluation -->
<g id="edge33" class="edge">
<title>json2tabular_fields&#45;&gt;evaluation</title>
<path fill="none" stroke="#385723" stroke-width="2" d="M2167.69,-206.71C2145.08,-201.23 2120.32,-194.54 2098,-187 2087.44,-183.43 2085.85,-179.57 2075,-177 1965.39,-151 1627.43,-143.9 1494,-142.08"/>
<polygon fill="#385723" stroke="#385723" stroke-width="2" points="1493.67,-138.58 1483.62,-141.95 1493.57,-145.58 1493.67,-138.58"/>
<text text-anchor="middle" x="2118.5" y="-179.8" font-family="Fira Sans" font-size="9.00" fill="#818281">fields_dir</text>
</g>
<!-- json2tabular_fields&#45;&gt;merge -->
<g id="edge44" class="edge">
<title>json2tabular_fields&#45;&gt;merge</title>
<path fill="none" stroke="#385723" stroke-width="2" d="M2316.18,-205.9C2333.16,-200.56 2347.78,-194.15 2353,-187 2355.62,-183.41 2355.99,-180.29 2353,-177 2330.68,-152.48 2109.45,-144.56 2016.64,-142.3"/>
<polygon fill="#385723" stroke="#385723" stroke-width="2" points="2016.58,-138.8 2006.5,-142.07 2016.42,-145.8 2016.58,-138.8"/>
<text text-anchor="middle" x="2375.5" y="-179.8" font-family="Fira Sans" font-size="9.00" fill="#818281">fields_dir</text>
</g>
<!-- json2tabular_fields_output_folder -->
<g id="node28" class="node">
<title>json2tabular_fields_output_folder</title>
<polygon fill="#cfeae6" stroke="#9fd6ce" stroke-width="2" points="2212,-297 2212,-316 2350,-316 2350,-297 2212,-297"/>
<text text-anchor="middle" x="2281" y="-304" font-family="Fira Sans" font-size="10.00">llm_output_tabular/fields</text>
</g>
<!-- json2tabular_fields_output_folder&#45;&gt;json2tabular_fields -->
<g id="edge17" class="edge">
<title>json2tabular_fields_output_folder&#45;&gt;json2tabular_fields</title>
<path fill="none" stroke="#385723" stroke-width="2" stroke-dasharray="5,2" d="M2276.83,-296.83C2271.59,-285.95 2262.36,-266.78 2254.72,-250.91"/>
<polygon fill="#385723" stroke="#385723" stroke-width="2" points="2257.71,-249.05 2250.21,-241.56 2251.4,-252.09 2257.71,-249.05"/>
<text text-anchor="middle" x="2293.5" y="-262.8" font-family="Fira Sans" font-size="9.00" fill="#818281">output_folder</text>
</g>
<!-- json2tabular_genotype&#45;&gt;evaluation -->
<g id="edge32" class="edge">
<title>json2tabular_genotype&#45;&gt;evaluation</title>
<path fill="none" stroke="#385723" stroke-width="2" d="M1235.31,-205.29C1249.75,-195.76 1268.75,-184.38 1287,-177 1318.12,-164.41 1354.72,-155.69 1384.21,-150.04"/>
<polygon fill="#385723" stroke="#385723" stroke-width="2" points="1385.12,-153.43 1394.32,-148.17 1383.85,-146.55 1385.12,-153.43"/>
<text text-anchor="middle" x="1319" y="-179.8" font-family="Fira Sans" font-size="9.00" fill="#818281">genotypes_dir</text>
</g>
<!-- json2tabular_genotype&#45;&gt;merge -->
<g id="edge43" class="edge">
<title>json2tabular_genotype&#45;&gt;merge</title>
<path fill="none" stroke="#385723" stroke-width="2" d="M1299.07,-206.23C1302.42,-205.79 1305.74,-205.37 1309,-205 1387.04,-196.08 1586.25,-207.78 1662,-187 1671.2,-184.48 1671.89,-179.84 1681,-177 1768.63,-149.69 1876.95,-143.19 1934.87,-141.77"/>
<polygon fill="#385723" stroke="#385723" stroke-width="2" points="1935.16,-145.27 1945.08,-141.56 1935.01,-138.27 1935.16,-145.27"/>
<text text-anchor="middle" x="1713" y="-179.8" font-family="Fira Sans" font-size="9.00" fill="#818281">genotypes_dir</text>
</g>
<!-- json2tabular_genotype_output_folder -->
<g id="node30" class="node">
<title>json2tabular_genotype_output_folder</title>
<polygon fill="#cfeae6" stroke="#9fd6ce" stroke-width="2" points="1123.5,-297 1123.5,-316 1286.5,-316 1286.5,-297 1123.5,-297"/>
<text text-anchor="middle" x="1205" y="-304" font-family="Fira Sans" font-size="10.00">llm_output_tabular/genotypes</text>
</g>
<!-- json2tabular_genotype_output_folder&#45;&gt;json2tabular_genotype -->
<g id="edge19" class="edge">
<title>json2tabular_genotype_output_folder&#45;&gt;json2tabular_genotype</title>
<path fill="none" stroke="#385723" stroke-width="2" stroke-dasharray="5,2" d="M1205.64,-296.83C1206.43,-286.15 1207.81,-267.5 1208.98,-251.81"/>
<polygon fill="#385723" stroke="#385723" stroke-width="2" points="1212.49,-251.79 1209.74,-241.56 1205.51,-251.27 1212.49,-251.79"/>
<text text-anchor="middle" x="1238.5" y="-262.8" font-family="Fira Sans" font-size="9.00" fill="#818281">output_folder</text>
</g>
<!-- json2tabular_harvest&#45;&gt;evaluation -->
<g id="edge31" class="edge">
<title>json2tabular_harvest&#45;&gt;evaluation</title>
<path fill="none" stroke="#385723" stroke-width="2" d="M1986.16,-206.07C1983.41,-205.68 1980.69,-205.32 1978,-205 1814.11,-185.19 1767.76,-224.52 1607,-187 1596.15,-184.47 1594.56,-180.56 1584,-177 1554.58,-167.08 1520.94,-158.67 1493.48,-152.53"/>
<polygon fill="#385723" stroke="#385723" stroke-width="2" points="1494.18,-149.1 1483.66,-150.37 1492.68,-155.94 1494.18,-149.1"/>
<text text-anchor="middle" x="1634.5" y="-179.8" font-family="Fira Sans" font-size="9.00" fill="#818281">harvests_dir</text>
</g>
<!-- json2tabular_harvest&#45;&gt;merge -->
<g id="edge42" class="edge">
<title>json2tabular_harvest&#45;&gt;merge</title>
<path fill="none" stroke="#385723" stroke-width="2" d="M2042.97,-205.2C2035.39,-199.64 2027.17,-193.28 2020,-187 2012.59,-180.51 2004.98,-172.99 1998.22,-165.96"/>
<polygon fill="#385723" stroke="#385723" stroke-width="2" points="2000.67,-163.45 1991.26,-158.59 1995.58,-168.26 2000.67,-163.45"/>
<text text-anchor="middle" x="2047.5" y="-179.8" font-family="Fira Sans" font-size="9.00" fill="#818281">harvests_dir</text>
</g>
<!-- json2tabular_harvest_output_folder -->
<g id="node32" class="node">
<title>json2tabular_harvest_output_folder</title>
<polygon fill="#cfeae6" stroke="#9fd6ce" stroke-width="2" points="2040,-297 2040,-316 2194,-316 2194,-297 2040,-297"/>
<text text-anchor="middle" x="2117" y="-304" font-family="Fira Sans" font-size="10.00">llm_output_tabular/harvests</text>
</g>
<!-- json2tabular_harvest_output_folder&#45;&gt;json2tabular_harvest -->
<g id="edge21" class="edge">
<title>json2tabular_harvest_output_folder&#45;&gt;json2tabular_harvest</title>
<path fill="none" stroke="#385723" stroke-width="2" stroke-dasharray="5,2" d="M2113.7,-296.81C2109.98,-287.42 2103.46,-272.16 2096,-260 2093.89,-256.56 2091.5,-253.07 2089.02,-249.69"/>
<polygon fill="#385723" stroke="#385723" stroke-width="2" points="2091.68,-247.4 2082.81,-241.6 2086.13,-251.66 2091.68,-247.4"/>
<text text-anchor="middle" x="2131.5" y="-262.8" font-family="Fira Sans" font-size="9.00" fill="#818281">output_folder</text>
</g>
<!-- json2tabular_irrigation&#45;&gt;evaluation -->
<g id="edge30" class="edge">
<title>json2tabular_irrigation&#45;&gt;evaluation</title>
<path fill="none" stroke="#385723" stroke-width="2" d="M1795.34,-206.11C1792.53,-205.72 1789.75,-205.34 1787,-205 1669.87,-190.28 1635.3,-220.15 1522,-187 1512.46,-184.21 1493.42,-173.9 1475.97,-163.8"/>
<polygon fill="#385723" stroke="#385723" stroke-width="2" points="1477.45,-160.62 1467.06,-158.58 1473.92,-166.66 1477.45,-160.62"/>
<text text-anchor="middle" x="1553" y="-179.8" font-family="Fira Sans" font-size="9.00" fill="#818281">irrigations_dir</text>
</g>
<!-- json2tabular_irrigation&#45;&gt;merge -->
<g id="edge41" class="edge">
<title>json2tabular_irrigation&#45;&gt;merge</title>
<path fill="none" stroke="#385723" stroke-width="2" d="M1901.93,-205.32C1915.39,-193.72 1933.35,-178.25 1948.21,-165.45"/>
<polygon fill="#385723" stroke="#385723" stroke-width="2" points="1950.8,-167.83 1956.09,-158.65 1946.23,-162.53 1950.8,-167.83"/>
<text text-anchor="middle" x="1965" y="-179.8" font-family="Fira Sans" font-size="9.00" fill="#818281">irrigations_dir</text>
</g>
<!-- json2tabular_irrigation_output_folder -->
<g id="node34" class="node">
<title>json2tabular_irrigation_output_folder</title>
<polygon fill="#cfeae6" stroke="#9fd6ce" stroke-width="2" points="1656.5,-297 1656.5,-316 1817.5,-316 1817.5,-297 1656.5,-297"/>
<text text-anchor="middle" x="1737" y="-304" font-family="Fira Sans" font-size="10.00">llm_output_tabular/irrigations</text>
</g>
<!-- json2tabular_irrigation_output_folder&#45;&gt;json2tabular_irrigation -->
<g id="edge23" class="edge">
<title>json2tabular_irrigation_output_folder&#45;&gt;json2tabular_irrigation</title>
<path fill="none" stroke="#385723" stroke-width="2" stroke-dasharray="5,2" d="M1730.1,-296.91C1723.06,-287.04 1714.32,-270.84 1723,-260 1725.36,-257.05 1753.5,-250.37 1785.46,-243.59"/>
<polygon fill="#385723" stroke="#385723" stroke-width="2" points="1786.41,-246.97 1795.48,-241.49 1784.97,-240.12 1786.41,-246.97"/>
<text text-anchor="middle" x="1753.5" y="-262.8" font-family="Fira Sans" font-size="9.00" fill="#818281">output_folder</text>
</g>
<!-- json2tabular_planting&#45;&gt;evaluation -->
<g id="edge29" class="edge">
<title>json2tabular_planting&#45;&gt;evaluation</title>
<path fill="none" stroke="#385723" stroke-width="2" d="M1610.31,-206.3C1607.51,-205.84 1604.73,-205.41 1602,-205 1566.18,-199.61 1464.45,-213.72 1440,-187 1435.52,-182.1 1433.87,-175.52 1433.68,-168.89"/>
<polygon fill="#385723" stroke="#385723" stroke-width="2" points="1437.19,-168.87 1434.38,-158.65 1430.21,-168.39 1437.19,-168.87"/>
<text text-anchor="middle" x="1469.5" y="-179.8" font-family="Fira Sans" font-size="9.00" fill="#818281">plantings_dir</text>
</g>
<!-- json2tabular_planting&#45;&gt;merge -->
<g id="edge40" class="edge">
<title>json2tabular_planting&#45;&gt;merge</title>
<path fill="none" stroke="#385723" stroke-width="2" d="M1763.08,-205.41C1784.6,-199.84 1808.36,-193.42 1830,-187 1843.47,-183 1846.61,-181.28 1860,-177 1885.05,-168.99 1913.26,-160.35 1935.59,-153.6"/>
<polygon fill="#385723" stroke="#385723" stroke-width="2" points="1936.84,-156.88 1945.41,-150.64 1934.82,-150.17 1936.84,-156.88"/>
<text text-anchor="middle" x="1889.5" y="-179.8" font-family="Fira Sans" font-size="9.00" fill="#818281">plantings_dir</text>
</g>
<!-- json2tabular_planting_output_folder -->
<g id="node36" class="node">
<title>json2tabular_planting_output_folder</title>
<polygon fill="#cfeae6" stroke="#9fd6ce" stroke-width="2" points="1481.5,-297 1481.5,-316 1638.5,-316 1638.5,-297 1481.5,-297"/>
<text text-anchor="middle" x="1560" y="-304" font-family="Fira Sans" font-size="10.00">llm_output_tabular/plantings</text>
</g>
<!-- json2tabular_planting_output_folder&#45;&gt;json2tabular_planting -->
<g id="edge25" class="edge">
<title>json2tabular_planting_output_folder&#45;&gt;json2tabular_planting</title>
<path fill="none" stroke="#385723" stroke-width="2" stroke-dasharray="5,2" d="M1557.37,-296.77C1554.93,-286.77 1552.8,-270.44 1561,-260 1564.44,-255.62 1583,-249.73 1605.21,-244"/>
<polygon fill="#385723" stroke="#385723" stroke-width="2" points="1606.08,-247.39 1614.92,-241.56 1604.37,-240.6 1606.08,-247.39"/>
<text text-anchor="middle" x="1591.5" y="-262.8" font-family="Fira Sans" font-size="9.00" fill="#818281">output_folder</text>
</g>
<!-- json2tabular_plotdetails&#45;&gt;evaluation -->
<g id="edge28" class="edge">
<title>json2tabular_plotdetails&#45;&gt;evaluation</title>
<path fill="none" stroke="#385723" stroke-width="2" d="M2561.77,-206.12C2558.82,-205.72 2555.89,-205.35 2553,-205 2432.71,-190.54 2397.59,-219.93 2281,-187 2271.82,-184.41 2271.21,-179.49 2262,-177 2243.43,-171.98 1674.52,-150.32 1493.64,-143.54"/>
<polygon fill="#385723" stroke="#385723" stroke-width="2" points="1493.68,-140.03 1483.55,-143.16 1493.42,-147.03 1493.68,-140.03"/>
<text text-anchor="middle" x="2315" y="-179.8" font-family="Fira Sans" font-size="9.00" fill="#818281">plot_details_dir</text>
</g>
<!-- json2tabular_plotdetails&#45;&gt;merge -->
<g id="edge39" class="edge">
<title>json2tabular_plotdetails&#45;&gt;merge</title>
<path fill="none" stroke="#385723" stroke-width="2" d="M2611.18,-205.39C2584.66,-195.33 2549.37,-183.37 2517,-177 2421.25,-158.17 2125.7,-146.55 2016.82,-142.82"/>
<polygon fill="#385723" stroke="#385723" stroke-width="2" points="2016.69,-139.31 2006.58,-142.47 2016.46,-146.31 2016.69,-139.31"/>
<text text-anchor="middle" x="2589" y="-179.8" font-family="Fira Sans" font-size="9.00" fill="#818281">plot_details_dir</text>
</g>
<!-- json2tabular_plotdetails_output_folder -->
<g id="node38" class="node">
<title>json2tabular_plotdetails_output_folder</title>
<polygon fill="#cfeae6" stroke="#9fd6ce" stroke-width="2" points="2568.5,-297 2568.5,-316 2737.5,-316 2737.5,-297 2568.5,-297"/>
<text text-anchor="middle" x="2653" y="-304" font-family="Fira Sans" font-size="10.00">llm_output_tabular/plot_details</text>
</g>
<!-- json2tabular_plotdetails_output_folder&#45;&gt;json2tabular_plotdetails -->
<g id="edge27" class="edge">
<title>json2tabular_plotdetails_output_folder&#45;&gt;json2tabular_plotdetails</title>
<path fill="none" stroke="#385723" stroke-width="2" stroke-dasharray="5,2" d="M2653,-296.83C2653,-286.15 2653,-267.5 2653,-251.81"/>
<polygon fill="#385723" stroke="#385723" stroke-width="2" points="2656.5,-251.56 2653,-241.56 2649.5,-251.56 2656.5,-251.56"/>
<text text-anchor="middle" x="2683.5" y="-262.8" font-family="Fira Sans" font-size="9.00" fill="#818281">output_folder</text>
</g>
<!-- evaluation&#45;&gt;evaluation_directory -->
<g id="edge48" class="edge">
<title>evaluation&#45;&gt;evaluation_directory</title>
<path fill="none" stroke="#385723" stroke-width="2" d="M1394.45,-126.89C1354.92,-115.68 1295.59,-98.82 1244,-84 1237.63,-82.17 1231.01,-80.26 1224.37,-78.35"/>
<polygon fill="#385723" stroke="#385723" stroke-width="2" points="1225.26,-74.96 1214.68,-75.55 1223.32,-81.69 1225.26,-74.96"/>
<text text-anchor="middle" x="1359" y="-96.8" font-family="Fira Sans" font-size="9.00" fill="#818281">evaluation_directory</text>
</g>
<!-- merge&#45;&gt;tabular_llm -->
<g id="edge53" class="edge">
<title>merge&#45;&gt;tabular_llm</title>
<path fill="none" stroke="#385723" stroke-width="2" d="M1945.2,-135.81C1840.22,-123.23 1495.38,-81.91 1357.61,-65.4"/>
<polygon fill="#385723" stroke="#385723" stroke-width="2" points="1357.62,-61.88 1347.27,-64.16 1356.78,-68.83 1357.62,-61.88"/>
<text text-anchor="middle" x="1703.5" y="-96.8" font-family="Fira Sans" font-size="9.00" fill="#818281">tabular_llm</text>
</g>
</g>
</svg>
