<?xml version="1.0" encoding="UTF-8" standalone="no"?>
<!DOCTYPE svg PUBLIC "-//W3C//DTD SVG 1.1//EN"
 "http://www.w3.org/Graphics/SVG/1.1/DTD/svg11.dtd">
<!-- Generated by graphviz version 2.43.0 (0)
 -->
<!-- Title: workflow Pages: 1 -->
<svg width="2748pt" height="455pt"
 viewBox="0.00 0.00 2747.50 455.00" xmlns="http://www.w3.org/2000/svg" xmlns:xlink="http://www.w3.org/1999/xlink">
<g id="graph0" class="graph" transform="scale(1 1) rotate(0) translate(4 451)">
<title>workflow</title>
<g id="clust1" class="cluster">
<title>cluster_inputs</title>
<polygon fill="#eeeeee" stroke="#818281" stroke-width="2" points="176.5,-363 176.5,-439 1716.5,-439 1716.5,-363 176.5,-363"/>
<text text-anchor="middle" x="946.5" y="-423.8" font-family="Fira Sans" font-size="14.00">Workflow Inputs</text>
</g>
<g id="clust2" class="cluster">
<title>cluster_outputs</title>
<polygon fill="#eeeeee" stroke="#818281" stroke-width="2" points="409.5,-8 409.5,-84 1230.5,-84 1230.5,-8 409.5,-8"/>
<text text-anchor="middle" x="820" y="-15.8" font-family="Fira Sans" font-size="14.00">Workflow Outputs</text>
</g>
<!-- icasa_template -->
<g id="node1" class="node">
<title>icasa_template</title>
<polygon fill="#6fc1b5" stroke="#0f9884" stroke-width="2" points="560.5,-371.5 560.5,-407.5 680.5,-407.5 680.5,-371.5 560.5,-371.5"/>
<text text-anchor="middle" x="620.5" y="-385.8" font-family="Fira Sans" font-size="14.00">icasa_template</text>
</g>
<!-- generate_icasa_json -->
<g id="node17" class="node">
<title>generate_icasa_json</title>
<polygon fill="#c5e0b4" stroke="#385723" stroke-width="2" points="457.5,-288.5 457.5,-324.5 613.5,-324.5 613.5,-288.5 457.5,-288.5"/>
<text text-anchor="middle" x="535.5" y="-302.8" font-family="Fira Sans" font-size="14.00">generate_icasa_json</text>
</g>
<!-- icasa_template&#45;&gt;generate_icasa_json -->
<g id="edge3" class="edge">
<title>icasa_template&#45;&gt;generate_icasa_json</title>
<path fill="none" stroke="#385723" stroke-width="2" d="M609.71,-371.46C603.54,-362.44 595.29,-351.5 586.5,-343 581.97,-338.62 576.85,-334.39 571.65,-330.47"/>
<polygon fill="#385723" stroke="#385723" stroke-width="2" points="573.64,-327.59 563.48,-324.59 569.55,-333.27 573.64,-327.59"/>
<text text-anchor="middle" x="628" y="-345.8" font-family="Fira Sans" font-size="9.00" fill="#818281">template_path</text>
</g>
<!-- evaluation_folder_name -->
<g id="node2" class="node">
<title>evaluation_folder_name</title>
<polygon fill="#6fc1b5" stroke="#0f9884" stroke-width="2" points="1178.5,-371.5 1178.5,-407.5 1360.5,-407.5 1360.5,-371.5 1178.5,-371.5"/>
<text text-anchor="middle" x="1269.5" y="-385.8" font-family="Fira Sans" font-size="14.00">evaluation_folder_name</text>
</g>
<!-- evaluation -->
<g id="node39" class="node">
<title>evaluation</title>
<polygon fill="#c5e0b4" stroke="#385723" stroke-width="2" points="1258,-122.5 1258,-158.5 1347,-158.5 1347,-122.5 1258,-122.5"/>
<text text-anchor="middle" x="1302.5" y="-136.8" font-family="Fira Sans" font-size="14.00">evaluation</text>
</g>
<!-- evaluation_folder_name&#45;&gt;evaluation -->
<g id="edge37" class="edge">
<title>evaluation_folder_name&#45;&gt;evaluation</title>
<path fill="none" stroke="#385723" stroke-width="2" d="M1204.24,-371.45C1192.68,-368.55 1180.75,-365.63 1169.5,-363 1090.3,-344.5 1042.82,-387.26 990.5,-325 956.18,-284.16 953.71,-246.28 987.5,-205 1019.78,-165.57 1166.4,-150.08 1247.74,-144.44"/>
<polygon fill="#385723" stroke="#385723" stroke-width="2" points="1248.05,-147.93 1257.8,-143.77 1247.59,-140.94 1248.05,-147.93"/>
<text text-anchor="middle" x="994" y="-262.8" font-family="Fira Sans" font-size="9.00" fill="#818281">output_folder</text>
</g>
<!-- processed_folder_name -->
<g id="node3" class="node">
<title>processed_folder_name</title>
<polygon fill="#6fc1b5" stroke="#0f9884" stroke-width="2" points="802.5,-371.5 802.5,-407.5 982.5,-407.5 982.5,-371.5 802.5,-371.5"/>
<text text-anchor="middle" x="892.5" y="-385.8" font-family="Fira Sans" font-size="14.00">processed_folder_name</text>
</g>
<!-- process_paper -->
<g id="node16" class="node">
<title>process_paper</title>
<polygon fill="#c5e0b4" stroke="#385723" stroke-width="2" points="674,-288.5 674,-324.5 791,-324.5 791,-288.5 674,-288.5"/>
<text text-anchor="middle" x="732.5" y="-302.8" font-family="Fira Sans" font-size="14.00">process_paper</text>
</g>
<!-- processed_folder_name&#45;&gt;process_paper -->
<g id="edge1" class="edge">
<title>processed_folder_name&#45;&gt;process_paper</title>
<path fill="none" stroke="#385723" stroke-width="2" d="M845.67,-371.42C832.16,-366.01 817.55,-359.69 804.5,-353 791.37,-346.27 777.54,-337.88 765.54,-330.13"/>
<polygon fill="#385723" stroke="#385723" stroke-width="2" points="767.45,-327.2 757.17,-324.65 763.62,-333.06 767.45,-327.2"/>
<text text-anchor="middle" x="835" y="-345.8" font-family="Fira Sans" font-size="9.00" fill="#818281">output_folder</text>
</g>
<!-- json_folder_name -->
<g id="node4" class="node">
<title>json_folder_name</title>
<polygon fill="#6fc1b5" stroke="#0f9884" stroke-width="2" points="404.5,-371.5 404.5,-407.5 542.5,-407.5 542.5,-371.5 404.5,-371.5"/>
<text text-anchor="middle" x="473.5" y="-385.8" font-family="Fira Sans" font-size="14.00">json_folder_name</text>
</g>
<!-- json_folder_name&#45;&gt;generate_icasa_json -->
<g id="edge4" class="edge">
<title>json_folder_name&#45;&gt;generate_icasa_json</title>
<path fill="none" stroke="#385723" stroke-width="2" d="M486.31,-371.14C492.64,-362.62 500.41,-352.23 507.5,-343 510.08,-339.64 512.82,-336.11 515.53,-332.65"/>
<polygon fill="#385723" stroke="#385723" stroke-width="2" points="518.3,-334.79 521.74,-324.76 512.8,-330.46 518.3,-334.79"/>
<text text-anchor="middle" x="547" y="-345.8" font-family="Fira Sans" font-size="9.00" fill="#818281">json_folder_name</text>
</g>
<!-- tabular_folder_name -->
<g id="node5" class="node">
<title>tabular_folder_name</title>
<polygon fill="#6fc1b5" stroke="#0f9884" stroke-width="2" points="1001,-371.5 1001,-407.5 1160,-407.5 1160,-371.5 1001,-371.5"/>
<text text-anchor="middle" x="1080.5" y="-385.8" font-family="Fira Sans" font-size="14.00">tabular_folder_name</text>
</g>
<!-- json_to_xlsx -->
<g id="node19" class="node">
<title>json_to_xlsx</title>
<polygon fill="#c5e0b4" stroke="#385723" stroke-width="2" points="816.5,-205.5 816.5,-241.5 916.5,-241.5 916.5,-205.5 816.5,-205.5"/>
<text text-anchor="middle" x="866.5" y="-219.8" font-family="Fira Sans" font-size="14.00">json_to_xlsx</text>
</g>
<!-- tabular_folder_name&#45;&gt;json_to_xlsx -->
<g id="edge7" class="edge">
<title>tabular_folder_name&#45;&gt;json_to_xlsx</title>
<path fill="none" stroke="#385723" stroke-width="2" d="M1021.17,-371.37C1011.27,-368.55 1001.1,-365.67 991.5,-363 946.5,-350.47 923.65,-360.69 893.5,-325 876.17,-304.48 869.86,-273.9 867.62,-251.86"/>
<polygon fill="#385723" stroke="#385723" stroke-width="2" points="871.1,-251.5 866.81,-241.81 864.12,-252.06 871.1,-251.5"/>
<text text-anchor="middle" x="924" y="-304.3" font-family="Fira Sans" font-size="9.00" fill="#818281">output_folder</text>
</g>
<!-- llm_output_json -->
<g id="node6" class="node">
<title>llm_output_json</title>
<polygon fill="#6fc1b5" stroke="#0f9884" stroke-width="2" points="1379,-371.5 1379,-407.5 1504,-407.5 1504,-371.5 1379,-371.5"/>
<text text-anchor="middle" x="1441.5" y="-385.8" font-family="Fira Sans" font-size="14.00">llm_output_json</text>
</g>
<!-- split -->
<g id="node23" class="node">
<title>split</title>
<polygon fill="#c5e0b4" stroke="#385723" stroke-width="2" points="1739.5,-288.5 1739.5,-324.5 1793.5,-324.5 1793.5,-288.5 1739.5,-288.5"/>
<text text-anchor="middle" x="1766.5" y="-302.8" font-family="Fira Sans" font-size="14.00">split</text>
</g>
<!-- llm_output_json&#45;&gt;split -->
<g id="edge38" class="edge">
<title>llm_output_json&#45;&gt;split</title>
<path fill="none" stroke="#385723" stroke-width="2" d="M1486.5,-371.44C1495.38,-368.39 1504.68,-365.42 1513.5,-363 1597.39,-339.97 1620.95,-345.46 1705.5,-325 1713.33,-323.11 1721.66,-320.87 1729.58,-318.63"/>
<polygon fill="#385723" stroke="#385723" stroke-width="2" points="1730.66,-321.96 1739.3,-315.83 1728.72,-315.24 1730.66,-321.96"/>
<text text-anchor="middle" x="1644.5" y="-345.8" font-family="Fira Sans" font-size="9.00" fill="#818281">llm_output_json</text>
</g>
<!-- llm_tabular_folder_name -->
<g id="node7" class="node">
<title>llm_tabular_folder_name</title>
<polygon fill="#6fc1b5" stroke="#0f9884" stroke-width="2" points="1522,-371.5 1522,-407.5 1709,-407.5 1709,-371.5 1522,-371.5"/>
<text text-anchor="middle" x="1615.5" y="-385.8" font-family="Fira Sans" font-size="14.00">llm_tabular_folder_name</text>
</g>
<!-- merge -->
<g id="node40" class="node">
<title>merge</title>
<polygon fill="#c5e0b4" stroke="#385723" stroke-width="2" points="2004,-122.5 2004,-158.5 2065,-158.5 2065,-122.5 2004,-122.5"/>
<text text-anchor="middle" x="2034.5" y="-136.8" font-family="Fira Sans" font-size="14.00">merge</text>
</g>
<!-- llm_tabular_folder_name&#45;&gt;merge -->
<g id="edge47" class="edge">
<title>llm_tabular_folder_name&#45;&gt;merge</title>
<path fill="none" stroke="#385723" stroke-width="2" d="M1709.21,-385.88C1952.65,-378.65 2588.41,-356.8 2620.5,-325 2658.43,-287.41 2657.31,-248.61 2626.5,-205 2605,-174.58 2583.97,-184.58 2547.5,-177 2457.5,-158.3 2180.35,-146.71 2075.37,-142.9"/>
<polygon fill="#385723" stroke="#385723" stroke-width="2" points="2075.3,-139.39 2065.18,-142.53 2075.05,-146.39 2075.3,-139.39"/>
<text text-anchor="middle" x="2694" y="-262.8" font-family="Fira Sans" font-size="9.00" fill="#818281">output_folder_name</text>
</g>
<!-- training_data_folder_name -->
<g id="node8" class="node">
<title>training_data_folder_name</title>
<polygon fill="#6fc1b5" stroke="#0f9884" stroke-width="2" points="185,-371.5 185,-407.5 386,-407.5 386,-371.5 185,-371.5"/>
<text text-anchor="middle" x="285.5" y="-385.8" font-family="Fira Sans" font-size="14.00">training_data_folder_name</text>
</g>
<!-- create_training_data -->
<g id="node20" class="node">
<title>create_training_data</title>
<polygon fill="#c5e0b4" stroke="#385723" stroke-width="2" points="349.5,-205.5 349.5,-241.5 507.5,-241.5 507.5,-205.5 349.5,-205.5"/>
<text text-anchor="middle" x="428.5" y="-219.8" font-family="Fira Sans" font-size="14.00">create_training_data</text>
</g>
<!-- training_data_folder_name&#45;&gt;create_training_data -->
<g id="edge10" class="edge">
<title>training_data_folder_name&#45;&gt;create_training_data</title>
<path fill="none" stroke="#385723" stroke-width="2" d="M304.77,-371.33C310.07,-365.87 315.47,-359.54 319.5,-353 335.57,-326.91 324.26,-312.63 342.5,-288 354.52,-271.77 371.87,-257.86 387.84,-247.23"/>
<polygon fill="#385723" stroke="#385723" stroke-width="2" points="389.99,-250.01 396.52,-241.67 386.21,-244.11 389.99,-250.01"/>
<text text-anchor="middle" x="395.5" y="-304.3" font-family="Fira Sans" font-size="9.00" fill="#818281">output_directory_name</text>
</g>
<!-- md_folder -->
<g id="node9" class="node">
<title>md_folder</title>
<polygon fill="#6fc1b5" stroke="#0f9884" stroke-width="2" points="698.5,-371.5 698.5,-407.5 784.5,-407.5 784.5,-371.5 698.5,-371.5"/>
<text text-anchor="middle" x="741.5" y="-385.8" font-family="Fira Sans" font-size="14.00">md_folder</text>
</g>
<!-- md_folder&#45;&gt;process_paper -->
<g id="edge2" class="edge">
<title>md_folder&#45;&gt;process_paper</title>
<path fill="none" stroke="#385723" stroke-width="2" d="M732.58,-371.25C730.1,-365.59 727.75,-359.16 726.5,-353 725.33,-347.24 725.34,-341.02 725.93,-335.09"/>
<polygon fill="#385723" stroke="#385723" stroke-width="2" points="729.44,-335.3 727.52,-324.88 722.53,-334.22 729.44,-335.3"/>
<text text-anchor="middle" x="754" y="-345.8" font-family="Fira Sans" font-size="9.00" fill="#818281">input_folder</text>
</g>
<!-- evaluation_directory -->
<g id="node10" class="node">
<title>evaluation_directory</title>
<polygon fill="#f8cbad" stroke="#823909" stroke-width="2" points="953,-39.5 953,-75.5 1110,-75.5 1110,-39.5 953,-39.5"/>
<text text-anchor="middle" x="1031.5" y="-53.8" font-family="Fira Sans" font-size="14.00">evaluation_directory</text>
</g>
<!-- training_data -->
<g id="node11" class="node">
<title>training_data</title>
<polygon fill="#f8cbad" stroke="#823909" stroke-width="2" points="417.5,-39.5 417.5,-75.5 525.5,-75.5 525.5,-39.5 417.5,-39.5"/>
<text text-anchor="middle" x="471.5" y="-53.8" font-family="Fira Sans" font-size="14.00">training_data</text>
</g>
<!-- processed_papers -->
<g id="node12" class="node">
<title>processed_papers</title>
<polygon fill="#f8cbad" stroke="#823909" stroke-width="2" points="649.5,-39.5 649.5,-75.5 791.5,-75.5 791.5,-39.5 649.5,-39.5"/>
<text text-anchor="middle" x="720.5" y="-53.8" font-family="Fira Sans" font-size="14.00">processed_papers</text>
</g>
<!-- icasa_json -->
<g id="node13" class="node">
<title>icasa_json</title>
<polygon fill="#f8cbad" stroke="#823909" stroke-width="2" points="544,-39.5 544,-75.5 631,-75.5 631,-39.5 544,-39.5"/>
<text text-anchor="middle" x="587.5" y="-53.8" font-family="Fira Sans" font-size="14.00">icasa_json</text>
</g>
<!-- manual_tabular -->
<g id="node14" class="node">
<title>manual_tabular</title>
<polygon fill="#f8cbad" stroke="#823909" stroke-width="2" points="810,-39.5 810,-75.5 935,-75.5 935,-39.5 810,-39.5"/>
<text text-anchor="middle" x="872.5" y="-53.8" font-family="Fira Sans" font-size="14.00">manual_tabular</text>
</g>
<!-- tabular_llm -->
<g id="node15" class="node">
<title>tabular_llm</title>
<polygon fill="#f8cbad" stroke="#823909" stroke-width="2" points="1128.5,-39.5 1128.5,-75.5 1222.5,-75.5 1222.5,-39.5 1128.5,-39.5"/>
<text text-anchor="middle" x="1175.5" y="-53.8" font-family="Fira Sans" font-size="14.00">tabular_llm</text>
</g>
<!-- process_paper&#45;&gt;processed_papers -->
<g id="edge50" class="edge">
<title>process_paper&#45;&gt;processed_papers</title>
<path fill="none" stroke="#385723" stroke-width="2" d="M731.66,-288.13C729.6,-245.78 724.31,-136.92 721.83,-85.79"/>
<polygon fill="#385723" stroke="#385723" stroke-width="2" points="725.31,-85.34 721.33,-75.52 718.32,-85.68 725.31,-85.34"/>
<text text-anchor="middle" x="767.5" y="-179.8" font-family="Fira Sans" font-size="9.00" fill="#818281">processed_papers</text>
</g>
<!-- process_paper&#45;&gt;create_training_data -->
<g id="edge9" class="edge">
<title>process_paper&#45;&gt;create_training_data</title>
<path fill="none" stroke="#385723" stroke-width="2" d="M673.7,-294.14C642.55,-287.76 603.76,-279.23 569.5,-270 542.2,-262.64 512.35,-253.22 487.18,-244.85"/>
<polygon fill="#385723" stroke="#385723" stroke-width="2" points="488.01,-241.44 477.41,-241.59 485.79,-248.08 488.01,-241.44"/>
<text text-anchor="middle" x="609" y="-262.8" font-family="Fira Sans" font-size="9.00" fill="#818281">markdown_folder</text>
</g>
<!-- generate_icasa_json&#45;&gt;icasa_json -->
<g id="edge51" class="edge">
<title>generate_icasa_json&#45;&gt;icasa_json</title>
<path fill="none" stroke="#385723" stroke-width="2" d="M539.16,-288.13C548.09,-245.69 571.09,-136.47 581.82,-85.47"/>
<polygon fill="#385723" stroke="#385723" stroke-width="2" points="585.28,-86.03 583.92,-75.52 578.43,-84.59 585.28,-86.03"/>
<text text-anchor="middle" x="584.5" y="-179.8" font-family="Fira Sans" font-size="9.00" fill="#818281">icasa_json</text>
</g>
<!-- generate_icasa_json&#45;&gt;json_to_xlsx -->
<g id="edge6" class="edge">
<title>generate_icasa_json&#45;&gt;json_to_xlsx</title>
<path fill="none" stroke="#385723" stroke-width="2" d="M605.29,-288.42C664.96,-273.82 749.93,-253.03 806.57,-239.17"/>
<polygon fill="#385723" stroke="#385723" stroke-width="2" points="807.58,-242.52 816.46,-236.75 805.91,-235.72 807.58,-242.52"/>
<text text-anchor="middle" x="748" y="-262.8" font-family="Fira Sans" font-size="9.00" fill="#818281">input_folder</text>
</g>
<!-- generate_icasa_json&#45;&gt;create_training_data -->
<g id="edge8" class="edge">
<title>generate_icasa_json&#45;&gt;create_training_data</title>
<path fill="none" stroke="#385723" stroke-width="2" d="M501.01,-288.43C491.42,-283.06 481.24,-276.75 472.5,-270 464.58,-263.88 456.73,-256.36 449.9,-249.21"/>
<polygon fill="#385723" stroke="#385723" stroke-width="2" points="452.29,-246.64 442.93,-241.67 447.15,-251.39 452.29,-246.64"/>
<text text-anchor="middle" x="497" y="-262.8" font-family="Fira Sans" font-size="9.00" fill="#818281">json_folder</text>
</g>
<!-- generate_icasa_json_icasa_attributes -->
<g id="node18" class="node">
<title>generate_icasa_json_icasa_attributes</title>
<polygon fill="#cfeae6" stroke="#9fd6ce" stroke-width="2" points="0,-380 0,-399 167,-399 167,-380 0,-380"/>
<text text-anchor="middle" x="83.5" y="-387" font-family="Fira Sans" font-size="10.00">../../R/icasa_attributes_config.R</text>
</g>
<!-- generate_icasa_json_icasa_attributes&#45;&gt;generate_icasa_json -->
<g id="edge5" class="edge">
<title>generate_icasa_json_icasa_attributes&#45;&gt;generate_icasa_json</title>
<path fill="none" stroke="#385723" stroke-width="2" stroke-dasharray="5,2" d="M109.74,-379.94C127.34,-374.45 151.12,-367.54 172.5,-363 291.47,-337.74 323.5,-344.81 443.5,-325 444.76,-324.79 446.04,-324.58 447.32,-324.36"/>
<polygon fill="#385723" stroke="#385723" stroke-width="2" points="447.99,-327.8 457.25,-322.65 446.8,-320.9 447.99,-327.8"/>
<text text-anchor="middle" x="329.5" y="-345.8" font-family="Fira Sans" font-size="9.00" fill="#818281">icasa_attributes</text>
</g>
<!-- json_to_xlsx&#45;&gt;manual_tabular -->
<g id="edge52" class="edge">
<title>json_to_xlsx&#45;&gt;manual_tabular</title>
<path fill="none" stroke="#385723" stroke-width="2" d="M867.13,-205.26C868.17,-176.76 870.26,-119.62 871.51,-85.66"/>
<polygon fill="#385723" stroke="#385723" stroke-width="2" points="875.01,-85.63 871.88,-75.51 868.01,-85.38 875.01,-85.63"/>
<text text-anchor="middle" x="905" y="-138.3" font-family="Fira Sans" font-size="9.00" fill="#818281">manual_tabular</text>
</g>
<!-- json_to_xlsx&#45;&gt;evaluation -->
<g id="edge36" class="edge">
<title>json_to_xlsx&#45;&gt;evaluation</title>
<path fill="none" stroke="#385723" stroke-width="2" d="M869.51,-205.48C872.21,-195.52 877.24,-183.63 886.5,-177 915.21,-156.47 1141.02,-146.63 1247.41,-143.1"/>
<polygon fill="#385723" stroke="#385723" stroke-width="2" points="1247.75,-146.59 1257.63,-142.77 1247.52,-139.59 1247.75,-146.59"/>
<text text-anchor="middle" x="920.5" y="-179.8" font-family="Fira Sans" font-size="9.00" fill="#818281">reference_data</text>
</g>
<!-- create_training_data&#45;&gt;training_data -->
<g id="edge49" class="edge">
<title>create_training_data&#45;&gt;training_data</title>
<path fill="none" stroke="#385723" stroke-width="2" d="M433.02,-205.26C440.52,-176.64 455.6,-119.13 464.49,-85.22"/>
<polygon fill="#385723" stroke="#385723" stroke-width="2" points="467.89,-86.07 467.04,-75.51 461.12,-84.3 467.89,-86.07"/>
<text text-anchor="middle" x="484" y="-138.3" font-family="Fira Sans" font-size="9.00" fill="#818281">training_data</text>
</g>
<!-- create_training_data_icasa_attributes -->
<g id="node21" class="node">
<title>create_training_data_icasa_attributes</title>
<polygon fill="#cfeae6" stroke="#9fd6ce" stroke-width="2" points="131,-297 131,-316 298,-316 298,-297 131,-297"/>
<text text-anchor="middle" x="214.5" y="-304" font-family="Fira Sans" font-size="10.00">../../R/icasa_attributes_config.R</text>
</g>
<!-- create_training_data_icasa_attributes&#45;&gt;create_training_data -->
<g id="edge11" class="edge">
<title>create_training_data_icasa_attributes&#45;&gt;create_training_data</title>
<path fill="none" stroke="#385723" stroke-width="2" stroke-dasharray="5,2" d="M218.26,-296.94C223.32,-286.47 233.36,-269.04 247.5,-260 274.65,-242.66 308.42,-233.46 339.41,-228.69"/>
<polygon fill="#385723" stroke="#385723" stroke-width="2" points="339.94,-232.15 349.36,-227.29 338.97,-225.22 339.94,-232.15"/>
<text text-anchor="middle" x="283.5" y="-262.8" font-family="Fira Sans" font-size="9.00" fill="#818281">icasa_attributes</text>
</g>
<!-- json2tabular_exp_metadata -->
<g id="node22" class="node">
<title>json2tabular_exp_metadata</title>
<polygon fill="#c5e0b4" stroke="#385723" stroke-width="2" points="2050,-205.5 2050,-241.5 2259,-241.5 2259,-205.5 2050,-205.5"/>
<text text-anchor="middle" x="2154.5" y="-219.8" font-family="Fira Sans" font-size="14.00">json2tabular_exp_metadata</text>
</g>
<!-- json2tabular_exp_metadata&#45;&gt;evaluation -->
<g id="edge35" class="edge">
<title>json2tabular_exp_metadata&#45;&gt;evaluation</title>
<path fill="none" stroke="#385723" stroke-width="2" d="M2049.89,-205.86C2047.07,-205.55 2044.27,-205.26 2041.5,-205 1932.59,-194.61 1656.19,-211.23 1549.5,-187 1538.63,-184.53 1537.2,-180.12 1526.5,-177 1469.92,-160.51 1402.93,-151.16 1357.04,-146.25"/>
<polygon fill="#385723" stroke="#385723" stroke-width="2" points="1357.31,-142.76 1347,-145.21 1356.59,-149.72 1357.31,-142.76"/>
<text text-anchor="middle" x="1599.5" y="-179.8" font-family="Fira Sans" font-size="9.00" fill="#818281">context_metadata_dir</text>
</g>
<!-- json2tabular_exp_metadata&#45;&gt;merge -->
<g id="edge46" class="edge">
<title>json2tabular_exp_metadata&#45;&gt;merge</title>
<path fill="none" stroke="#385723" stroke-width="2" d="M2149.75,-205.39C2146.34,-195.9 2140.84,-184.52 2132.5,-177 2116.48,-162.55 2094.13,-153.86 2074.82,-148.7"/>
<polygon fill="#385723" stroke="#385723" stroke-width="2" points="2075.59,-145.28 2065.04,-146.31 2073.93,-152.08 2075.59,-145.28"/>
<text text-anchor="middle" x="2189.5" y="-179.8" font-family="Fira Sans" font-size="9.00" fill="#818281">context_metadata_dir</text>
</g>
<!-- split&#45;&gt;json2tabular_exp_metadata -->
<g id="edge12" class="edge">
<title>split&#45;&gt;json2tabular_exp_metadata</title>
<path fill="none" stroke="#385723" stroke-width="2" d="M1793.74,-299.27C1820.28,-292.92 1861.63,-282.27 1896.5,-270 1907.01,-266.3 1908.78,-263.06 1919.5,-260 1969.22,-245.8 1985.47,-249.66 2039.66,-242.21"/>
<polygon fill="#385723" stroke="#385723" stroke-width="2" points="2040.45,-245.63 2049.84,-240.73 2039.45,-238.7 2040.45,-245.63"/>
<text text-anchor="middle" x="1947" y="-262.8" font-family="Fira Sans" font-size="9.00" fill="#818281">input_folder</text>
</g>
<!-- json2tabular_fertilizeration_improved -->
<g id="node25" class="node">
<title>json2tabular_fertilizeration_improved</title>
<polygon fill="#c5e0b4" stroke="#385723" stroke-width="2" points="1757,-205.5 1757,-241.5 2032,-241.5 2032,-205.5 1757,-205.5"/>
<text text-anchor="middle" x="1894.5" y="-219.8" font-family="Fira Sans" font-size="14.00">json2tabular_fertilizeration_improved</text>
</g>
<!-- split&#45;&gt;json2tabular_fertilizeration_improved -->
<g id="edge14" class="edge">
<title>split&#45;&gt;json2tabular_fertilizeration_improved</title>
<path fill="none" stroke="#385723" stroke-width="2" d="M1793.65,-288.32C1812.65,-276.29 1838.24,-260.1 1858.88,-247.04"/>
<polygon fill="#385723" stroke="#385723" stroke-width="2" points="1860.82,-249.96 1867.39,-241.65 1857.07,-244.04 1860.82,-249.96"/>
<text text-anchor="middle" x="1865" y="-262.8" font-family="Fira Sans" font-size="9.00" fill="#818281">input_folder</text>
</g>
<!-- json2tabular_fields -->
<g id="node27" class="node">
<title>json2tabular_fields</title>
<polygon fill="#c5e0b4" stroke="#385723" stroke-width="2" points="2277.5,-205.5 2277.5,-241.5 2425.5,-241.5 2425.5,-205.5 2277.5,-205.5"/>
<text text-anchor="middle" x="2351.5" y="-219.8" font-family="Fira Sans" font-size="14.00">json2tabular_fields</text>
</g>
<!-- split&#45;&gt;json2tabular_fields -->
<g id="edge16" class="edge">
<title>split&#45;&gt;json2tabular_fields</title>
<path fill="none" stroke="#385723" stroke-width="2" d="M1793.59,-301.96C1821.03,-298.39 1864.71,-292.75 1902.5,-288 1967.81,-279.8 1984.41,-279.79 2049.5,-270 2074.5,-266.24 2080.48,-263.61 2105.5,-260 2174.54,-250.04 2194.81,-253.22 2267.27,-242.1"/>
<polygon fill="#385723" stroke="#385723" stroke-width="2" points="2268.02,-245.52 2277.36,-240.51 2266.93,-238.61 2268.02,-245.52"/>
<text text-anchor="middle" x="2133" y="-262.8" font-family="Fira Sans" font-size="9.00" fill="#818281">input_folder</text>
</g>
<!-- json2tabular_genotype -->
<g id="node29" class="node">
<title>json2tabular_genotype</title>
<polygon fill="#c5e0b4" stroke="#385723" stroke-width="2" points="1381.5,-205.5 1381.5,-241.5 1557.5,-241.5 1557.5,-205.5 1381.5,-205.5"/>
<text text-anchor="middle" x="1469.5" y="-219.8" font-family="Fira Sans" font-size="14.00">json2tabular_genotype</text>
</g>
<!-- split&#45;&gt;json2tabular_genotype -->
<g id="edge18" class="edge">
<title>split&#45;&gt;json2tabular_genotype</title>
<path fill="none" stroke="#385723" stroke-width="2" d="M1739.28,-294.14C1723.46,-287.4 1703.21,-278.53 1685.5,-270 1676.9,-265.86 1675.52,-263.1 1666.5,-260 1665.19,-259.55 1616.34,-250.75 1567.62,-242.02"/>
<polygon fill="#385723" stroke="#385723" stroke-width="2" points="1568.03,-238.54 1557.57,-240.22 1566.8,-245.43 1568.03,-238.54"/>
<text text-anchor="middle" x="1713" y="-262.8" font-family="Fira Sans" font-size="9.00" fill="#818281">input_folder</text>
</g>
<!-- json2tabular_harvest -->
<g id="node31" class="node">
<title>json2tabular_harvest</title>
<polygon fill="#c5e0b4" stroke="#385723" stroke-width="2" points="1576,-205.5 1576,-241.5 1739,-241.5 1739,-205.5 1576,-205.5"/>
<text text-anchor="middle" x="1657.5" y="-219.8" font-family="Fira Sans" font-size="14.00">json2tabular_harvest</text>
</g>
<!-- split&#45;&gt;json2tabular_harvest -->
<g id="edge20" class="edge">
<title>split&#45;&gt;json2tabular_harvest</title>
<path fill="none" stroke="#385723" stroke-width="2" d="M1761.48,-288.07C1758.01,-278.71 1752.56,-267.57 1744.5,-260 1738.81,-254.66 1732.22,-250.08 1725.25,-246.15"/>
<polygon fill="#385723" stroke="#385723" stroke-width="2" points="1726.76,-242.99 1716.26,-241.53 1723.55,-249.22 1726.76,-242.99"/>
<text text-anchor="middle" x="1779" y="-262.8" font-family="Fira Sans" font-size="9.00" fill="#818281">input_folder</text>
</g>
<!-- json2tabular_irrigation -->
<g id="node33" class="node">
<title>json2tabular_irrigation</title>
<polygon fill="#c5e0b4" stroke="#385723" stroke-width="2" points="2444,-205.5 2444,-241.5 2617,-241.5 2617,-205.5 2444,-205.5"/>
<text text-anchor="middle" x="2530.5" y="-219.8" font-family="Fira Sans" font-size="14.00">json2tabular_irrigation</text>
</g>
<!-- split&#45;&gt;json2tabular_irrigation -->
<g id="edge22" class="edge">
<title>split&#45;&gt;json2tabular_irrigation</title>
<path fill="none" stroke="#385723" stroke-width="2" d="M1793.53,-301.43C1820.93,-297.44 1864.57,-291.47 1902.5,-288 2048.77,-274.62 2086.46,-285.72 2232.5,-270 2260.25,-267.01 2266.88,-264 2294.5,-260 2353.55,-251.44 2370.84,-251.59 2433.85,-242.05"/>
<polygon fill="#385723" stroke="#385723" stroke-width="2" points="2434.58,-245.48 2443.93,-240.5 2433.51,-238.56 2434.58,-245.48"/>
<text text-anchor="middle" x="2322" y="-262.8" font-family="Fira Sans" font-size="9.00" fill="#818281">input_folder</text>
</g>
<!-- json2tabular_planting -->
<g id="node35" class="node">
<title>json2tabular_planting</title>
<polygon fill="#c5e0b4" stroke="#385723" stroke-width="2" points="1197,-205.5 1197,-241.5 1364,-241.5 1364,-205.5 1197,-205.5"/>
<text text-anchor="middle" x="1280.5" y="-219.8" font-family="Fira Sans" font-size="14.00">json2tabular_planting</text>
</g>
<!-- split&#45;&gt;json2tabular_planting -->
<g id="edge24" class="edge">
<title>split&#45;&gt;json2tabular_planting</title>
<path fill="none" stroke="#385723" stroke-width="2" d="M1739.41,-296.67C1728.92,-293.52 1716.74,-290.22 1705.5,-288 1634.43,-273.96 1614.76,-283.03 1543.5,-270 1525.9,-266.78 1522.06,-263.44 1504.5,-260 1449.46,-249.23 1432.69,-251.27 1374.35,-242.23"/>
<polygon fill="#385723" stroke="#385723" stroke-width="2" points="1374.63,-238.73 1364.2,-240.61 1373.53,-245.65 1374.63,-238.73"/>
<text text-anchor="middle" x="1571" y="-262.8" font-family="Fira Sans" font-size="9.00" fill="#818281">input_folder</text>
</g>
<!-- json2tabular_plotdetails -->
<g id="node37" class="node">
<title>json2tabular_plotdetails</title>
<polygon fill="#c5e0b4" stroke="#385723" stroke-width="2" points="996.5,-205.5 996.5,-241.5 1178.5,-241.5 1178.5,-205.5 996.5,-205.5"/>
<text text-anchor="middle" x="1087.5" y="-219.8" font-family="Fira Sans" font-size="14.00">json2tabular_plotdetails</text>
</g>
<!-- split&#45;&gt;json2tabular_plotdetails -->
<g id="edge26" class="edge">
<title>split&#45;&gt;json2tabular_plotdetails</title>
<path fill="none" stroke="#385723" stroke-width="2" d="M1739.47,-296.34C1728.98,-293.16 1716.8,-289.91 1705.5,-288 1563.29,-263.96 1524.46,-289.06 1381.5,-270 1360.33,-267.18 1355.56,-263.53 1334.5,-260 1270.02,-249.19 1253.17,-251.58 1188.5,-242 1188.4,-241.98 1188.3,-241.97 1188.19,-241.95"/>
<polygon fill="#385723" stroke="#385723" stroke-width="2" points="1189,-238.54 1178.58,-240.49 1187.94,-245.46 1189,-238.54"/>
<text text-anchor="middle" x="1409" y="-262.8" font-family="Fira Sans" font-size="9.00" fill="#818281">input_folder</text>
</g>
<!-- json2tabular_exp_metadata_output_folder -->
<g id="node24" class="node">
<title>json2tabular_exp_metadata_output_folder</title>
<polygon fill="#cfeae6" stroke="#9fd6ce" stroke-width="2" points="2087.5,-297 2087.5,-316 2269.5,-316 2269.5,-297 2087.5,-297"/>
<text text-anchor="middle" x="2178.5" y="-304" font-family="Fira Sans" font-size="10.00">llm_output_tabular/exp_metadata</text>
</g>
<!-- json2tabular_exp_metadata_output_folder&#45;&gt;json2tabular_exp_metadata -->
<g id="edge13" class="edge">
<title>json2tabular_exp_metadata_output_folder&#45;&gt;json2tabular_exp_metadata</title>
<path fill="none" stroke="#385723" stroke-width="2" stroke-dasharray="5,2" d="M2175.93,-296.83C2172.74,-286.05 2167.13,-267.14 2162.46,-251.36"/>
<polygon fill="#385723" stroke="#385723" stroke-width="2" points="2165.75,-250.15 2159.55,-241.56 2159.04,-252.14 2165.75,-250.15"/>
<text text-anchor="middle" x="2198" y="-262.8" font-family="Fira Sans" font-size="9.00" fill="#818281">output_folder</text>
</g>
<!-- json2tabular_fertilizeration_improved&#45;&gt;evaluation -->
<g id="edge34" class="edge">
<title>json2tabular_fertilizeration_improved&#45;&gt;evaluation</title>
<path fill="none" stroke="#385723" stroke-width="2" d="M1756.97,-205.8C1754.12,-205.52 1751.3,-205.26 1748.5,-205 1624.32,-193.58 1589.71,-216.3 1468.5,-187 1457.67,-184.38 1456.06,-180.58 1445.5,-177 1416.82,-167.28 1384.09,-158.96 1357.18,-152.82"/>
<polygon fill="#385723" stroke="#385723" stroke-width="2" points="1357.7,-149.35 1347.18,-150.58 1356.17,-156.18 1357.7,-149.35"/>
<text text-anchor="middle" x="1497.5" y="-179.8" font-family="Fira Sans" font-size="9.00" fill="#818281">fertilizers_dir</text>
</g>
<!-- json2tabular_fertilizeration_improved&#45;&gt;merge -->
<g id="edge45" class="edge">
<title>json2tabular_fertilizeration_improved&#45;&gt;merge</title>
<path fill="none" stroke="#385723" stroke-width="2" d="M2013.8,-205.4C2031.3,-200.58 2045.48,-194.53 2051.5,-187 2055.89,-181.51 2055.62,-174.78 2053.26,-168.19"/>
<polygon fill="#385723" stroke="#385723" stroke-width="2" points="2056.18,-166.21 2048.6,-158.8 2049.91,-169.31 2056.18,-166.21"/>
<text text-anchor="middle" x="2083.5" y="-179.8" font-family="Fira Sans" font-size="9.00" fill="#818281">fertilizers_dir</text>
</g>
<!-- json2tabular_fertilizeration_improved_output_folder -->
<g id="node26" class="node">
<title>json2tabular_fertilizeration_improved_output_folder</title>
<polygon fill="#cfeae6" stroke="#9fd6ce" stroke-width="2" points="1911.5,-297 1911.5,-316 2069.5,-316 2069.5,-297 1911.5,-297"/>
<text text-anchor="middle" x="1990.5" y="-304" font-family="Fira Sans" font-size="10.00">llm_output_tabular/fertilizers</text>
</g>
<!-- json2tabular_fertilizeration_improved_output_folder&#45;&gt;json2tabular_fertilizeration_improved -->
<g id="edge15" class="edge">
<title>json2tabular_fertilizeration_improved_output_folder&#45;&gt;json2tabular_fertilizeration_improved</title>
<path fill="none" stroke="#385723" stroke-width="2" stroke-dasharray="5,2" d="M1990.41,-296.74C1989.85,-286.72 1987.49,-270.37 1978.5,-260 1974.04,-254.86 1968.71,-250.44 1962.92,-246.65"/>
<polygon fill="#385723" stroke="#385723" stroke-width="2" points="1964.57,-243.56 1954.17,-241.54 1961.04,-249.6 1964.57,-243.56"/>
<text text-anchor="middle" x="2015" y="-262.8" font-family="Fira Sans" font-size="9.00" fill="#818281">output_folder</text>
</g>
<!-- json2tabular_fields&#45;&gt;evaluation -->
<g id="edge33" class="edge">
<title>json2tabular_fields&#45;&gt;evaluation</title>
<path fill="none" stroke="#385723" stroke-width="2" d="M2277.4,-206.19C2274.4,-205.75 2271.42,-205.35 2268.5,-205 2136.05,-189.18 1797.5,-220.94 1668.5,-187 1659.27,-184.57 1658.64,-179.76 1649.5,-177 1549.55,-146.82 1426.85,-141.19 1357.37,-140.73"/>
<polygon fill="#385723" stroke="#385723" stroke-width="2" points="1357.11,-137.23 1347.1,-140.7 1357.09,-144.23 1357.11,-137.23"/>
<text text-anchor="middle" x="1689" y="-179.8" font-family="Fira Sans" font-size="9.00" fill="#818281">fields_dir</text>
</g>
<!-- json2tabular_fields&#45;&gt;merge -->
<g id="edge44" class="edge">
<title>json2tabular_fields&#45;&gt;merge</title>
<path fill="none" stroke="#385723" stroke-width="2" d="M2316.74,-205.44C2295.93,-195.84 2268.7,-184.34 2243.5,-177 2186.21,-160.31 2117.66,-150.52 2075.08,-145.59"/>
<polygon fill="#385723" stroke="#385723" stroke-width="2" points="2075.43,-142.1 2065.11,-144.46 2074.65,-149.06 2075.43,-142.1"/>
<text text-anchor="middle" x="2291" y="-179.8" font-family="Fira Sans" font-size="9.00" fill="#818281">fields_dir</text>
</g>
<!-- json2tabular_fields_output_folder -->
<g id="node28" class="node">
<title>json2tabular_fields_output_folder</title>
<polygon fill="#cfeae6" stroke="#9fd6ce" stroke-width="2" points="2287.5,-297 2287.5,-316 2425.5,-316 2425.5,-297 2287.5,-297"/>
<text text-anchor="middle" x="2356.5" y="-304" font-family="Fira Sans" font-size="10.00">llm_output_tabular/fields</text>
</g>
<!-- json2tabular_fields_output_folder&#45;&gt;json2tabular_fields -->
<g id="edge17" class="edge">
<title>json2tabular_fields_output_folder&#45;&gt;json2tabular_fields</title>
<path fill="none" stroke="#385723" stroke-width="2" stroke-dasharray="5,2" d="M2355.96,-296.83C2355.31,-286.15 2354.15,-267.5 2353.19,-251.81"/>
<polygon fill="#385723" stroke="#385723" stroke-width="2" points="2356.66,-251.33 2352.55,-241.56 2349.68,-251.76 2356.66,-251.33"/>
<text text-anchor="middle" x="2384" y="-262.8" font-family="Fira Sans" font-size="9.00" fill="#818281">output_folder</text>
</g>
<!-- json2tabular_genotype&#45;&gt;evaluation -->
<g id="edge32" class="edge">
<title>json2tabular_genotype&#45;&gt;evaluation</title>
<path fill="none" stroke="#385723" stroke-width="2" d="M1381.11,-205.97C1342.97,-198.42 1306.32,-190.41 1303.5,-187 1299.34,-181.97 1297.76,-175.44 1297.53,-168.9"/>
<polygon fill="#385723" stroke="#385723" stroke-width="2" points="1301.03,-169.03 1298.1,-158.85 1294.04,-168.63 1301.03,-169.03"/>
<text text-anchor="middle" x="1335.5" y="-179.8" font-family="Fira Sans" font-size="9.00" fill="#818281">genotypes_dir</text>
</g>
<!-- json2tabular_genotype&#45;&gt;merge -->
<g id="edge43" class="edge">
<title>json2tabular_genotype&#45;&gt;merge</title>
<path fill="none" stroke="#385723" stroke-width="2" d="M1557.57,-206.26C1560.92,-205.8 1564.24,-205.38 1567.5,-205 1638.02,-196.74 1818.08,-205.97 1886.5,-187 1895.7,-184.45 1896.63,-180.51 1905.5,-177 1934.39,-165.58 1968.3,-156.4 1994.11,-150.24"/>
<polygon fill="#385723" stroke="#385723" stroke-width="2" points="1994.98,-153.63 2003.92,-147.95 1993.39,-146.81 1994.98,-153.63"/>
<text text-anchor="middle" x="1937.5" y="-179.8" font-family="Fira Sans" font-size="9.00" fill="#818281">genotypes_dir</text>
</g>
<!-- json2tabular_genotype_output_folder -->
<g id="node30" class="node">
<title>json2tabular_genotype_output_folder</title>
<polygon fill="#cfeae6" stroke="#9fd6ce" stroke-width="2" points="1361,-297 1361,-316 1524,-316 1524,-297 1361,-297"/>
<text text-anchor="middle" x="1442.5" y="-304" font-family="Fira Sans" font-size="10.00">llm_output_tabular/genotypes</text>
</g>
<!-- json2tabular_genotype_output_folder&#45;&gt;json2tabular_genotype -->
<g id="edge19" class="edge">
<title>json2tabular_genotype_output_folder&#45;&gt;json2tabular_genotype</title>
<path fill="none" stroke="#385723" stroke-width="2" stroke-dasharray="5,2" d="M1441.18,-296.85C1440.1,-287.49 1439.34,-272.27 1443.5,-260 1444.64,-256.64 1446.22,-253.34 1448.04,-250.17"/>
<polygon fill="#385723" stroke="#385723" stroke-width="2" points="1451.05,-251.97 1453.67,-241.71 1445.22,-248.1 1451.05,-251.97"/>
<text text-anchor="middle" x="1474" y="-262.8" font-family="Fira Sans" font-size="9.00" fill="#818281">output_folder</text>
</g>
<!-- json2tabular_harvest&#45;&gt;evaluation -->
<g id="edge31" class="edge">
<title>json2tabular_harvest&#45;&gt;evaluation</title>
<path fill="none" stroke="#385723" stroke-width="2" d="M1575.71,-206.42C1572.6,-205.92 1569.52,-205.44 1566.5,-205 1488.71,-193.56 1465.86,-209.45 1390.5,-187 1385.3,-185.45 1363.8,-174.35 1343.36,-163.51"/>
<polygon fill="#385723" stroke="#385723" stroke-width="2" points="1344.89,-160.35 1334.42,-158.74 1341.6,-166.53 1344.89,-160.35"/>
<text text-anchor="middle" x="1418" y="-179.8" font-family="Fira Sans" font-size="9.00" fill="#818281">harvests_dir</text>
</g>
<!-- json2tabular_harvest&#45;&gt;merge -->
<g id="edge42" class="edge">
<title>json2tabular_harvest&#45;&gt;merge</title>
<path fill="none" stroke="#385723" stroke-width="2" d="M1739.28,-206.33C1742.39,-205.86 1745.47,-205.41 1748.5,-205 1847.91,-191.51 1879.62,-222.37 1973.5,-187 1980.7,-184.29 1993.98,-174.62 2006.31,-164.89"/>
<polygon fill="#385723" stroke="#385723" stroke-width="2" points="2008.59,-167.55 2014.21,-158.56 2004.21,-162.09 2008.59,-167.55"/>
<text text-anchor="middle" x="2016" y="-179.8" font-family="Fira Sans" font-size="9.00" fill="#818281">harvests_dir</text>
</g>
<!-- json2tabular_harvest_output_folder -->
<g id="node32" class="node">
<title>json2tabular_harvest_output_folder</title>
<polygon fill="#cfeae6" stroke="#9fd6ce" stroke-width="2" points="1542.5,-297 1542.5,-316 1696.5,-316 1696.5,-297 1542.5,-297"/>
<text text-anchor="middle" x="1619.5" y="-304" font-family="Fira Sans" font-size="10.00">llm_output_tabular/harvests</text>
</g>
<!-- json2tabular_harvest_output_folder&#45;&gt;json2tabular_harvest -->
<g id="edge21" class="edge">
<title>json2tabular_harvest_output_folder&#45;&gt;json2tabular_harvest</title>
<path fill="none" stroke="#385723" stroke-width="2" stroke-dasharray="5,2" d="M1612.92,-296.74C1606.7,-287.29 1599.17,-271.99 1605.5,-260 1607.8,-255.64 1610.91,-251.71 1614.47,-248.2"/>
<polygon fill="#385723" stroke="#385723" stroke-width="2" points="1616.92,-250.71 1622.28,-241.58 1612.39,-245.37 1616.92,-250.71"/>
<text text-anchor="middle" x="1636" y="-262.8" font-family="Fira Sans" font-size="9.00" fill="#818281">output_folder</text>
</g>
<!-- json2tabular_irrigation&#45;&gt;evaluation -->
<g id="edge30" class="edge">
<title>json2tabular_irrigation&#45;&gt;evaluation</title>
<path fill="none" stroke="#385723" stroke-width="2" d="M2464.65,-205.47C2422.35,-195.3 2366.06,-183.19 2315.5,-177 2220.42,-165.36 1554.31,-147.84 1357.27,-142.86"/>
<polygon fill="#385723" stroke="#385723" stroke-width="2" points="1357.24,-139.36 1347.15,-142.61 1357.06,-146.36 1357.24,-139.36"/>
<text text-anchor="middle" x="2405.5" y="-179.8" font-family="Fira Sans" font-size="9.00" fill="#818281">irrigations_dir</text>
</g>
<!-- json2tabular_irrigation&#45;&gt;merge -->
<g id="edge41" class="edge">
<title>json2tabular_irrigation&#45;&gt;merge</title>
<path fill="none" stroke="#385723" stroke-width="2" d="M2510.51,-205.4C2497.46,-195.27 2479.54,-183.24 2461.5,-177 2390.84,-152.57 2167.9,-144.62 2075.37,-142.33"/>
<polygon fill="#385723" stroke="#385723" stroke-width="2" points="2075.35,-138.83 2065.27,-142.09 2075.18,-145.82 2075.35,-138.83"/>
<text text-anchor="middle" x="2512.5" y="-179.8" font-family="Fira Sans" font-size="9.00" fill="#818281">irrigations_dir</text>
</g>
<!-- json2tabular_irrigation_output_folder -->
<g id="node34" class="node">
<title>json2tabular_irrigation_output_folder</title>
<polygon fill="#cfeae6" stroke="#9fd6ce" stroke-width="2" points="2450,-297 2450,-316 2611,-316 2611,-297 2450,-297"/>
<text text-anchor="middle" x="2530.5" y="-304" font-family="Fira Sans" font-size="10.00">llm_output_tabular/irrigations</text>
</g>
<!-- json2tabular_irrigation_output_folder&#45;&gt;json2tabular_irrigation -->
<g id="edge23" class="edge">
<title>json2tabular_irrigation_output_folder&#45;&gt;json2tabular_irrigation</title>
<path fill="none" stroke="#385723" stroke-width="2" stroke-dasharray="5,2" d="M2530.5,-296.83C2530.5,-286.15 2530.5,-267.5 2530.5,-251.81"/>
<polygon fill="#385723" stroke="#385723" stroke-width="2" points="2534,-251.56 2530.5,-241.56 2527,-251.56 2534,-251.56"/>
<text text-anchor="middle" x="2561" y="-262.8" font-family="Fira Sans" font-size="9.00" fill="#818281">output_folder</text>
</g>
<!-- json2tabular_planting&#45;&gt;evaluation -->
<g id="edge29" class="edge">
<title>json2tabular_planting&#45;&gt;evaluation</title>
<path fill="none" stroke="#385723" stroke-width="2" d="M1235.02,-205.34C1222.5,-197.88 1214.14,-188.26 1221.5,-177 1227.93,-167.16 1237.76,-160.03 1248.38,-154.87"/>
<polygon fill="#385723" stroke="#385723" stroke-width="2" points="1250.03,-157.97 1257.85,-150.82 1247.28,-151.53 1250.03,-157.97"/>
<text text-anchor="middle" x="1251" y="-179.8" font-family="Fira Sans" font-size="9.00" fill="#818281">plantings_dir</text>
</g>
<!-- json2tabular_planting&#45;&gt;merge -->
<g id="edge40" class="edge">
<title>json2tabular_planting&#45;&gt;merge</title>
<path fill="none" stroke="#385723" stroke-width="2" d="M1364.16,-206.05C1366.97,-205.67 1369.75,-205.32 1372.5,-205 1467.95,-193.99 1711.72,-211.99 1804.5,-187 1813.71,-184.52 1814.46,-180.05 1823.5,-177 1880.73,-157.68 1950.38,-148.58 1993.58,-144.51"/>
<polygon fill="#385723" stroke="#385723" stroke-width="2" points="1994.06,-147.98 2003.71,-143.61 1993.44,-141.01 1994.06,-147.98"/>
<text text-anchor="middle" x="1853" y="-179.8" font-family="Fira Sans" font-size="9.00" fill="#818281">plantings_dir</text>
</g>
<!-- json2tabular_planting_output_folder -->
<g id="node36" class="node">
<title>json2tabular_planting_output_folder</title>
<polygon fill="#cfeae6" stroke="#9fd6ce" stroke-width="2" points="1186,-297 1186,-316 1343,-316 1343,-297 1186,-297"/>
<text text-anchor="middle" x="1264.5" y="-304" font-family="Fira Sans" font-size="10.00">llm_output_tabular/plantings</text>
</g>
<!-- json2tabular_planting_output_folder&#45;&gt;json2tabular_planting -->
<g id="edge25" class="edge">
<title>json2tabular_planting_output_folder&#45;&gt;json2tabular_planting</title>
<path fill="none" stroke="#385723" stroke-width="2" stroke-dasharray="5,2" d="M1266.21,-296.83C1268.32,-286.15 1272.01,-267.5 1275.1,-251.81"/>
<polygon fill="#385723" stroke="#385723" stroke-width="2" points="1278.63,-252.05 1277.13,-241.56 1271.76,-250.69 1278.63,-252.05"/>
<text text-anchor="middle" x="1303" y="-262.8" font-family="Fira Sans" font-size="9.00" fill="#818281">output_folder</text>
</g>
<!-- json2tabular_plotdetails&#45;&gt;evaluation -->
<g id="edge28" class="edge">
<title>json2tabular_plotdetails&#45;&gt;evaluation</title>
<path fill="none" stroke="#385723" stroke-width="2" d="M1105.25,-205.49C1116.31,-195.79 1131.29,-184.17 1146.5,-177 1178.33,-162 1216.86,-153.15 1247.66,-148.04"/>
<polygon fill="#385723" stroke="#385723" stroke-width="2" points="1248.46,-151.46 1257.79,-146.45 1247.37,-144.55 1248.46,-151.46"/>
<text text-anchor="middle" x="1180.5" y="-179.8" font-family="Fira Sans" font-size="9.00" fill="#818281">plot_details_dir</text>
</g>
<!-- json2tabular_plotdetails&#45;&gt;merge -->
<g id="edge39" class="edge">
<title>json2tabular_plotdetails&#45;&gt;merge</title>
<path fill="none" stroke="#385723" stroke-width="2" d="M1178.54,-206.13C1181.9,-205.72 1185.23,-205.34 1188.5,-205 1304.62,-193.01 1600.67,-216.94 1713.5,-187 1722.72,-184.55 1723.39,-179.83 1732.5,-177 1822.88,-148.97 1934.74,-142.79 1993.7,-141.6"/>
<polygon fill="#385723" stroke="#385723" stroke-width="2" points="1993.79,-145.1 2003.73,-141.44 1993.68,-138.1 1993.79,-145.1"/>
<text text-anchor="middle" x="1766.5" y="-179.8" font-family="Fira Sans" font-size="9.00" fill="#818281">plot_details_dir</text>
</g>
<!-- json2tabular_plotdetails_output_folder -->
<g id="node38" class="node">
<title>json2tabular_plotdetails_output_folder</title>
<polygon fill="#cfeae6" stroke="#9fd6ce" stroke-width="2" points="999,-297 999,-316 1168,-316 1168,-297 999,-297"/>
<text text-anchor="middle" x="1083.5" y="-304" font-family="Fira Sans" font-size="10.00">llm_output_tabular/plot_details</text>
</g>
<!-- json2tabular_plotdetails_output_folder&#45;&gt;json2tabular_plotdetails -->
<g id="edge27" class="edge">
<title>json2tabular_plotdetails_output_folder&#45;&gt;json2tabular_plotdetails</title>
<path fill="none" stroke="#385723" stroke-width="2" stroke-dasharray="5,2" d="M1083.93,-296.83C1084.46,-286.15 1085.38,-267.5 1086.15,-251.81"/>
<polygon fill="#385723" stroke="#385723" stroke-width="2" points="1089.66,-251.72 1086.66,-241.56 1082.67,-251.38 1089.66,-251.72"/>
<text text-anchor="middle" x="1116" y="-262.8" font-family="Fira Sans" font-size="9.00" fill="#818281">output_folder</text>
</g>
<!-- evaluation&#45;&gt;evaluation_directory -->
<g id="edge48" class="edge">
<title>evaluation&#45;&gt;evaluation_directory</title>
<path fill="none" stroke="#385723" stroke-width="2" d="M1257.75,-126.12C1214.34,-113.15 1147.93,-93.3 1098.28,-78.46"/>
<polygon fill="#385723" stroke="#385723" stroke-width="2" points="1099.16,-75.07 1088.58,-75.56 1097.16,-81.78 1099.16,-75.07"/>
<text text-anchor="middle" x="1228.5" y="-96.8" font-family="Fira Sans" font-size="9.00" fill="#818281">evaluation_directory</text>
</g>
<!-- merge&#45;&gt;tabular_llm -->
<g id="edge53" class="edge">
<title>merge&#45;&gt;tabular_llm</title>
<path fill="none" stroke="#385723" stroke-width="2" d="M2003.93,-136.62C1878.05,-124.75 1398.67,-79.54 1232.57,-63.88"/>
<polygon fill="#385723" stroke="#385723" stroke-width="2" points="1232.84,-60.39 1222.55,-62.94 1232.18,-67.36 1232.84,-60.39"/>
<text text-anchor="middle" x="1681" y="-96.8" font-family="Fira Sans" font-size="9.00" fill="#818281">tabular_llm</text>
</g>
</g>
</svg>
