<?xml version="1.0" encoding="UTF-8" standalone="no"?>
<!DOCTYPE svg PUBLIC "-//W3C//DTD SVG 1.1//EN"
 "http://www.w3.org/Graphics/SVG/1.1/DTD/svg11.dtd">
<!-- Generated by graphviz version 2.43.0 (0)
 -->
<!-- Title: workflow Pages: 1 -->
<svg width="553pt" height="372pt"
 viewBox="0.00 0.00 552.50 372.00" xmlns="http://www.w3.org/2000/svg" xmlns:xlink="http://www.w3.org/1999/xlink">
<g id="graph0" class="graph" transform="scale(1 1) rotate(0) translate(4 368)">
<title>workflow</title>
<g id="clust1" class="cluster">
<title>cluster_inputs</title>
<polygon fill="#eeeeee" stroke="#818281" stroke-width="2" points="8,-280 8,-356 270,-356 270,-280 8,-280"/>
<text text-anchor="middle" x="139" y="-340.8" font-family="Fira Sans" font-size="14.00">Workflow Inputs</text>
</g>
<g id="clust2" class="cluster">
<title>cluster_outputs</title>
<polygon fill="#eeeeee" stroke="#818281" stroke-width="2" points="40,-8 40,-84 181,-84 181,-8 40,-8"/>
<text text-anchor="middle" x="110.5" y="-15.8" font-family="Fira Sans" font-size="14.00">Workflow Outputs</text>
</g>
<!-- icasa_template -->
<g id="node1" class="node">
<title>icasa_template</title>
<polygon fill="#6fc1b5" stroke="#0f9884" stroke-width="2" points="142,-288.5 142,-324.5 262,-324.5 262,-288.5 142,-288.5"/>
<text text-anchor="middle" x="202" y="-302.8" font-family="Fira Sans" font-size="14.00">icasa_template</text>
</g>
<!-- generate_icasa_json -->
<g id="node5" class="node">
<title>generate_icasa_json</title>
<polygon fill="#c5e0b4" stroke="#385723" stroke-width="2" points="219,-205.5 219,-241.5 375,-241.5 375,-205.5 219,-205.5"/>
<text text-anchor="middle" x="297" y="-219.8" font-family="Fira Sans" font-size="14.00">generate_icasa_json</text>
</g>
<!-- icasa_template&#45;&gt;generate_icasa_json -->
<g id="edge3" class="edge">
<title>icasa_template&#45;&gt;generate_icasa_json</title>
<path fill="none" stroke="#385723" stroke-width="2" d="M212.52,-288.17C218.61,-279.07 226.87,-268.14 236,-260 241.22,-255.34 247.15,-251 253.21,-247.06"/>
<polygon fill="#385723" stroke="#385723" stroke-width="2" points="255.43,-249.8 262.12,-241.58 251.76,-243.84 255.43,-249.8"/>
<text text-anchor="middle" x="269.5" y="-262.8" font-family="Fira Sans" font-size="9.00" fill="#818281">template_path</text>
</g>
<!-- xlsx_dirname -->
<g id="node2" class="node">
<title>xlsx_dirname</title>
<polygon fill="#6fc1b5" stroke="#0f9884" stroke-width="2" points="16,-288.5 16,-324.5 124,-324.5 124,-288.5 16,-288.5"/>
<text text-anchor="middle" x="70" y="-302.8" font-family="Fira Sans" font-size="14.00">xlsx_dirname</text>
</g>
<!-- json_to_xlsx -->
<g id="node4" class="node">
<title>json_to_xlsx</title>
<polygon fill="#c5e0b4" stroke="#385723" stroke-width="2" points="60,-122.5 60,-158.5 160,-158.5 160,-122.5 60,-122.5"/>
<text text-anchor="middle" x="110" y="-136.8" font-family="Fira Sans" font-size="14.00">json_to_xlsx</text>
</g>
<!-- xlsx_dirname&#45;&gt;json_to_xlsx -->
<g id="edge2" class="edge">
<title>xlsx_dirname&#45;&gt;json_to_xlsx</title>
<path fill="none" stroke="#385723" stroke-width="2" d="M74.21,-288.26C81.16,-259.76 95.09,-202.62 103.38,-168.66"/>
<polygon fill="#385723" stroke="#385723" stroke-width="2" points="106.88,-169.05 105.85,-158.51 100.08,-167.4 106.88,-169.05"/>
<text text-anchor="middle" x="124.5" y="-221.3" font-family="Fira Sans" font-size="9.00" fill="#818281">output_folder</text>
</g>
<!-- manual_json -->
<g id="node3" class="node">
<title>manual_json</title>
<polygon fill="#f8cbad" stroke="#823909" stroke-width="2" points="58,-39.5 58,-75.5 162,-75.5 162,-39.5 58,-39.5"/>
<text text-anchor="middle" x="110" y="-53.8" font-family="Fira Sans" font-size="14.00">manual_json</text>
</g>
<!-- json_to_xlsx&#45;&gt;manual_json -->
<g id="edge6" class="edge">
<title>json_to_xlsx&#45;&gt;manual_json</title>
<path fill="none" stroke="#385723" stroke-width="2" d="M110,-122.32C110,-111.69 110,-97.81 110,-85.7"/>
<polygon fill="#385723" stroke="#385723" stroke-width="2" points="113.5,-85.65 110,-75.65 106.5,-85.65 113.5,-85.65"/>
<text text-anchor="middle" x="138.5" y="-96.8" font-family="Fira Sans" font-size="9.00" fill="#818281">manual_json</text>
</g>
<!-- generate_icasa_json&#45;&gt;json_to_xlsx -->
<g id="edge1" class="edge">
<title>generate_icasa_json&#45;&gt;json_to_xlsx</title>
<path fill="none" stroke="#385723" stroke-width="2" d="M257.34,-205.32C228.49,-192.82 189.25,-175.83 158.52,-162.52"/>
<polygon fill="#385723" stroke="#385723" stroke-width="2" points="159.85,-159.28 149.28,-158.51 157.06,-165.7 159.85,-159.28"/>
<text text-anchor="middle" x="242.5" y="-179.8" font-family="Fira Sans" font-size="9.00" fill="#818281">input_folder</text>
</g>
<!-- generate_icasa_json_json_folder_name -->
<g id="node6" class="node">
<title>generate_icasa_json_json_folder_name</title>
<polygon fill="#cfeae6" stroke="#9fd6ce" stroke-width="2" points="280.5,-297 280.5,-316 359.5,-316 359.5,-297 280.5,-297"/>
<text text-anchor="middle" x="320" y="-304" font-family="Fira Sans" font-size="10.00">manual_json</text>
</g>
<!-- generate_icasa_json_json_folder_name&#45;&gt;generate_icasa_json -->
<g id="edge4" class="edge">
<title>generate_icasa_json_json_folder_name&#45;&gt;generate_icasa_json</title>
<path fill="none" stroke="#385723" stroke-width="2" stroke-dasharray="5,2" d="M317.54,-296.83C314.48,-286.05 309.11,-267.14 304.63,-251.36"/>
<polygon fill="#385723" stroke="#385723" stroke-width="2" points="307.94,-250.22 301.84,-241.56 301.21,-252.14 307.94,-250.22"/>
<text text-anchor="middle" x="348.5" y="-262.8" font-family="Fira Sans" font-size="9.00" fill="#818281">json_folder_name</text>
</g>
<!-- generate_icasa_json_icasa_attributes -->
<g id="node7" class="node">
<title>generate_icasa_json_icasa_attributes</title>
<polygon fill="#cfeae6" stroke="#9fd6ce" stroke-width="2" points="377.5,-297 377.5,-316 544.5,-316 544.5,-297 377.5,-297"/>
<text text-anchor="middle" x="461" y="-304" font-family="Fira Sans" font-size="10.00">../../R/icasa_attributes_config.R</text>
</g>
<!-- generate_icasa_json_icasa_attributes&#45;&gt;generate_icasa_json -->
<g id="edge5" class="edge">
<title>generate_icasa_json_icasa_attributes&#45;&gt;generate_icasa_json</title>
<path fill="none" stroke="#385723" stroke-width="2" stroke-dasharray="5,2" d="M449.76,-296.94C436.49,-287.11 413.49,-270.92 392,-260 381.45,-254.64 369.9,-249.65 358.59,-245.2"/>
<polygon fill="#385723" stroke="#385723" stroke-width="2" points="359.77,-241.9 349.18,-241.6 357.27,-248.44 359.77,-241.9"/>
<text text-anchor="middle" x="445" y="-262.8" font-family="Fira Sans" font-size="9.00" fill="#818281">icasa_attributes</text>
</g>
</g>
</svg>
