<?xml version="1.0" encoding="UTF-8" standalone="no"?>
<!DOCTYPE svg PUBLIC "-//W3C//DTD SVG 1.1//EN"
 "http://www.w3.org/Graphics/SVG/1.1/DTD/svg11.dtd">
<!-- Generated by graphviz version 2.43.0 (0)
 -->
<!-- Title: workflow Pages: 1 -->
<svg width="1629pt" height="289pt"
 viewBox="0.00 0.00 1628.50 289.00" xmlns="http://www.w3.org/2000/svg" xmlns:xlink="http://www.w3.org/1999/xlink">
<g id="graph0" class="graph" transform="scale(1 1) rotate(0) translate(4 285)">
<title>workflow</title>
<g id="clust1" class="cluster">
<title>cluster_inputs</title>
<polygon fill="#eeeeee" stroke="#818281" stroke-width="2" points="743,-197 743,-273 885,-273 885,-197 743,-197"/>
<text text-anchor="middle" x="814" y="-257.8" font-family="Fira Sans" font-size="14.00">Workflow Inputs</text>
</g>
<g id="clust2" class="cluster">
<title>cluster_outputs</title>
<polygon fill="#eeeeee" stroke="#818281" stroke-width="2" points="376,-8 376,-84 1192,-84 1192,-8 376,-8"/>
<text text-anchor="middle" x="784" y="-15.8" font-family="Fira Sans" font-size="14.00">Workflow Outputs</text>
</g>
<!-- llm_output_json -->
<g id="node1" class="node">
<title>llm_output_json</title>
<polygon fill="#6fc1b5" stroke="#0f9884" stroke-width="2" points="751.5,-205.5 751.5,-241.5 876.5,-241.5 876.5,-205.5 751.5,-205.5"/>
<text text-anchor="middle" x="814" y="-219.8" font-family="Fira Sans" font-size="14.00">llm_output_json</text>
</g>
<!-- json2tabular_exp_metadata -->
<g id="node10" class="node">
<title>json2tabular_exp_metadata</title>
<polygon fill="#c5e0b4" stroke="#385723" stroke-width="2" points="551.5,-122.5 551.5,-158.5 760.5,-158.5 760.5,-122.5 551.5,-122.5"/>
<text text-anchor="middle" x="656" y="-136.8" font-family="Fira Sans" font-size="14.00">json2tabular_exp_metadata</text>
</g>
<!-- llm_output_json&#45;&gt;json2tabular_exp_metadata -->
<g id="edge1" class="edge">
<title>llm_output_json&#45;&gt;json2tabular_exp_metadata</title>
<path fill="none" stroke="#385723" stroke-width="2" d="M790.78,-205.47C777.72,-196.35 760.9,-185.3 745,-177 734.96,-171.76 723.97,-166.8 713.24,-162.33"/>
<polygon fill="#385723" stroke="#385723" stroke-width="2" points="714.5,-159.06 703.92,-158.54 711.86,-165.55 714.5,-159.06"/>
<text text-anchor="middle" x="787.5" y="-179.8" font-family="Fira Sans" font-size="9.00" fill="#818281">input_folder</text>
</g>
<!-- json2tabular_genotype -->
<g id="node12" class="node">
<title>json2tabular_genotype</title>
<polygon fill="#c5e0b4" stroke="#385723" stroke-width="2" points="166,-122.5 166,-158.5 342,-158.5 342,-122.5 166,-122.5"/>
<text text-anchor="middle" x="254" y="-136.8" font-family="Fira Sans" font-size="14.00">json2tabular_genotype</text>
</g>
<!-- llm_output_json&#45;&gt;json2tabular_genotype -->
<g id="edge3" class="edge">
<title>llm_output_json&#45;&gt;json2tabular_genotype</title>
<path fill="none" stroke="#385723" stroke-width="2" d="M758.15,-205.47C745.39,-202.15 731.81,-199.06 719,-197 642.09,-184.61 621.19,-197.53 544,-187 523.27,-184.17 518.63,-180.5 498,-177 436.15,-166.51 417.78,-168.61 352.27,-159.13"/>
<polygon fill="#385723" stroke="#385723" stroke-width="2" points="352.66,-155.65 342.25,-157.64 351.63,-162.57 352.66,-155.65"/>
<text text-anchor="middle" x="571.5" y="-179.8" font-family="Fira Sans" font-size="9.00" fill="#818281">input_folder</text>
</g>
<!-- json2tabular_fields -->
<g id="node14" class="node">
<title>json2tabular_fields</title>
<polygon fill="#c5e0b4" stroke="#385723" stroke-width="2" points="0,-122.5 0,-158.5 148,-158.5 148,-122.5 0,-122.5"/>
<text text-anchor="middle" x="74" y="-136.8" font-family="Fira Sans" font-size="14.00">json2tabular_fields</text>
</g>
<!-- llm_output_json&#45;&gt;json2tabular_fields -->
<g id="edge5" class="edge">
<title>llm_output_json&#45;&gt;json2tabular_fields</title>
<path fill="none" stroke="#385723" stroke-width="2" d="M759.2,-205.46C746.15,-202.06 732.18,-198.93 719,-197 567.67,-174.8 527.19,-202.25 375,-187 348.97,-184.39 342.9,-180.69 317,-177 249.2,-167.35 229.33,-170.12 158.07,-159.07"/>
<polygon fill="#385723" stroke="#385723" stroke-width="2" points="158.57,-155.61 148.15,-157.5 157.47,-162.52 158.57,-155.61"/>
<text text-anchor="middle" x="402.5" y="-179.8" font-family="Fira Sans" font-size="9.00" fill="#818281">input_folder</text>
</g>
<!-- json2tabular_irrigation -->
<g id="node16" class="node">
<title>json2tabular_irrigation</title>
<polygon fill="#c5e0b4" stroke="#385723" stroke-width="2" points="360.5,-122.5 360.5,-158.5 533.5,-158.5 533.5,-122.5 360.5,-122.5"/>
<text text-anchor="middle" x="447" y="-136.8" font-family="Fira Sans" font-size="14.00">json2tabular_irrigation</text>
</g>
<!-- llm_output_json&#45;&gt;json2tabular_irrigation -->
<g id="edge7" class="edge">
<title>llm_output_json&#45;&gt;json2tabular_irrigation</title>
<path fill="none" stroke="#385723" stroke-width="2" d="M751.23,-205.73C722.16,-197.84 692.57,-189.6 686,-187 677.13,-183.48 676.08,-179.95 667,-177 616.94,-160.72 599.83,-167.17 543.72,-159"/>
<polygon fill="#385723" stroke="#385723" stroke-width="2" points="544,-155.5 533.58,-157.43 542.93,-162.42 544,-155.5"/>
<text text-anchor="middle" x="713.5" y="-179.8" font-family="Fira Sans" font-size="9.00" fill="#818281">input_folder</text>
</g>
<!-- json2tabular_plotdetails -->
<g id="node18" class="node">
<title>json2tabular_plotdetails</title>
<polygon fill="#c5e0b4" stroke="#385723" stroke-width="2" points="1253,-122.5 1253,-158.5 1435,-158.5 1435,-122.5 1253,-122.5"/>
<text text-anchor="middle" x="1344" y="-136.8" font-family="Fira Sans" font-size="14.00">json2tabular_plotdetails</text>
</g>
<!-- llm_output_json&#45;&gt;json2tabular_plotdetails -->
<g id="edge9" class="edge">
<title>llm_output_json&#45;&gt;json2tabular_plotdetails</title>
<path fill="none" stroke="#385723" stroke-width="2" d="M872.18,-205.5C885.19,-202.22 898.99,-199.14 912,-197 973.11,-186.94 989.93,-197.35 1051,-187 1067.79,-184.15 1071.27,-180.21 1088,-177 1153.47,-164.45 1173.18,-168.59 1242.61,-159.12"/>
<polygon fill="#385723" stroke="#385723" stroke-width="2" points="1243.34,-162.56 1252.75,-157.7 1242.36,-155.63 1243.34,-162.56"/>
<text text-anchor="middle" x="1115.5" y="-179.8" font-family="Fira Sans" font-size="9.00" fill="#818281">input_folder</text>
</g>
<!-- json2tabular_planting -->
<g id="node20" class="node">
<title>json2tabular_planting</title>
<polygon fill="#c5e0b4" stroke="#385723" stroke-width="2" points="1453.5,-122.5 1453.5,-158.5 1620.5,-158.5 1620.5,-122.5 1453.5,-122.5"/>
<text text-anchor="middle" x="1537" y="-136.8" font-family="Fira Sans" font-size="14.00">json2tabular_planting</text>
</g>
<!-- llm_output_json&#45;&gt;json2tabular_planting -->
<g id="edge11" class="edge">
<title>llm_output_json&#45;&gt;json2tabular_planting</title>
<path fill="none" stroke="#385723" stroke-width="2" d="M870.83,-205.44C884.21,-202.06 898.52,-198.95 912,-197 1046.67,-177.53 1082.45,-198.86 1218,-187 1249.31,-184.26 1256.83,-181.02 1288,-177 1354.11,-168.47 1373.29,-169.36 1443.19,-159.05"/>
<polygon fill="#385723" stroke="#385723" stroke-width="2" points="1444.03,-162.47 1453.4,-157.52 1442.99,-155.54 1444.03,-162.47"/>
<text text-anchor="middle" x="1315.5" y="-179.8" font-family="Fira Sans" font-size="9.00" fill="#818281">input_folder</text>
</g>
<!-- json2tabular_fertilizeration_improved -->
<g id="node22" class="node">
<title>json2tabular_fertilizeration_improved</title>
<polygon fill="#c5e0b4" stroke="#385723" stroke-width="2" points="959.5,-122.5 959.5,-158.5 1234.5,-158.5 1234.5,-122.5 959.5,-122.5"/>
<text text-anchor="middle" x="1097" y="-136.8" font-family="Fira Sans" font-size="14.00">json2tabular_fertilizeration_improved</text>
</g>
<!-- llm_output_json&#45;&gt;json2tabular_fertilizeration_improved -->
<g id="edge13" class="edge">
<title>llm_output_json&#45;&gt;json2tabular_fertilizeration_improved</title>
<path fill="none" stroke="#385723" stroke-width="2" d="M855.11,-205.39C868.79,-199.62 884.08,-193.1 898,-187 907.84,-182.69 909.78,-180.3 920,-177 939.7,-170.64 961.01,-165.2 981.8,-160.63"/>
<polygon fill="#385723" stroke="#385723" stroke-width="2" points="982.58,-164.04 991.62,-158.52 981.11,-157.19 982.58,-164.04"/>
<text text-anchor="middle" x="947.5" y="-179.8" font-family="Fira Sans" font-size="9.00" fill="#818281">input_folder</text>
</g>
<!-- json2tabular_harvest -->
<g id="node24" class="node">
<title>json2tabular_harvest</title>
<polygon fill="#c5e0b4" stroke="#385723" stroke-width="2" points="778.5,-122.5 778.5,-158.5 941.5,-158.5 941.5,-122.5 778.5,-122.5"/>
<text text-anchor="middle" x="860" y="-136.8" font-family="Fira Sans" font-size="14.00">json2tabular_harvest</text>
</g>
<!-- llm_output_json&#45;&gt;json2tabular_harvest -->
<g id="edge15" class="edge">
<title>llm_output_json&#45;&gt;json2tabular_harvest</title>
<path fill="none" stroke="#385723" stroke-width="2" d="M823.76,-205.32C829.98,-194.37 838.16,-179.96 845.17,-167.61"/>
<polygon fill="#385723" stroke="#385723" stroke-width="2" points="848.36,-169.08 850.26,-158.65 842.28,-165.62 848.36,-169.08"/>
<text text-anchor="middle" x="866.5" y="-179.8" font-family="Fira Sans" font-size="9.00" fill="#818281">input_folder</text>
</g>
<!-- harvest -->
<g id="node2" class="node">
<title>harvest</title>
<polygon fill="#f8cbad" stroke="#823909" stroke-width="2" points="801.5,-39.5 801.5,-75.5 870.5,-75.5 870.5,-39.5 801.5,-39.5"/>
<text text-anchor="middle" x="836" y="-53.8" font-family="Fira Sans" font-size="14.00">harvest</text>
</g>
<!-- fertilizers -->
<g id="node3" class="node">
<title>fertilizers</title>
<polygon fill="#f8cbad" stroke="#823909" stroke-width="2" points="889,-39.5 889,-75.5 971,-75.5 971,-39.5 889,-39.5"/>
<text text-anchor="middle" x="930" y="-53.8" font-family="Fira Sans" font-size="14.00">fertilizers</text>
</g>
<!-- plantings -->
<g id="node4" class="node">
<title>plantings</title>
<polygon fill="#f8cbad" stroke="#823909" stroke-width="2" points="1102.5,-39.5 1102.5,-75.5 1183.5,-75.5 1183.5,-39.5 1102.5,-39.5"/>
<text text-anchor="middle" x="1143" y="-53.8" font-family="Fira Sans" font-size="14.00">plantings</text>
</g>
<!-- plot_details -->
<g id="node5" class="node">
<title>plot_details</title>
<polygon fill="#f8cbad" stroke="#823909" stroke-width="2" points="989.5,-39.5 989.5,-75.5 1084.5,-75.5 1084.5,-39.5 989.5,-39.5"/>
<text text-anchor="middle" x="1037" y="-53.8" font-family="Fira Sans" font-size="14.00">plot_details</text>
</g>
<!-- irrigations -->
<g id="node6" class="node">
<title>irrigations</title>
<polygon fill="#f8cbad" stroke="#823909" stroke-width="2" points="564,-39.5 564,-75.5 650,-75.5 650,-39.5 564,-39.5"/>
<text text-anchor="middle" x="607" y="-53.8" font-family="Fira Sans" font-size="14.00">irrigations</text>
</g>
<!-- fields -->
<g id="node7" class="node">
<title>fields</title>
<polygon fill="#f8cbad" stroke="#823909" stroke-width="2" points="384,-39.5 384,-75.5 438,-75.5 438,-39.5 384,-39.5"/>
<text text-anchor="middle" x="411" y="-53.8" font-family="Fira Sans" font-size="14.00">fields</text>
</g>
<!-- genotypes -->
<g id="node8" class="node">
<title>genotypes</title>
<polygon fill="#f8cbad" stroke="#823909" stroke-width="2" points="456.5,-39.5 456.5,-75.5 545.5,-75.5 545.5,-39.5 456.5,-39.5"/>
<text text-anchor="middle" x="501" y="-53.8" font-family="Fira Sans" font-size="14.00">genotypes</text>
</g>
<!-- exp_metadata -->
<g id="node9" class="node">
<title>exp_metadata</title>
<polygon fill="#f8cbad" stroke="#823909" stroke-width="2" points="668.5,-39.5 668.5,-75.5 783.5,-75.5 783.5,-39.5 668.5,-39.5"/>
<text text-anchor="middle" x="726" y="-53.8" font-family="Fira Sans" font-size="14.00">exp_metadata</text>
</g>
<!-- json2tabular_exp_metadata&#45;&gt;exp_metadata -->
<g id="edge24" class="edge">
<title>json2tabular_exp_metadata&#45;&gt;exp_metadata</title>
<path fill="none" stroke="#385723" stroke-width="2" d="M670.85,-122.32C680.59,-111.05 693.5,-96.11 704.37,-83.52"/>
<polygon fill="#385723" stroke="#385723" stroke-width="2" points="707.29,-85.51 711.18,-75.65 701.99,-80.93 707.29,-85.51"/>
<text text-anchor="middle" x="727.5" y="-96.8" font-family="Fira Sans" font-size="9.00" fill="#818281">exp_metadata</text>
</g>
<!-- json2tabular_exp_metadata_output_folder -->
<g id="node11" class="node">
<title>json2tabular_exp_metadata_output_folder</title>
<polygon fill="#cfeae6" stroke="#9fd6ce" stroke-width="2" points="528,-214 528,-233 710,-233 710,-214 528,-214"/>
<text text-anchor="middle" x="619" y="-221" font-family="Fira Sans" font-size="10.00">llm_output_tabular/exp_metadata</text>
</g>
<!-- json2tabular_exp_metadata_output_folder&#45;&gt;json2tabular_exp_metadata -->
<g id="edge2" class="edge">
<title>json2tabular_exp_metadata_output_folder&#45;&gt;json2tabular_exp_metadata</title>
<path fill="none" stroke="#385723" stroke-width="2" stroke-dasharray="5,2" d="M612.77,-213.73C606.89,-204.28 599.82,-188.97 606,-177 608.23,-172.68 611.26,-168.76 614.74,-165.25"/>
<polygon fill="#385723" stroke="#385723" stroke-width="2" points="617.12,-167.82 622.37,-158.61 612.52,-162.54 617.12,-167.82"/>
<text text-anchor="middle" x="636.5" y="-179.8" font-family="Fira Sans" font-size="9.00" fill="#818281">output_folder</text>
</g>
<!-- json2tabular_genotype&#45;&gt;genotypes -->
<g id="edge23" class="edge">
<title>json2tabular_genotype&#45;&gt;genotypes</title>
<path fill="none" stroke="#385723" stroke-width="2" d="M323.21,-122.5C360.38,-112.64 406.71,-99.19 447,-84 450.5,-82.68 454.1,-81.22 457.68,-79.7"/>
<polygon fill="#385723" stroke="#385723" stroke-width="2" points="459.35,-82.78 467.08,-75.53 456.52,-76.38 459.35,-82.78"/>
<text text-anchor="middle" x="440" y="-96.8" font-family="Fira Sans" font-size="9.00" fill="#818281">genotypes</text>
</g>
<!-- json2tabular_genotype_output_folder -->
<g id="node13" class="node">
<title>json2tabular_genotype_output_folder</title>
<polygon fill="#cfeae6" stroke="#9fd6ce" stroke-width="2" points="167.5,-214 167.5,-233 330.5,-233 330.5,-214 167.5,-214"/>
<text text-anchor="middle" x="249" y="-221" font-family="Fira Sans" font-size="10.00">llm_output_tabular/genotypes</text>
</g>
<!-- json2tabular_genotype_output_folder&#45;&gt;json2tabular_genotype -->
<g id="edge4" class="edge">
<title>json2tabular_genotype_output_folder&#45;&gt;json2tabular_genotype</title>
<path fill="none" stroke="#385723" stroke-width="2" stroke-dasharray="5,2" d="M249.54,-213.83C250.19,-203.15 251.35,-184.5 252.31,-168.81"/>
<polygon fill="#385723" stroke="#385723" stroke-width="2" points="255.82,-168.76 252.95,-158.56 248.84,-168.33 255.82,-168.76"/>
<text text-anchor="middle" x="282.5" y="-179.8" font-family="Fira Sans" font-size="9.00" fill="#818281">output_folder</text>
</g>
<!-- json2tabular_fields&#45;&gt;fields -->
<g id="edge22" class="edge">
<title>json2tabular_fields&#45;&gt;fields</title>
<path fill="none" stroke="#385723" stroke-width="2" d="M145.06,-122.42C214.9,-105.63 318.78,-80.67 373.76,-67.45"/>
<polygon fill="#385723" stroke="#385723" stroke-width="2" points="374.85,-70.79 383.75,-65.05 373.21,-63.98 374.85,-70.79"/>
<text text-anchor="middle" x="275.5" y="-96.8" font-family="Fira Sans" font-size="9.00" fill="#818281">fields</text>
</g>
<!-- json2tabular_fields_output_folder -->
<g id="node15" class="node">
<title>json2tabular_fields_output_folder</title>
<polygon fill="#cfeae6" stroke="#9fd6ce" stroke-width="2" points="5,-214 5,-233 143,-233 143,-214 5,-214"/>
<text text-anchor="middle" x="74" y="-221" font-family="Fira Sans" font-size="10.00">llm_output_tabular/fields</text>
</g>
<!-- json2tabular_fields_output_folder&#45;&gt;json2tabular_fields -->
<g id="edge6" class="edge">
<title>json2tabular_fields_output_folder&#45;&gt;json2tabular_fields</title>
<path fill="none" stroke="#385723" stroke-width="2" stroke-dasharray="5,2" d="M74,-213.83C74,-203.15 74,-184.5 74,-168.81"/>
<polygon fill="#385723" stroke="#385723" stroke-width="2" points="77.5,-168.56 74,-158.56 70.5,-168.56 77.5,-168.56"/>
<text text-anchor="middle" x="104.5" y="-179.8" font-family="Fira Sans" font-size="9.00" fill="#818281">output_folder</text>
</g>
<!-- json2tabular_irrigation&#45;&gt;irrigations -->
<g id="edge21" class="edge">
<title>json2tabular_irrigation&#45;&gt;irrigations</title>
<path fill="none" stroke="#385723" stroke-width="2" d="M480.93,-122.32C505.3,-109.98 538.33,-93.27 564.46,-80.04"/>
<polygon fill="#385723" stroke="#385723" stroke-width="2" points="566.05,-83.15 573.39,-75.51 562.89,-76.91 566.05,-83.15"/>
<text text-anchor="middle" x="559" y="-96.8" font-family="Fira Sans" font-size="9.00" fill="#818281">irrigations</text>
</g>
<!-- json2tabular_irrigation_output_folder -->
<g id="node17" class="node">
<title>json2tabular_irrigation_output_folder</title>
<polygon fill="#cfeae6" stroke="#9fd6ce" stroke-width="2" points="348.5,-214 348.5,-233 509.5,-233 509.5,-214 348.5,-214"/>
<text text-anchor="middle" x="429" y="-221" font-family="Fira Sans" font-size="10.00">llm_output_tabular/irrigations</text>
</g>
<!-- json2tabular_irrigation_output_folder&#45;&gt;json2tabular_irrigation -->
<g id="edge8" class="edge">
<title>json2tabular_irrigation_output_folder&#45;&gt;json2tabular_irrigation</title>
<path fill="none" stroke="#385723" stroke-width="2" stroke-dasharray="5,2" d="M430.27,-213.73C431.67,-204.52 434.11,-189.67 437,-177 437.62,-174.28 438.32,-171.47 439.05,-168.66"/>
<polygon fill="#385723" stroke="#385723" stroke-width="2" points="442.5,-169.31 441.77,-158.74 435.75,-167.46 442.5,-169.31"/>
<text text-anchor="middle" x="467.5" y="-179.8" font-family="Fira Sans" font-size="9.00" fill="#818281">output_folder</text>
</g>
<!-- json2tabular_plotdetails&#45;&gt;plot_details -->
<g id="edge20" class="edge">
<title>json2tabular_plotdetails&#45;&gt;plot_details</title>
<path fill="none" stroke="#385723" stroke-width="2" d="M1258.51,-122.44C1198.65,-110.13 1124.18,-93.99 1094,-84 1089.95,-82.66 1085.79,-81.13 1081.66,-79.5"/>
<polygon fill="#385723" stroke="#385723" stroke-width="2" points="1082.71,-76.14 1072.14,-75.55 1080.03,-82.61 1082.71,-76.14"/>
<text text-anchor="middle" x="1197" y="-96.8" font-family="Fira Sans" font-size="9.00" fill="#818281">plot_details</text>
</g>
<!-- json2tabular_plotdetails_output_folder -->
<g id="node19" class="node">
<title>json2tabular_plotdetails_output_folder</title>
<polygon fill="#cfeae6" stroke="#9fd6ce" stroke-width="2" points="1268.5,-214 1268.5,-233 1437.5,-233 1437.5,-214 1268.5,-214"/>
<text text-anchor="middle" x="1353" y="-221" font-family="Fira Sans" font-size="10.00">llm_output_tabular/plot_details</text>
</g>
<!-- json2tabular_plotdetails_output_folder&#45;&gt;json2tabular_plotdetails -->
<g id="edge10" class="edge">
<title>json2tabular_plotdetails_output_folder&#45;&gt;json2tabular_plotdetails</title>
<path fill="none" stroke="#385723" stroke-width="2" stroke-dasharray="5,2" d="M1352.04,-213.83C1350.85,-203.15 1348.78,-184.5 1347.03,-168.81"/>
<polygon fill="#385723" stroke="#385723" stroke-width="2" points="1350.48,-168.11 1345.9,-158.56 1343.52,-168.89 1350.48,-168.11"/>
<text text-anchor="middle" x="1379.5" y="-179.8" font-family="Fira Sans" font-size="9.00" fill="#818281">output_folder</text>
</g>
<!-- json2tabular_planting&#45;&gt;plantings -->
<g id="edge19" class="edge">
<title>json2tabular_planting&#45;&gt;plantings</title>
<path fill="none" stroke="#385723" stroke-width="2" d="M1453.92,-122.42C1375.27,-106.25 1259.71,-82.49 1193.88,-68.96"/>
<polygon fill="#385723" stroke="#385723" stroke-width="2" points="1194.25,-65.46 1183.75,-66.88 1192.84,-72.32 1194.25,-65.46"/>
<text text-anchor="middle" x="1384.5" y="-96.8" font-family="Fira Sans" font-size="9.00" fill="#818281">plantings</text>
</g>
<!-- json2tabular_planting_output_folder -->
<g id="node21" class="node">
<title>json2tabular_planting_output_folder</title>
<polygon fill="#cfeae6" stroke="#9fd6ce" stroke-width="2" points="1458.5,-214 1458.5,-233 1615.5,-233 1615.5,-214 1458.5,-214"/>
<text text-anchor="middle" x="1537" y="-221" font-family="Fira Sans" font-size="10.00">llm_output_tabular/plantings</text>
</g>
<!-- json2tabular_planting_output_folder&#45;&gt;json2tabular_planting -->
<g id="edge12" class="edge">
<title>json2tabular_planting_output_folder&#45;&gt;json2tabular_planting</title>
<path fill="none" stroke="#385723" stroke-width="2" stroke-dasharray="5,2" d="M1537,-213.83C1537,-203.15 1537,-184.5 1537,-168.81"/>
<polygon fill="#385723" stroke="#385723" stroke-width="2" points="1540.5,-168.56 1537,-158.56 1533.5,-168.56 1540.5,-168.56"/>
<text text-anchor="middle" x="1567.5" y="-179.8" font-family="Fira Sans" font-size="9.00" fill="#818281">output_folder</text>
</g>
<!-- json2tabular_fertilizeration_improved&#45;&gt;fertilizers -->
<g id="edge18" class="edge">
<title>json2tabular_fertilizeration_improved&#45;&gt;fertilizers</title>
<path fill="none" stroke="#385723" stroke-width="2" d="M1032.98,-122.43C1018.14,-117.4 1002.69,-111.25 989,-104 977.66,-97.99 966.25,-89.81 956.52,-82.03"/>
<polygon fill="#385723" stroke="#385723" stroke-width="2" points="958.73,-79.32 948.79,-75.66 954.28,-84.72 958.73,-79.32"/>
<text text-anchor="middle" x="1009.5" y="-96.8" font-family="Fira Sans" font-size="9.00" fill="#818281">fertilizers</text>
</g>
<!-- json2tabular_fertilizeration_improved_output_folder -->
<g id="node23" class="node">
<title>json2tabular_fertilizeration_improved_output_folder</title>
<polygon fill="#cfeae6" stroke="#9fd6ce" stroke-width="2" points="1093,-214 1093,-233 1251,-233 1251,-214 1093,-214"/>
<text text-anchor="middle" x="1172" y="-221" font-family="Fira Sans" font-size="10.00">llm_output_tabular/fertilizers</text>
</g>
<!-- json2tabular_fertilizeration_improved_output_folder&#45;&gt;json2tabular_fertilizeration_improved -->
<g id="edge14" class="edge">
<title>json2tabular_fertilizeration_improved_output_folder&#45;&gt;json2tabular_fertilizeration_improved</title>
<path fill="none" stroke="#385723" stroke-width="2" stroke-dasharray="5,2" d="M1168.59,-213.72C1164.51,-203.99 1156.95,-188.17 1147,-177 1143.1,-172.62 1138.56,-168.48 1133.84,-164.68"/>
<polygon fill="#385723" stroke="#385723" stroke-width="2" points="1135.9,-161.85 1125.8,-158.63 1131.68,-167.44 1135.9,-161.85"/>
<text text-anchor="middle" x="1183.5" y="-179.8" font-family="Fira Sans" font-size="9.00" fill="#818281">output_folder</text>
</g>
<!-- json2tabular_harvest&#45;&gt;harvest -->
<g id="edge17" class="edge">
<title>json2tabular_harvest&#45;&gt;harvest</title>
<path fill="none" stroke="#385723" stroke-width="2" d="M854.91,-122.32C851.73,-111.58 847.56,-97.53 843.95,-85.34"/>
<polygon fill="#385723" stroke="#385723" stroke-width="2" points="847.28,-84.25 841.08,-75.65 840.57,-86.24 847.28,-84.25"/>
<text text-anchor="middle" x="866" y="-96.8" font-family="Fira Sans" font-size="9.00" fill="#818281">harvest</text>
</g>
<!-- json2tabular_harvest_output_folder -->
<g id="node25" class="node">
<title>json2tabular_harvest_output_folder</title>
<polygon fill="#cfeae6" stroke="#9fd6ce" stroke-width="2" points="921,-214 921,-233 1075,-233 1075,-214 921,-214"/>
<text text-anchor="middle" x="998" y="-221" font-family="Fira Sans" font-size="10.00">llm_output_tabular/harvests</text>
</g>
<!-- json2tabular_harvest_output_folder&#45;&gt;json2tabular_harvest -->
<g id="edge16" class="edge">
<title>json2tabular_harvest_output_folder&#45;&gt;json2tabular_harvest</title>
<path fill="none" stroke="#385723" stroke-width="2" stroke-dasharray="5,2" d="M996.67,-213.84C994.65,-203.6 989.82,-186.73 979,-177 970.84,-169.66 961.22,-163.83 951.04,-159.21"/>
<polygon fill="#385723" stroke="#385723" stroke-width="2" points="952.14,-155.88 941.56,-155.3 949.47,-162.35 952.14,-155.88"/>
<text text-anchor="middle" x="1016.5" y="-179.8" font-family="Fira Sans" font-size="9.00" fill="#818281">output_folder</text>
</g>
</g>
</svg>
