<?xml version="1.0" encoding="UTF-8" standalone="no"?>
<!DOCTYPE svg PUBLIC "-//W3C//DTD SVG 1.1//EN"
 "http://www.w3.org/Graphics/SVG/1.1/DTD/svg11.dtd">
<!-- Generated by graphviz version 2.43.0 (0)
 -->
<!-- Title: workflow Pages: 1 -->
<svg width="1629pt" height="372pt"
 viewBox="0.00 0.00 1629.00 372.00" xmlns="http://www.w3.org/2000/svg" xmlns:xlink="http://www.w3.org/1999/xlink">
<g id="graph0" class="graph" transform="scale(1 1) rotate(0) translate(4 368)">
<title>workflow</title>
<g id="clust1" class="cluster">
<title>cluster_inputs</title>
<polygon fill="#eeeeee" stroke="#818281" stroke-width="2" points="702,-280 702,-356 844,-356 844,-280 702,-280"/>
<text text-anchor="middle" x="773" y="-340.8" font-family="Fira Sans" font-size="14.00">Workflow Inputs</text>
</g>
<g id="clust2" class="cluster">
<title>cluster_outputs</title>
<polygon fill="#eeeeee" stroke="#818281" stroke-width="2" points="374,-8 374,-84 1190,-84 1190,-8 374,-8"/>
<text text-anchor="middle" x="782" y="-15.8" font-family="Fira Sans" font-size="14.00">Workflow Outputs</text>
</g>
<!-- llm_output_json -->
<g id="node1" class="node">
<title>llm_output_json</title>
<polygon fill="#6fc1b5" stroke="#0f9884" stroke-width="2" points="710.5,-288.5 710.5,-324.5 835.5,-324.5 835.5,-288.5 710.5,-288.5"/>
<text text-anchor="middle" x="773" y="-302.8" font-family="Fira Sans" font-size="14.00">llm_output_json</text>
</g>
<!-- split -->
<g id="node11" class="node">
<title>split</title>
<polygon fill="#c5e0b4" stroke="#385723" stroke-width="2" points="746,-205.5 746,-241.5 800,-241.5 800,-205.5 746,-205.5"/>
<text text-anchor="middle" x="773" y="-219.8" font-family="Fira Sans" font-size="14.00">split</text>
</g>
<!-- llm_output_json&#45;&gt;split -->
<g id="edge17" class="edge">
<title>llm_output_json&#45;&gt;split</title>
<path fill="none" stroke="#385723" stroke-width="2" d="M773,-288.32C773,-277.69 773,-263.81 773,-251.7"/>
<polygon fill="#385723" stroke="#385723" stroke-width="2" points="776.5,-251.65 773,-241.65 769.5,-251.65 776.5,-251.65"/>
<text text-anchor="middle" x="809" y="-262.8" font-family="Fira Sans" font-size="9.00" fill="#818281">llm_output_json</text>
</g>
<!-- harvest -->
<g id="node2" class="node">
<title>harvest</title>
<polygon fill="#f8cbad" stroke="#823909" stroke-width="2" points="898.5,-39.5 898.5,-75.5 967.5,-75.5 967.5,-39.5 898.5,-39.5"/>
<text text-anchor="middle" x="933" y="-53.8" font-family="Fira Sans" font-size="14.00">harvest</text>
</g>
<!-- fertilizers -->
<g id="node3" class="node">
<title>fertilizers</title>
<polygon fill="#f8cbad" stroke="#823909" stroke-width="2" points="986,-39.5 986,-75.5 1068,-75.5 1068,-39.5 986,-39.5"/>
<text text-anchor="middle" x="1027" y="-53.8" font-family="Fira Sans" font-size="14.00">fertilizers</text>
</g>
<!-- plantings -->
<g id="node4" class="node">
<title>plantings</title>
<polygon fill="#f8cbad" stroke="#823909" stroke-width="2" points="799.5,-39.5 799.5,-75.5 880.5,-75.5 880.5,-39.5 799.5,-39.5"/>
<text text-anchor="middle" x="840" y="-53.8" font-family="Fira Sans" font-size="14.00">plantings</text>
</g>
<!-- plot_details -->
<g id="node5" class="node">
<title>plot_details</title>
<polygon fill="#f8cbad" stroke="#823909" stroke-width="2" points="1086.5,-39.5 1086.5,-75.5 1181.5,-75.5 1181.5,-39.5 1086.5,-39.5"/>
<text text-anchor="middle" x="1134" y="-53.8" font-family="Fira Sans" font-size="14.00">plot_details</text>
</g>
<!-- irrigations -->
<g id="node6" class="node">
<title>irrigations</title>
<polygon fill="#f8cbad" stroke="#823909" stroke-width="2" points="489,-39.5 489,-75.5 575,-75.5 575,-39.5 489,-39.5"/>
<text text-anchor="middle" x="532" y="-53.8" font-family="Fira Sans" font-size="14.00">irrigations</text>
</g>
<!-- fields -->
<g id="node7" class="node">
<title>fields</title>
<polygon fill="#f8cbad" stroke="#823909" stroke-width="2" points="727,-39.5 727,-75.5 781,-75.5 781,-39.5 727,-39.5"/>
<text text-anchor="middle" x="754" y="-53.8" font-family="Fira Sans" font-size="14.00">fields</text>
</g>
<!-- genotypes -->
<g id="node8" class="node">
<title>genotypes</title>
<polygon fill="#f8cbad" stroke="#823909" stroke-width="2" points="381.5,-39.5 381.5,-75.5 470.5,-75.5 470.5,-39.5 381.5,-39.5"/>
<text text-anchor="middle" x="426" y="-53.8" font-family="Fira Sans" font-size="14.00">genotypes</text>
</g>
<!-- exp_metadata -->
<g id="node9" class="node">
<title>exp_metadata</title>
<polygon fill="#f8cbad" stroke="#823909" stroke-width="2" points="593.5,-39.5 593.5,-75.5 708.5,-75.5 708.5,-39.5 593.5,-39.5"/>
<text text-anchor="middle" x="651" y="-53.8" font-family="Fira Sans" font-size="14.00">exp_metadata</text>
</g>
<!-- json2tabular_exp_metadata -->
<g id="node10" class="node">
<title>json2tabular_exp_metadata</title>
<polygon fill="#c5e0b4" stroke="#385723" stroke-width="2" points="385.5,-122.5 385.5,-158.5 594.5,-158.5 594.5,-122.5 385.5,-122.5"/>
<text text-anchor="middle" x="490" y="-136.8" font-family="Fira Sans" font-size="14.00">json2tabular_exp_metadata</text>
</g>
<!-- json2tabular_exp_metadata&#45;&gt;exp_metadata -->
<g id="edge25" class="edge">
<title>json2tabular_exp_metadata&#45;&gt;exp_metadata</title>
<path fill="none" stroke="#385723" stroke-width="2" d="M524.14,-122.32C548.67,-109.98 581.9,-93.27 608.19,-80.04"/>
<polygon fill="#385723" stroke="#385723" stroke-width="2" points="609.82,-83.14 617.18,-75.51 606.68,-76.88 609.82,-83.14"/>
<text text-anchor="middle" x="613.5" y="-96.8" font-family="Fira Sans" font-size="9.00" fill="#818281">exp_metadata</text>
</g>
<!-- split&#45;&gt;json2tabular_exp_metadata -->
<g id="edge1" class="edge">
<title>split&#45;&gt;json2tabular_exp_metadata</title>
<path fill="none" stroke="#385723" stroke-width="2" d="M745.9,-208.52C742.62,-207.18 739.27,-205.96 736,-205 676.66,-187.57 657.71,-203.15 598,-187 576.06,-181.06 552.7,-171.64 533.34,-162.91"/>
<polygon fill="#385723" stroke="#385723" stroke-width="2" points="534.73,-159.7 524.18,-158.7 531.8,-166.06 534.73,-159.7"/>
<text text-anchor="middle" x="625.5" y="-179.8" font-family="Fira Sans" font-size="9.00" fill="#818281">input_folder</text>
</g>
<!-- json2tabular_genotype -->
<g id="node13" class="node">
<title>json2tabular_genotype</title>
<polygon fill="#c5e0b4" stroke="#385723" stroke-width="2" points="0,-122.5 0,-158.5 176,-158.5 176,-122.5 0,-122.5"/>
<text text-anchor="middle" x="88" y="-136.8" font-family="Fira Sans" font-size="14.00">json2tabular_genotype</text>
</g>
<!-- split&#45;&gt;json2tabular_genotype -->
<g id="edge3" class="edge">
<title>split&#45;&gt;json2tabular_genotype</title>
<path fill="none" stroke="#385723" stroke-width="2" d="M745.98,-208.21C742.69,-206.92 739.31,-205.81 736,-205 624.94,-178.01 334.42,-207.59 222,-187 193.41,-181.76 162.63,-171.65 137.79,-162.29"/>
<polygon fill="#385723" stroke="#385723" stroke-width="2" points="138.82,-158.93 128.23,-158.61 136.31,-165.47 138.82,-158.93"/>
<text text-anchor="middle" x="249.5" y="-179.8" font-family="Fira Sans" font-size="9.00" fill="#818281">input_folder</text>
</g>
<!-- json2tabular_fields -->
<g id="node15" class="node">
<title>json2tabular_fields</title>
<polygon fill="#c5e0b4" stroke="#385723" stroke-width="2" points="613,-122.5 613,-158.5 761,-158.5 761,-122.5 613,-122.5"/>
<text text-anchor="middle" x="687" y="-136.8" font-family="Fira Sans" font-size="14.00">json2tabular_fields</text>
</g>
<!-- split&#45;&gt;json2tabular_fields -->
<g id="edge5" class="edge">
<title>split&#45;&gt;json2tabular_fields</title>
<path fill="none" stroke="#385723" stroke-width="2" d="M754.76,-205.32C742.56,-193.83 726.33,-178.54 712.81,-165.81"/>
<polygon fill="#385723" stroke="#385723" stroke-width="2" points="714.89,-162.96 705.21,-158.65 710.09,-168.06 714.89,-162.96"/>
<text text-anchor="middle" x="763.5" y="-179.8" font-family="Fira Sans" font-size="9.00" fill="#818281">input_folder</text>
</g>
<!-- json2tabular_irrigation -->
<g id="node17" class="node">
<title>json2tabular_irrigation</title>
<polygon fill="#c5e0b4" stroke="#385723" stroke-width="2" points="194.5,-122.5 194.5,-158.5 367.5,-158.5 367.5,-122.5 194.5,-122.5"/>
<text text-anchor="middle" x="281" y="-136.8" font-family="Fira Sans" font-size="14.00">json2tabular_irrigation</text>
</g>
<!-- split&#45;&gt;json2tabular_irrigation -->
<g id="edge7" class="edge">
<title>split&#45;&gt;json2tabular_irrigation</title>
<path fill="none" stroke="#385723" stroke-width="2" d="M745.96,-208.29C742.67,-206.99 739.3,-205.84 736,-205 602.28,-170.87 561.75,-211.85 426,-187 395.26,-181.37 361.92,-171.21 334.97,-161.92"/>
<polygon fill="#385723" stroke="#385723" stroke-width="2" points="335.94,-158.55 325.35,-158.54 333.63,-165.15 335.94,-158.55"/>
<text text-anchor="middle" x="453.5" y="-179.8" font-family="Fira Sans" font-size="9.00" fill="#818281">input_folder</text>
</g>
<!-- json2tabular_plotdetails -->
<g id="node19" class="node">
<title>json2tabular_plotdetails</title>
<polygon fill="#c5e0b4" stroke="#385723" stroke-width="2" points="1439,-122.5 1439,-158.5 1621,-158.5 1621,-122.5 1439,-122.5"/>
<text text-anchor="middle" x="1530" y="-136.8" font-family="Fira Sans" font-size="14.00">json2tabular_plotdetails</text>
</g>
<!-- split&#45;&gt;json2tabular_plotdetails -->
<g id="edge9" class="edge">
<title>split&#45;&gt;json2tabular_plotdetails</title>
<path fill="none" stroke="#385723" stroke-width="2" d="M800.35,-208.37C803.86,-207.01 807.47,-205.84 811,-205 927.19,-177.48 1229.76,-203.57 1348,-187 1387.34,-181.49 1430.5,-170.9 1464.92,-161.32"/>
<polygon fill="#385723" stroke="#385723" stroke-width="2" points="1466.17,-164.61 1474.84,-158.52 1464.27,-157.87 1466.17,-164.61"/>
<text text-anchor="middle" x="1425.5" y="-179.8" font-family="Fira Sans" font-size="9.00" fill="#818281">input_folder</text>
</g>
<!-- json2tabular_planting -->
<g id="node21" class="node">
<title>json2tabular_planting</title>
<polygon fill="#c5e0b4" stroke="#385723" stroke-width="2" points="779.5,-122.5 779.5,-158.5 946.5,-158.5 946.5,-122.5 779.5,-122.5"/>
<text text-anchor="middle" x="863" y="-136.8" font-family="Fira Sans" font-size="14.00">json2tabular_planting</text>
</g>
<!-- split&#45;&gt;json2tabular_planting -->
<g id="edge11" class="edge">
<title>split&#45;&gt;json2tabular_planting</title>
<path fill="none" stroke="#385723" stroke-width="2" d="M789.64,-205.23C798.21,-196.54 808.95,-185.98 819,-177 823.41,-173.06 828.17,-169.01 832.89,-165.12"/>
<polygon fill="#385723" stroke="#385723" stroke-width="2" points="835.15,-167.79 840.7,-158.77 830.74,-162.36 835.15,-167.79"/>
<text text-anchor="middle" x="846.5" y="-179.8" font-family="Fira Sans" font-size="9.00" fill="#818281">input_folder</text>
</g>
<!-- json2tabular_fertilizeration_improved -->
<g id="node23" class="node">
<title>json2tabular_fertilizeration_improved</title>
<polygon fill="#c5e0b4" stroke="#385723" stroke-width="2" points="1145.5,-122.5 1145.5,-158.5 1420.5,-158.5 1420.5,-122.5 1145.5,-122.5"/>
<text text-anchor="middle" x="1283" y="-136.8" font-family="Fira Sans" font-size="14.00">json2tabular_fertilizeration_improved</text>
</g>
<!-- split&#45;&gt;json2tabular_fertilizeration_improved -->
<g id="edge13" class="edge">
<title>split&#45;&gt;json2tabular_fertilizeration_improved</title>
<path fill="none" stroke="#385723" stroke-width="2" d="M800.37,-208.45C803.88,-207.08 807.48,-205.88 811,-205 946.63,-171.17 987.2,-210.49 1125,-187 1158.5,-181.29 1195.01,-171.05 1224.48,-161.73"/>
<polygon fill="#385723" stroke="#385723" stroke-width="2" points="1225.74,-165 1234.2,-158.61 1223.61,-158.34 1225.74,-165"/>
<text text-anchor="middle" x="1196.5" y="-179.8" font-family="Fira Sans" font-size="9.00" fill="#818281">input_folder</text>
</g>
<!-- json2tabular_harvest -->
<g id="node25" class="node">
<title>json2tabular_harvest</title>
<polygon fill="#c5e0b4" stroke="#385723" stroke-width="2" points="964.5,-122.5 964.5,-158.5 1127.5,-158.5 1127.5,-122.5 964.5,-122.5"/>
<text text-anchor="middle" x="1046" y="-136.8" font-family="Fira Sans" font-size="14.00">json2tabular_harvest</text>
</g>
<!-- split&#45;&gt;json2tabular_harvest -->
<g id="edge15" class="edge">
<title>split&#45;&gt;json2tabular_harvest</title>
<path fill="none" stroke="#385723" stroke-width="2" d="M800.02,-208.87C803.65,-207.39 807.37,-206.05 811,-205 869.57,-188.06 888.42,-203.92 947,-187 967.09,-181.2 988.28,-171.92 1005.89,-163.26"/>
<polygon fill="#385723" stroke="#385723" stroke-width="2" points="1007.91,-166.16 1015.27,-158.53 1004.76,-159.91 1007.91,-166.16"/>
<text text-anchor="middle" x="1002.5" y="-179.8" font-family="Fira Sans" font-size="9.00" fill="#818281">input_folder</text>
</g>
<!-- json2tabular_exp_metadata_output_folder -->
<g id="node12" class="node">
<title>json2tabular_exp_metadata_output_folder</title>
<polygon fill="#cfeae6" stroke="#9fd6ce" stroke-width="2" points="389,-214 389,-233 571,-233 571,-214 389,-214"/>
<text text-anchor="middle" x="480" y="-221" font-family="Fira Sans" font-size="10.00">llm_output_tabular/exp_metadata</text>
</g>
<!-- json2tabular_exp_metadata_output_folder&#45;&gt;json2tabular_exp_metadata -->
<g id="edge2" class="edge">
<title>json2tabular_exp_metadata_output_folder&#45;&gt;json2tabular_exp_metadata</title>
<path fill="none" stroke="#385723" stroke-width="2" stroke-dasharray="5,2" d="M481.07,-213.83C482.39,-203.15 484.69,-184.5 486.63,-168.81"/>
<polygon fill="#385723" stroke="#385723" stroke-width="2" points="490.14,-168.91 487.89,-158.56 483.19,-168.06 490.14,-168.91"/>
<text text-anchor="middle" x="516.5" y="-179.8" font-family="Fira Sans" font-size="9.00" fill="#818281">output_folder</text>
</g>
<!-- json2tabular_genotype&#45;&gt;genotypes -->
<g id="edge24" class="edge">
<title>json2tabular_genotype&#45;&gt;genotypes</title>
<path fill="none" stroke="#385723" stroke-width="2" d="M159.27,-122.42C222.49,-107.27 313.5,-85.46 371.18,-71.64"/>
<polygon fill="#385723" stroke="#385723" stroke-width="2" points="372.29,-74.97 381.2,-69.24 370.66,-68.16 372.29,-74.97"/>
<text text-anchor="middle" x="302" y="-96.8" font-family="Fira Sans" font-size="9.00" fill="#818281">genotypes</text>
</g>
<!-- json2tabular_genotype_output_folder -->
<g id="node14" class="node">
<title>json2tabular_genotype_output_folder</title>
<polygon fill="#cfeae6" stroke="#9fd6ce" stroke-width="2" points="6.5,-214 6.5,-233 169.5,-233 169.5,-214 6.5,-214"/>
<text text-anchor="middle" x="88" y="-221" font-family="Fira Sans" font-size="10.00">llm_output_tabular/genotypes</text>
</g>
<!-- json2tabular_genotype_output_folder&#45;&gt;json2tabular_genotype -->
<g id="edge4" class="edge">
<title>json2tabular_genotype_output_folder&#45;&gt;json2tabular_genotype</title>
<path fill="none" stroke="#385723" stroke-width="2" stroke-dasharray="5,2" d="M88,-213.83C88,-203.15 88,-184.5 88,-168.81"/>
<polygon fill="#385723" stroke="#385723" stroke-width="2" points="91.5,-168.56 88,-158.56 84.5,-168.56 91.5,-168.56"/>
<text text-anchor="middle" x="118.5" y="-179.8" font-family="Fira Sans" font-size="9.00" fill="#818281">output_folder</text>
</g>
<!-- json2tabular_fields&#45;&gt;fields -->
<g id="edge23" class="edge">
<title>json2tabular_fields&#45;&gt;fields</title>
<path fill="none" stroke="#385723" stroke-width="2" d="M701.21,-122.32C710.54,-111.05 722.89,-96.11 733.3,-83.52"/>
<polygon fill="#385723" stroke="#385723" stroke-width="2" points="736.13,-85.59 739.81,-75.65 730.74,-81.13 736.13,-85.59"/>
<text text-anchor="middle" x="737.5" y="-96.8" font-family="Fira Sans" font-size="9.00" fill="#818281">fields</text>
</g>
<!-- json2tabular_fields_output_folder -->
<g id="node16" class="node">
<title>json2tabular_fields_output_folder</title>
<polygon fill="#cfeae6" stroke="#9fd6ce" stroke-width="2" points="589,-214 589,-233 727,-233 727,-214 589,-214"/>
<text text-anchor="middle" x="658" y="-221" font-family="Fira Sans" font-size="10.00">llm_output_tabular/fields</text>
</g>
<!-- json2tabular_fields_output_folder&#45;&gt;json2tabular_fields -->
<g id="edge6" class="edge">
<title>json2tabular_fields_output_folder&#45;&gt;json2tabular_fields</title>
<path fill="none" stroke="#385723" stroke-width="2" stroke-dasharray="5,2" d="M656.6,-213.82C655.44,-204.44 654.62,-189.19 659,-177 660.27,-173.47 662.04,-170.02 664.08,-166.74"/>
<polygon fill="#385723" stroke="#385723" stroke-width="2" points="666.98,-168.7 669.96,-158.54 661.29,-164.63 666.98,-168.7"/>
<text text-anchor="middle" x="689.5" y="-179.8" font-family="Fira Sans" font-size="9.00" fill="#818281">output_folder</text>
</g>
<!-- json2tabular_irrigation&#45;&gt;irrigations -->
<g id="edge22" class="edge">
<title>json2tabular_irrigation&#45;&gt;irrigations</title>
<path fill="none" stroke="#385723" stroke-width="2" d="M353.46,-122.44C391.37,-112.7 438.25,-99.38 479,-84 482.45,-82.7 485.98,-81.25 489.51,-79.74"/>
<polygon fill="#385723" stroke="#385723" stroke-width="2" points="491.05,-82.88 498.74,-75.59 488.19,-76.49 491.05,-82.88"/>
<text text-anchor="middle" x="471" y="-96.8" font-family="Fira Sans" font-size="9.00" fill="#818281">irrigations</text>
</g>
<!-- json2tabular_irrigation_output_folder -->
<g id="node18" class="node">
<title>json2tabular_irrigation_output_folder</title>
<polygon fill="#cfeae6" stroke="#9fd6ce" stroke-width="2" points="200.5,-214 200.5,-233 361.5,-233 361.5,-214 200.5,-214"/>
<text text-anchor="middle" x="281" y="-221" font-family="Fira Sans" font-size="10.00">llm_output_tabular/irrigations</text>
</g>
<!-- json2tabular_irrigation_output_folder&#45;&gt;json2tabular_irrigation -->
<g id="edge8" class="edge">
<title>json2tabular_irrigation_output_folder&#45;&gt;json2tabular_irrigation</title>
<path fill="none" stroke="#385723" stroke-width="2" stroke-dasharray="5,2" d="M281,-213.83C281,-203.15 281,-184.5 281,-168.81"/>
<polygon fill="#385723" stroke="#385723" stroke-width="2" points="284.5,-168.56 281,-158.56 277.5,-168.56 284.5,-168.56"/>
<text text-anchor="middle" x="311.5" y="-179.8" font-family="Fira Sans" font-size="9.00" fill="#818281">output_folder</text>
</g>
<!-- json2tabular_plotdetails&#45;&gt;plot_details -->
<g id="edge21" class="edge">
<title>json2tabular_plotdetails&#45;&gt;plot_details</title>
<path fill="none" stroke="#385723" stroke-width="2" d="M1446.5,-122.42C1369.99,-106.77 1258.72,-84.01 1191.65,-70.29"/>
<polygon fill="#385723" stroke="#385723" stroke-width="2" points="1192.18,-66.83 1181.68,-68.25 1190.78,-73.69 1192.18,-66.83"/>
<text text-anchor="middle" x="1381" y="-96.8" font-family="Fira Sans" font-size="9.00" fill="#818281">plot_details</text>
</g>
<!-- json2tabular_plotdetails_output_folder -->
<g id="node20" class="node">
<title>json2tabular_plotdetails_output_folder</title>
<polygon fill="#cfeae6" stroke="#9fd6ce" stroke-width="2" points="1445.5,-214 1445.5,-233 1614.5,-233 1614.5,-214 1445.5,-214"/>
<text text-anchor="middle" x="1530" y="-221" font-family="Fira Sans" font-size="10.00">llm_output_tabular/plot_details</text>
</g>
<!-- json2tabular_plotdetails_output_folder&#45;&gt;json2tabular_plotdetails -->
<g id="edge10" class="edge">
<title>json2tabular_plotdetails_output_folder&#45;&gt;json2tabular_plotdetails</title>
<path fill="none" stroke="#385723" stroke-width="2" stroke-dasharray="5,2" d="M1530,-213.83C1530,-203.15 1530,-184.5 1530,-168.81"/>
<polygon fill="#385723" stroke="#385723" stroke-width="2" points="1533.5,-168.56 1530,-158.56 1526.5,-168.56 1533.5,-168.56"/>
<text text-anchor="middle" x="1560.5" y="-179.8" font-family="Fira Sans" font-size="9.00" fill="#818281">output_folder</text>
</g>
<!-- json2tabular_planting&#45;&gt;plantings -->
<g id="edge20" class="edge">
<title>json2tabular_planting&#45;&gt;plantings</title>
<path fill="none" stroke="#385723" stroke-width="2" d="M858.12,-122.32C855.07,-111.58 851.08,-97.53 847.62,-85.34"/>
<polygon fill="#385723" stroke="#385723" stroke-width="2" points="850.97,-84.32 844.87,-75.65 844.24,-86.23 850.97,-84.32"/>
<text text-anchor="middle" x="873.5" y="-96.8" font-family="Fira Sans" font-size="9.00" fill="#818281">plantings</text>
</g>
<!-- json2tabular_planting_output_folder -->
<g id="node22" class="node">
<title>json2tabular_planting_output_folder</title>
<polygon fill="#cfeae6" stroke="#9fd6ce" stroke-width="2" points="819.5,-214 819.5,-233 976.5,-233 976.5,-214 819.5,-214"/>
<text text-anchor="middle" x="898" y="-221" font-family="Fira Sans" font-size="10.00">llm_output_tabular/plantings</text>
</g>
<!-- json2tabular_planting_output_folder&#45;&gt;json2tabular_planting -->
<g id="edge12" class="edge">
<title>json2tabular_planting_output_folder&#45;&gt;json2tabular_planting</title>
<path fill="none" stroke="#385723" stroke-width="2" stroke-dasharray="5,2" d="M894.25,-213.83C889.55,-202.95 881.27,-183.78 874.41,-167.91"/>
<polygon fill="#385723" stroke="#385723" stroke-width="2" points="877.55,-166.35 870.37,-158.56 871.13,-169.13 877.55,-166.35"/>
<text text-anchor="middle" x="912.5" y="-179.8" font-family="Fira Sans" font-size="9.00" fill="#818281">output_folder</text>
</g>
<!-- json2tabular_fertilizeration_improved&#45;&gt;fertilizers -->
<g id="edge19" class="edge">
<title>json2tabular_fertilizeration_improved&#45;&gt;fertilizers</title>
<path fill="none" stroke="#385723" stroke-width="2" d="M1205.91,-122.49C1166.97,-112.93 1119.35,-99.75 1078,-84 1074.71,-82.75 1071.35,-81.35 1068,-79.87"/>
<polygon fill="#385723" stroke="#385723" stroke-width="2" points="1069.21,-76.57 1058.66,-75.55 1066.27,-82.93 1069.21,-76.57"/>
<text text-anchor="middle" x="1153.5" y="-96.8" font-family="Fira Sans" font-size="9.00" fill="#818281">fertilizers</text>
</g>
<!-- json2tabular_fertilizeration_improved_output_folder -->
<g id="node24" class="node">
<title>json2tabular_fertilizeration_improved_output_folder</title>
<polygon fill="#cfeae6" stroke="#9fd6ce" stroke-width="2" points="1204,-214 1204,-233 1362,-233 1362,-214 1204,-214"/>
<text text-anchor="middle" x="1283" y="-221" font-family="Fira Sans" font-size="10.00">llm_output_tabular/fertilizers</text>
</g>
<!-- json2tabular_fertilizeration_improved_output_folder&#45;&gt;json2tabular_fertilizeration_improved -->
<g id="edge14" class="edge">
<title>json2tabular_fertilizeration_improved_output_folder&#45;&gt;json2tabular_fertilizeration_improved</title>
<path fill="none" stroke="#385723" stroke-width="2" stroke-dasharray="5,2" d="M1283,-213.83C1283,-203.15 1283,-184.5 1283,-168.81"/>
<polygon fill="#385723" stroke="#385723" stroke-width="2" points="1286.5,-168.56 1283,-158.56 1279.5,-168.56 1286.5,-168.56"/>
<text text-anchor="middle" x="1313.5" y="-179.8" font-family="Fira Sans" font-size="9.00" fill="#818281">output_folder</text>
</g>
<!-- json2tabular_harvest&#45;&gt;harvest -->
<g id="edge18" class="edge">
<title>json2tabular_harvest&#45;&gt;harvest</title>
<path fill="none" stroke="#385723" stroke-width="2" d="M1022.04,-122.32C1005.56,-110.51 983.47,-94.68 965.42,-81.74"/>
<polygon fill="#385723" stroke="#385723" stroke-width="2" points="967.1,-78.63 956.93,-75.65 963.02,-84.32 967.1,-78.63"/>
<text text-anchor="middle" x="1013" y="-96.8" font-family="Fira Sans" font-size="9.00" fill="#818281">harvest</text>
</g>
<!-- json2tabular_harvest_output_folder -->
<g id="node26" class="node">
<title>json2tabular_harvest_output_folder</title>
<polygon fill="#cfeae6" stroke="#9fd6ce" stroke-width="2" points="995,-214 995,-233 1149,-233 1149,-214 995,-214"/>
<text text-anchor="middle" x="1072" y="-221" font-family="Fira Sans" font-size="10.00">llm_output_tabular/harvests</text>
</g>
<!-- json2tabular_harvest_output_folder&#45;&gt;json2tabular_harvest -->
<g id="edge16" class="edge">
<title>json2tabular_harvest_output_folder&#45;&gt;json2tabular_harvest</title>
<path fill="none" stroke="#385723" stroke-width="2" stroke-dasharray="5,2" d="M1069.22,-213.83C1065.76,-203.05 1059.69,-184.14 1054.62,-168.36"/>
<polygon fill="#385723" stroke="#385723" stroke-width="2" points="1057.87,-167.01 1051.48,-158.56 1051.2,-169.15 1057.87,-167.01"/>
<text text-anchor="middle" x="1090.5" y="-179.8" font-family="Fira Sans" font-size="9.00" fill="#818281">output_folder</text>
</g>
</g>
</svg>
