<?xml version="1.0" encoding="UTF-8" standalone="no"?>
<!DOCTYPE svg PUBLIC "-//W3C//DTD SVG 1.1//EN"
 "http://www.w3.org/Graphics/SVG/1.1/DTD/svg11.dtd">
<!-- Generated by graphviz version 2.43.0 (0)
 -->
<!-- Title: workflow Pages: 1 -->
<svg width="1766pt" height="787pt"
 viewBox="0.00 0.00 1766.00 787.00" xmlns="http://www.w3.org/2000/svg" xmlns:xlink="http://www.w3.org/1999/xlink">
<g id="graph0" class="graph" transform="scale(1 1) rotate(0) translate(4 783)">
<title>workflow</title>
<g id="clust1" class="cluster">
<title>cluster_inputs</title>
<polygon fill="#eeeeee" stroke="#818281" stroke-width="2" points="205,-695 205,-771 775,-771 775,-695 205,-695"/>
<text text-anchor="middle" x="490" y="-755.8" font-family="Fira Sans" font-size="14.00">Workflow Inputs</text>
</g>
<g id="clust2" class="cluster">
<title>cluster_outputs</title>
<polygon fill="#eeeeee" stroke="#818281" stroke-width="2" points="589,-8 589,-84 763,-84 763,-8 589,-8"/>
<text text-anchor="middle" x="676" y="-15.8" font-family="Fira Sans" font-size="14.00">Workflow Outputs</text>
</g>
<!-- pdf_files -->
<g id="node1" class="node">
<title>pdf_files</title>
<polygon fill="#6fc1b5" stroke="#0f9884" stroke-width="2" points="551.5,-703.5 551.5,-739.5 626.5,-739.5 626.5,-703.5 551.5,-703.5"/>
<text text-anchor="middle" x="589" y="-717.8" font-family="Fira Sans" font-size="14.00">pdf_files</text>
</g>
<!-- marker -->
<g id="node6" class="node">
<title>marker</title>
<polygon fill="#c5e0b4" stroke="#385723" stroke-width="2" points="816,-620.5 816,-656.5 882,-656.5 882,-620.5 816,-620.5"/>
<text text-anchor="middle" x="849" y="-634.8" font-family="Fira Sans" font-size="14.00">marker</text>
</g>
<!-- pdf_files&#45;&gt;marker -->
<g id="edge1" class="edge">
<title>pdf_files&#45;&gt;marker</title>
<path fill="none" stroke="#385723" stroke-width="2" d="M617.81,-703.46C623.7,-700.37 629.96,-697.39 636,-695 692.93,-672.53 761.99,-656.45 805.73,-647.56"/>
<polygon fill="#385723" stroke="#385723" stroke-width="2" points="806.62,-650.95 815.74,-645.56 805.25,-644.09 806.62,-650.95"/>
<text text-anchor="middle" x="723.5" y="-677.8" font-family="Fira Sans" font-size="9.00" fill="#818281">pdf_directory</text>
</g>
<!-- icasa_template -->
<g id="node2" class="node">
<title>icasa_template</title>
<polygon fill="#6fc1b5" stroke="#0f9884" stroke-width="2" points="413,-703.5 413,-739.5 533,-739.5 533,-703.5 413,-703.5"/>
<text text-anchor="middle" x="473" y="-717.8" font-family="Fira Sans" font-size="14.00">icasa_template</text>
</g>
<!-- generate_icasa_json -->
<g id="node10" class="node">
<title>generate_icasa_json</title>
<polygon fill="#c5e0b4" stroke="#385723" stroke-width="2" points="477,-537.5 477,-573.5 633,-573.5 633,-537.5 477,-537.5"/>
<text text-anchor="middle" x="555" y="-551.8" font-family="Fira Sans" font-size="14.00">generate_icasa_json</text>
</g>
<!-- icasa_template&#45;&gt;generate_icasa_json -->
<g id="edge5" class="edge">
<title>icasa_template&#45;&gt;generate_icasa_json</title>
<path fill="none" stroke="#385723" stroke-width="2" d="M450.02,-703.19C426.07,-682.98 394.43,-648.65 413,-620 425.67,-600.46 445.92,-586.88 467.2,-577.46"/>
<polygon fill="#385723" stroke="#385723" stroke-width="2" points="468.78,-580.59 476.69,-573.54 466.11,-574.12 468.78,-580.59"/>
<text text-anchor="middle" x="446.5" y="-636.3" font-family="Fira Sans" font-size="9.00" fill="#818281">template_path</text>
</g>
<!-- openai_api_key -->
<g id="node3" class="node">
<title>openai_api_key</title>
<polygon fill="#6fc1b5" stroke="#0f9884" stroke-width="2" points="645,-703.5 645,-739.5 767,-739.5 767,-703.5 645,-703.5"/>
<text text-anchor="middle" x="706" y="-717.8" font-family="Fira Sans" font-size="14.00">openai_api_key</text>
</g>
<!-- llm_extract_icasa -->
<g id="node18" class="node">
<title>llm_extract_icasa</title>
<polygon fill="#c5e0b4" stroke="#385723" stroke-width="2" points="851.5,-288.5 851.5,-324.5 986.5,-324.5 986.5,-288.5 851.5,-288.5"/>
<text text-anchor="middle" x="919" y="-302.8" font-family="Fira Sans" font-size="14.00">llm_extract_icasa</text>
</g>
<!-- openai_api_key&#45;&gt;llm_extract_icasa -->
<g id="edge23" class="edge">
<title>openai_api_key&#45;&gt;llm_extract_icasa</title>
<path fill="none" stroke="#385723" stroke-width="2" d="M762.28,-703.38C774.61,-700.15 787.67,-697.12 800,-695 854.65,-685.59 1296,-694.96 1296,-639.5 1296,-639.5 1296,-639.5 1296,-388.5 1296,-313.07 1096.22,-336.8 996.42,-324.76"/>
<polygon fill="#385723" stroke="#385723" stroke-width="2" points="996.89,-321.29 986.51,-323.39 995.93,-328.22 996.89,-321.29"/>
<text text-anchor="middle" x="1330.5" y="-511.8" font-family="Fira Sans" font-size="9.00" fill="#818281">openai_api_key</text>
</g>
<!-- evaluation_folder_name -->
<g id="node4" class="node">
<title>evaluation_folder_name</title>
<polygon fill="#6fc1b5" stroke="#0f9884" stroke-width="2" points="213,-703.5 213,-739.5 395,-739.5 395,-703.5 213,-703.5"/>
<text text-anchor="middle" x="304" y="-717.8" font-family="Fira Sans" font-size="14.00">evaluation_folder_name</text>
</g>
<!-- evaluation -->
<g id="node36" class="node">
<title>evaluation</title>
<polygon fill="#c5e0b4" stroke="#385723" stroke-width="2" points="631.5,-122.5 631.5,-158.5 720.5,-158.5 720.5,-122.5 631.5,-122.5"/>
<text text-anchor="middle" x="676" y="-136.8" font-family="Fira Sans" font-size="14.00">evaluation</text>
</g>
<!-- evaluation_folder_name&#45;&gt;evaluation -->
<g id="edge50" class="edge">
<title>evaluation_folder_name&#45;&gt;evaluation</title>
<path fill="none" stroke="#385723" stroke-width="2" d="M212.79,-713.82C123.24,-704.68 0,-684.01 0,-639.5 0,-639.5 0,-639.5 0,-222.5 0,-160.08 460.26,-145.52 621.22,-142.34"/>
<polygon fill="#385723" stroke="#385723" stroke-width="2" points="621.45,-145.83 631.38,-142.14 621.32,-138.84 621.45,-145.83"/>
<text text-anchor="middle" x="30.5" y="-428.8" font-family="Fira Sans" font-size="9.00" fill="#818281">output_folder</text>
</g>
<!-- evaluation_directory -->
<g id="node5" class="node">
<title>evaluation_directory</title>
<polygon fill="#f8cbad" stroke="#823909" stroke-width="2" points="597.5,-39.5 597.5,-75.5 754.5,-75.5 754.5,-39.5 597.5,-39.5"/>
<text text-anchor="middle" x="676" y="-53.8" font-family="Fira Sans" font-size="14.00">evaluation_directory</text>
</g>
<!-- process_paper -->
<g id="node8" class="node">
<title>process_paper</title>
<polygon fill="#c5e0b4" stroke="#385723" stroke-width="2" points="941.5,-537.5 941.5,-573.5 1058.5,-573.5 1058.5,-537.5 941.5,-537.5"/>
<text text-anchor="middle" x="1000" y="-551.8" font-family="Fira Sans" font-size="14.00">process_paper</text>
</g>
<!-- marker&#45;&gt;process_paper -->
<g id="edge3" class="edge">
<title>marker&#45;&gt;process_paper</title>
<path fill="none" stroke="#385723" stroke-width="2" d="M881.02,-620.32C903.82,-608.09 934.65,-591.56 959.21,-578.38"/>
<polygon fill="#385723" stroke="#385723" stroke-width="2" points="961.12,-581.33 968.28,-573.51 957.82,-575.16 961.12,-581.33"/>
<text text-anchor="middle" x="960.5" y="-594.8" font-family="Fira Sans" font-size="9.00" fill="#818281">input_folder</text>
</g>
<!-- marker_output_dir_name -->
<g id="node7" class="node">
<title>marker_output_dir_name</title>
<polygon fill="#cfeae6" stroke="#9fd6ce" stroke-width="2" points="809,-712 809,-731 889,-731 889,-712 809,-712"/>
<text text-anchor="middle" x="849" y="-719" font-family="Fira Sans" font-size="10.00">paper_to_md</text>
</g>
<!-- marker_output_dir_name&#45;&gt;marker -->
<g id="edge2" class="edge">
<title>marker_output_dir_name&#45;&gt;marker</title>
<path fill="none" stroke="#385723" stroke-width="2" stroke-dasharray="5,2" d="M849,-711.83C849,-701.15 849,-682.5 849,-666.81"/>
<polygon fill="#385723" stroke="#385723" stroke-width="2" points="852.5,-666.56 849,-656.56 845.5,-666.56 852.5,-666.56"/>
<text text-anchor="middle" x="888" y="-677.8" font-family="Fira Sans" font-size="9.00" fill="#818281">output_dir_name</text>
</g>
<!-- create_training_data -->
<g id="node15" class="node">
<title>create_training_data</title>
<polygon fill="#c5e0b4" stroke="#385723" stroke-width="2" points="724,-454.5 724,-490.5 882,-490.5 882,-454.5 724,-454.5"/>
<text text-anchor="middle" x="803" y="-468.8" font-family="Fira Sans" font-size="14.00">create_training_data</text>
</g>
<!-- process_paper&#45;&gt;create_training_data -->
<g id="edge11" class="edge">
<title>process_paper&#45;&gt;create_training_data</title>
<path fill="none" stroke="#385723" stroke-width="2" d="M991.23,-537.32C985.38,-527.56 976.78,-515.94 966,-509 944.07,-494.89 917.4,-486.31 892.04,-481.12"/>
<polygon fill="#385723" stroke="#385723" stroke-width="2" points="892.5,-477.65 882.02,-479.23 891.2,-484.53 892.5,-477.65"/>
<text text-anchor="middle" x="1016.5" y="-511.8" font-family="Fira Sans" font-size="9.00" fill="#818281">markdown_folder</text>
</g>
<!-- process_paper&#45;&gt;llm_extract_icasa -->
<g id="edge22" class="edge">
<title>process_paper&#45;&gt;llm_extract_icasa</title>
<path fill="none" stroke="#385723" stroke-width="2" d="M1034.67,-537.4C1103.91,-501.1 1247.4,-413.89 1183,-343 1170.14,-328.85 1041.22,-328.3 996.53,-324.5"/>
<polygon fill="#385723" stroke="#385723" stroke-width="2" points="996.84,-321.01 986.51,-323.36 996.05,-327.97 996.84,-321.01"/>
<text text-anchor="middle" x="1208.5" y="-428.8" font-family="Fira Sans" font-size="9.00" fill="#818281">input_folder</text>
</g>
<!-- process_paper_output_folder -->
<g id="node9" class="node">
<title>process_paper_output_folder</title>
<polygon fill="#cfeae6" stroke="#9fd6ce" stroke-width="2" points="922.5,-629 922.5,-648 1077.5,-648 1077.5,-629 922.5,-629"/>
<text text-anchor="middle" x="1000" y="-636" font-family="Fira Sans" font-size="10.00">data/02_final_processed_md</text>
</g>
<!-- process_paper_output_folder&#45;&gt;process_paper -->
<g id="edge4" class="edge">
<title>process_paper_output_folder&#45;&gt;process_paper</title>
<path fill="none" stroke="#385723" stroke-width="2" stroke-dasharray="5,2" d="M1000,-628.83C1000,-618.15 1000,-599.5 1000,-583.81"/>
<polygon fill="#385723" stroke="#385723" stroke-width="2" points="1003.5,-583.56 1000,-573.56 996.5,-583.56 1003.5,-583.56"/>
<text text-anchor="middle" x="1030.5" y="-594.8" font-family="Fira Sans" font-size="9.00" fill="#818281">output_folder</text>
</g>
<!-- json_to_xlsx -->
<g id="node13" class="node">
<title>json_to_xlsx</title>
<polygon fill="#c5e0b4" stroke="#385723" stroke-width="2" points="146,-454.5 146,-490.5 246,-490.5 246,-454.5 146,-454.5"/>
<text text-anchor="middle" x="196" y="-468.8" font-family="Fira Sans" font-size="14.00">json_to_xlsx</text>
</g>
<!-- generate_icasa_json&#45;&gt;json_to_xlsx -->
<g id="edge8" class="edge">
<title>generate_icasa_json&#45;&gt;json_to_xlsx</title>
<path fill="none" stroke="#385723" stroke-width="2" d="M479.3,-537.42C412.85,-522.43 317.49,-500.91 256.14,-487.07"/>
<polygon fill="#385723" stroke="#385723" stroke-width="2" points="256.75,-483.62 246.22,-484.83 255.21,-490.45 256.75,-483.62"/>
<text text-anchor="middle" x="424.5" y="-511.8" font-family="Fira Sans" font-size="9.00" fill="#818281">input_folder</text>
</g>
<!-- generate_icasa_json&#45;&gt;create_training_data -->
<g id="edge10" class="edge">
<title>generate_icasa_json&#45;&gt;create_training_data</title>
<path fill="none" stroke="#385723" stroke-width="2" d="M607.29,-537.42C646.37,-524.66 699.91,-507.17 741.12,-493.71"/>
<polygon fill="#385723" stroke="#385723" stroke-width="2" points="742.36,-496.99 750.78,-490.56 740.19,-490.33 742.36,-496.99"/>
<text text-anchor="middle" x="717.5" y="-511.8" font-family="Fira Sans" font-size="9.00" fill="#818281">json_folder</text>
</g>
<!-- generate_icasa_json_json_folder_name -->
<g id="node11" class="node">
<title>generate_icasa_json_json_folder_name</title>
<polygon fill="#cfeae6" stroke="#9fd6ce" stroke-width="2" points="673.5,-629 673.5,-648 752.5,-648 752.5,-629 673.5,-629"/>
<text text-anchor="middle" x="713" y="-636" font-family="Fira Sans" font-size="10.00">manual_json</text>
</g>
<!-- generate_icasa_json_json_folder_name&#45;&gt;generate_icasa_json -->
<g id="edge6" class="edge">
<title>generate_icasa_json_json_folder_name&#45;&gt;generate_icasa_json</title>
<path fill="none" stroke="#385723" stroke-width="2" stroke-dasharray="5,2" d="M700.7,-628.97C686.47,-619.32 662.16,-603.44 640,-592 630.21,-586.95 619.53,-582.04 609.15,-577.57"/>
<polygon fill="#385723" stroke="#385723" stroke-width="2" points="610.31,-574.26 599.74,-573.59 607.59,-580.71 610.31,-574.26"/>
<text text-anchor="middle" x="695.5" y="-594.8" font-family="Fira Sans" font-size="9.00" fill="#818281">json_folder_name</text>
</g>
<!-- generate_icasa_json_icasa_attributes -->
<g id="node12" class="node">
<title>generate_icasa_json_icasa_attributes</title>
<polygon fill="#cfeae6" stroke="#9fd6ce" stroke-width="2" points="488.5,-629 488.5,-648 655.5,-648 655.5,-629 488.5,-629"/>
<text text-anchor="middle" x="572" y="-636" font-family="Fira Sans" font-size="10.00">../../R/icasa_attributes_config.R</text>
</g>
<!-- generate_icasa_json_icasa_attributes&#45;&gt;generate_icasa_json -->
<g id="edge7" class="edge">
<title>generate_icasa_json_icasa_attributes&#45;&gt;generate_icasa_json</title>
<path fill="none" stroke="#385723" stroke-width="2" stroke-dasharray="5,2" d="M570.18,-628.83C567.92,-618.05 563.95,-599.14 560.64,-583.36"/>
<polygon fill="#385723" stroke="#385723" stroke-width="2" points="564.06,-582.63 558.58,-573.56 557.21,-584.07 564.06,-582.63"/>
<text text-anchor="middle" x="600" y="-594.8" font-family="Fira Sans" font-size="9.00" fill="#818281">icasa_attributes</text>
</g>
<!-- json_to_xlsx&#45;&gt;evaluation -->
<g id="edge49" class="edge">
<title>json_to_xlsx&#45;&gt;evaluation</title>
<path fill="none" stroke="#385723" stroke-width="2" d="M145.8,-458.85C112.92,-447.21 76,-426.19 76,-390.5 76,-390.5 76,-390.5 76,-222.5 76,-167.78 473.05,-148.48 621.17,-143.19"/>
<polygon fill="#385723" stroke="#385723" stroke-width="2" points="621.52,-146.68 631.39,-142.83 621.28,-139.69 621.52,-146.68"/>
<text text-anchor="middle" x="110" y="-304.3" font-family="Fira Sans" font-size="9.00" fill="#818281">reference_data</text>
</g>
<!-- json_to_xlsx_output_folder -->
<g id="node14" class="node">
<title>json_to_xlsx_output_folder</title>
<polygon fill="#cfeae6" stroke="#9fd6ce" stroke-width="2" points="155,-546 155,-565 237,-565 237,-546 155,-546"/>
<text text-anchor="middle" x="196" y="-553" font-family="Fira Sans" font-size="10.00">output_folder</text>
</g>
<!-- json_to_xlsx_output_folder&#45;&gt;json_to_xlsx -->
<g id="edge9" class="edge">
<title>json_to_xlsx_output_folder&#45;&gt;json_to_xlsx</title>
<path fill="none" stroke="#385723" stroke-width="2" stroke-dasharray="5,2" d="M196,-545.83C196,-535.15 196,-516.5 196,-500.81"/>
<polygon fill="#385723" stroke="#385723" stroke-width="2" points="199.5,-500.56 196,-490.56 192.5,-500.56 199.5,-500.56"/>
<text text-anchor="middle" x="226.5" y="-511.8" font-family="Fira Sans" font-size="9.00" fill="#818281">output_folder</text>
</g>
<!-- fine_tune_model -->
<g id="node19" class="node">
<title>fine_tune_model</title>
<polygon fill="#c5e0b4" stroke="#385723" stroke-width="2" points="737.5,-371.5 737.5,-407.5 868.5,-407.5 868.5,-371.5 737.5,-371.5"/>
<text text-anchor="middle" x="803" y="-385.8" font-family="Fira Sans" font-size="14.00">fine_tune_model</text>
</g>
<!-- create_training_data&#45;&gt;fine_tune_model -->
<g id="edge24" class="edge">
<title>create_training_data&#45;&gt;fine_tune_model</title>
<path fill="none" stroke="#385723" stroke-width="2" d="M803,-454.32C803,-443.69 803,-429.81 803,-417.7"/>
<polygon fill="#385723" stroke="#385723" stroke-width="2" points="806.5,-417.65 803,-407.65 799.5,-417.65 806.5,-417.65"/>
<text text-anchor="middle" x="833.5" y="-428.8" font-family="Fira Sans" font-size="9.00" fill="#818281">training_data</text>
</g>
<!-- create_training_data_output_directory_name -->
<g id="node16" class="node">
<title>create_training_data_output_directory_name</title>
<polygon fill="#cfeae6" stroke="#9fd6ce" stroke-width="2" points="836.5,-546 836.5,-565 917.5,-565 917.5,-546 836.5,-546"/>
<text text-anchor="middle" x="877" y="-553" font-family="Fira Sans" font-size="10.00">training_data</text>
</g>
<!-- create_training_data_output_directory_name&#45;&gt;create_training_data -->
<g id="edge12" class="edge">
<title>create_training_data_output_directory_name&#45;&gt;create_training_data</title>
<path fill="none" stroke="#385723" stroke-width="2" stroke-dasharray="5,2" d="M872.87,-545.83C868.01,-536.18 859.3,-520.45 849,-509 845.29,-504.88 841.05,-500.88 836.68,-497.16"/>
<polygon fill="#385723" stroke="#385723" stroke-width="2" points="838.74,-494.33 828.76,-490.77 834.35,-499.77 838.74,-494.33"/>
<text text-anchor="middle" x="909" y="-511.8" font-family="Fira Sans" font-size="9.00" fill="#818281">output_directory_name</text>
</g>
<!-- create_training_data_icasa_attributes -->
<g id="node17" class="node">
<title>create_training_data_icasa_attributes</title>
<polygon fill="#cfeae6" stroke="#9fd6ce" stroke-width="2" points="651.5,-546 651.5,-565 818.5,-565 818.5,-546 651.5,-546"/>
<text text-anchor="middle" x="735" y="-553" font-family="Fira Sans" font-size="10.00">../../R/icasa_attributes_config.R</text>
</g>
<!-- create_training_data_icasa_attributes&#45;&gt;create_training_data -->
<g id="edge13" class="edge">
<title>create_training_data_icasa_attributes&#45;&gt;create_training_data</title>
<path fill="none" stroke="#385723" stroke-width="2" stroke-dasharray="5,2" d="M742.28,-545.83C751.67,-534.64 768.42,-514.69 781.95,-498.57"/>
<polygon fill="#385723" stroke="#385723" stroke-width="2" points="784.93,-500.47 788.68,-490.56 779.57,-495.97 784.93,-500.47"/>
<text text-anchor="middle" x="809" y="-511.8" font-family="Fira Sans" font-size="9.00" fill="#818281">icasa_attributes</text>
</g>
<!-- json2tabular_exp_metadata -->
<g id="node20" class="node">
<title>json2tabular_exp_metadata</title>
<polygon fill="#c5e0b4" stroke="#385723" stroke-width="2" points="1163.5,-205.5 1163.5,-241.5 1372.5,-241.5 1372.5,-205.5 1163.5,-205.5"/>
<text text-anchor="middle" x="1268" y="-219.8" font-family="Fira Sans" font-size="14.00">json2tabular_exp_metadata</text>
</g>
<!-- llm_extract_icasa&#45;&gt;json2tabular_exp_metadata -->
<g id="edge25" class="edge">
<title>llm_extract_icasa&#45;&gt;json2tabular_exp_metadata</title>
<path fill="none" stroke="#385723" stroke-width="2" d="M986.55,-289.85C989.74,-289.21 992.9,-288.59 996,-288 1048.56,-278.07 1062.79,-281.65 1115,-270 1145.85,-263.12 1179.58,-253.33 1207.5,-244.6"/>
<polygon fill="#385723" stroke="#385723" stroke-width="2" points="1208.64,-247.91 1217.12,-241.57 1206.53,-241.24 1208.64,-247.91"/>
<text text-anchor="middle" x="1180.5" y="-262.8" font-family="Fira Sans" font-size="9.00" fill="#818281">input_folder</text>
</g>
<!-- json2tabular_fertilizeration_improved -->
<g id="node22" class="node">
<title>json2tabular_fertilizeration_improved</title>
<polygon fill="#c5e0b4" stroke="#385723" stroke-width="2" points="870.5,-205.5 870.5,-241.5 1145.5,-241.5 1145.5,-205.5 870.5,-205.5"/>
<text text-anchor="middle" x="1008" y="-219.8" font-family="Fira Sans" font-size="14.00">json2tabular_fertilizeration_improved</text>
</g>
<!-- llm_extract_icasa&#45;&gt;json2tabular_fertilizeration_improved -->
<g id="edge27" class="edge">
<title>llm_extract_icasa&#45;&gt;json2tabular_fertilizeration_improved</title>
<path fill="none" stroke="#385723" stroke-width="2" d="M937.87,-288.32C950.62,-276.72 967.62,-261.25 981.68,-248.45"/>
<polygon fill="#385723" stroke="#385723" stroke-width="2" points="984.11,-250.97 989.15,-241.65 979.4,-245.8 984.11,-250.97"/>
<text text-anchor="middle" x="995.5" y="-262.8" font-family="Fira Sans" font-size="9.00" fill="#818281">input_folder</text>
</g>
<!-- json2tabular_fields -->
<g id="node24" class="node">
<title>json2tabular_fields</title>
<polygon fill="#c5e0b4" stroke="#385723" stroke-width="2" points="137,-205.5 137,-241.5 285,-241.5 285,-205.5 137,-205.5"/>
<text text-anchor="middle" x="211" y="-219.8" font-family="Fira Sans" font-size="14.00">json2tabular_fields</text>
</g>
<!-- llm_extract_icasa&#45;&gt;json2tabular_fields -->
<g id="edge29" class="edge">
<title>llm_extract_icasa&#45;&gt;json2tabular_fields</title>
<path fill="none" stroke="#385723" stroke-width="2" d="M851.1,-289.34C848.04,-288.84 844.99,-288.39 842,-288 618.41,-258.89 556.26,-313.38 335,-270 308.52,-264.81 280.18,-254.77 257.28,-245.45"/>
<polygon fill="#385723" stroke="#385723" stroke-width="2" points="258.41,-242.12 247.83,-241.51 255.71,-248.58 258.41,-242.12"/>
<text text-anchor="middle" x="362.5" y="-262.8" font-family="Fira Sans" font-size="9.00" fill="#818281">input_folder</text>
</g>
<!-- json2tabular_genotype -->
<g id="node26" class="node">
<title>json2tabular_genotype</title>
<polygon fill="#c5e0b4" stroke="#385723" stroke-width="2" points="495,-205.5 495,-241.5 671,-241.5 671,-205.5 495,-205.5"/>
<text text-anchor="middle" x="583" y="-219.8" font-family="Fira Sans" font-size="14.00">json2tabular_genotype</text>
</g>
<!-- llm_extract_icasa&#45;&gt;json2tabular_genotype -->
<g id="edge31" class="edge">
<title>llm_extract_icasa&#45;&gt;json2tabular_genotype</title>
<path fill="none" stroke="#385723" stroke-width="2" d="M851.47,-289.77C848.27,-289.15 845.1,-288.55 842,-288 780.67,-277.08 763.42,-285.15 703,-270 678.53,-263.87 652.22,-254.25 630.5,-245.44"/>
<polygon fill="#385723" stroke="#385723" stroke-width="2" points="631.75,-242.18 621.18,-241.6 629.09,-248.65 631.75,-242.18"/>
<text text-anchor="middle" x="730.5" y="-262.8" font-family="Fira Sans" font-size="9.00" fill="#818281">input_folder</text>
</g>
<!-- json2tabular_harvest -->
<g id="node28" class="node">
<title>json2tabular_harvest</title>
<polygon fill="#c5e0b4" stroke="#385723" stroke-width="2" points="689.5,-205.5 689.5,-241.5 852.5,-241.5 852.5,-205.5 689.5,-205.5"/>
<text text-anchor="middle" x="771" y="-219.8" font-family="Fira Sans" font-size="14.00">json2tabular_harvest</text>
</g>
<!-- llm_extract_icasa&#45;&gt;json2tabular_harvest -->
<g id="edge33" class="edge">
<title>llm_extract_icasa&#45;&gt;json2tabular_harvest</title>
<path fill="none" stroke="#385723" stroke-width="2" d="M887.61,-288.32C865.27,-276.09 835.06,-259.56 810.98,-246.38"/>
<polygon fill="#385723" stroke="#385723" stroke-width="2" points="812.54,-243.24 802.09,-241.51 809.18,-249.39 812.54,-243.24"/>
<text text-anchor="middle" x="880.5" y="-262.8" font-family="Fira Sans" font-size="9.00" fill="#818281">input_folder</text>
</g>
<!-- json2tabular_irrigation -->
<g id="node30" class="node">
<title>json2tabular_irrigation</title>
<polygon fill="#c5e0b4" stroke="#385723" stroke-width="2" points="303.5,-205.5 303.5,-241.5 476.5,-241.5 476.5,-205.5 303.5,-205.5"/>
<text text-anchor="middle" x="390" y="-219.8" font-family="Fira Sans" font-size="14.00">json2tabular_irrigation</text>
</g>
<!-- llm_extract_icasa&#45;&gt;json2tabular_irrigation -->
<g id="edge35" class="edge">
<title>llm_extract_icasa&#45;&gt;json2tabular_irrigation</title>
<path fill="none" stroke="#385723" stroke-width="2" d="M851.09,-289.42C848.03,-288.9 844.99,-288.42 842,-288 700.5,-268.1 661.18,-297.71 521,-270 493.16,-264.5 463.19,-254.42 438.95,-245.14"/>
<polygon fill="#385723" stroke="#385723" stroke-width="2" points="440.21,-241.88 429.62,-241.5 437.67,-248.4 440.21,-241.88"/>
<text text-anchor="middle" x="548.5" y="-262.8" font-family="Fira Sans" font-size="9.00" fill="#818281">input_folder</text>
</g>
<!-- json2tabular_planting -->
<g id="node32" class="node">
<title>json2tabular_planting</title>
<polygon fill="#c5e0b4" stroke="#385723" stroke-width="2" points="1390.5,-205.5 1390.5,-241.5 1557.5,-241.5 1557.5,-205.5 1390.5,-205.5"/>
<text text-anchor="middle" x="1474" y="-219.8" font-family="Fira Sans" font-size="14.00">json2tabular_planting</text>
</g>
<!-- llm_extract_icasa&#45;&gt;json2tabular_planting -->
<g id="edge37" class="edge">
<title>llm_extract_icasa&#45;&gt;json2tabular_planting</title>
<path fill="none" stroke="#385723" stroke-width="2" d="M986.9,-289.41C989.97,-288.89 993.01,-288.42 996,-288 1145.44,-267.21 1186.69,-297.71 1335,-270 1364.55,-264.48 1396.49,-254.34 1422.29,-245.02"/>
<polygon fill="#385723" stroke="#385723" stroke-width="2" points="1423.69,-248.24 1431.87,-241.51 1421.27,-241.67 1423.69,-248.24"/>
<text text-anchor="middle" x="1400.5" y="-262.8" font-family="Fira Sans" font-size="9.00" fill="#818281">input_folder</text>
</g>
<!-- json2tabular_plotdetails -->
<g id="node34" class="node">
<title>json2tabular_plotdetails</title>
<polygon fill="#c5e0b4" stroke="#385723" stroke-width="2" points="1576,-205.5 1576,-241.5 1758,-241.5 1758,-205.5 1576,-205.5"/>
<text text-anchor="middle" x="1667" y="-219.8" font-family="Fira Sans" font-size="14.00">json2tabular_plotdetails</text>
</g>
<!-- llm_extract_icasa&#45;&gt;json2tabular_plotdetails -->
<g id="edge39" class="edge">
<title>llm_extract_icasa&#45;&gt;json2tabular_plotdetails</title>
<path fill="none" stroke="#385723" stroke-width="2" d="M986.89,-289.33C989.96,-288.83 993.01,-288.39 996,-288 1235.48,-257.1 1301.76,-314.97 1539,-270 1566.39,-264.81 1595.78,-254.71 1619.48,-245.34"/>
<polygon fill="#385723" stroke="#385723" stroke-width="2" points="1620.97,-248.51 1628.93,-241.53 1618.35,-242.02 1620.97,-248.51"/>
<text text-anchor="middle" x="1602.5" y="-262.8" font-family="Fira Sans" font-size="9.00" fill="#818281">input_folder</text>
</g>
<!-- fine_tune_model&#45;&gt;llm_extract_icasa -->
<g id="edge14" class="edge">
<title>fine_tune_model&#45;&gt;llm_extract_icasa</title>
<path fill="none" stroke="#385723" stroke-width="2" d="M804.07,-371.47C805.52,-362.01 808.77,-350.63 816,-343 820.87,-337.86 831.69,-332.7 844.57,-327.96"/>
<polygon fill="#385723" stroke="#385723" stroke-width="2" points="845.97,-331.18 854.26,-324.58 843.67,-324.57 845.97,-331.18"/>
<text text-anchor="middle" x="844.5" y="-345.8" font-family="Fira Sans" font-size="9.00" fill="#818281">fields_model</text>
</g>
<!-- fine_tune_model&#45;&gt;llm_extract_icasa -->
<g id="edge15" class="edge">
<title>fine_tune_model&#45;&gt;llm_extract_icasa</title>
<path fill="none" stroke="#385723" stroke-width="2" d="M842.03,-371.39C852.48,-366.11 863.49,-359.85 873,-353 881.3,-347.02 889.51,-339.53 896.65,-332.37"/>
<polygon fill="#385723" stroke="#385723" stroke-width="2" points="899.52,-334.45 903.93,-324.82 894.47,-329.59 899.52,-334.45"/>
<text text-anchor="middle" x="942.5" y="-345.8" font-family="Fira Sans" font-size="9.00" fill="#818281">context_metadata_model</text>
</g>
<!-- fine_tune_model&#45;&gt;llm_extract_icasa -->
<g id="edge16" class="edge">
<title>fine_tune_model&#45;&gt;llm_extract_icasa</title>
<path fill="none" stroke="#385723" stroke-width="2" d="M868.54,-385.79C920.41,-382.11 986.86,-373.43 1004,-353 1012.74,-342.58 1007.37,-334.19 995.96,-327.59"/>
<polygon fill="#385723" stroke="#385723" stroke-width="2" points="997.22,-324.31 986.7,-323.1 994.17,-330.61 997.22,-324.31"/>
<text text-anchor="middle" x="1048" y="-345.8" font-family="Fira Sans" font-size="9.00" fill="#818281">genotypes_model</text>
</g>
<!-- fine_tune_model&#45;&gt;llm_extract_icasa -->
<g id="edge17" class="edge">
<title>fine_tune_model&#45;&gt;llm_extract_icasa</title>
<path fill="none" stroke="#385723" stroke-width="2" d="M868.82,-384.95C949.52,-379.92 1077.45,-369.45 1092,-353 1112.83,-329.45 1136.85,-353.31 996.51,-325.04"/>
<polygon fill="#385723" stroke="#385723" stroke-width="2" points="997.07,-321.59 986.57,-323.01 995.67,-328.44 997.07,-321.59"/>
<text text-anchor="middle" x="1141.5" y="-345.8" font-family="Fira Sans" font-size="9.00" fill="#818281">plantings_model</text>
</g>
<!-- fine_tune_model&#45;&gt;llm_extract_icasa -->
<g id="edge18" class="edge">
<title>fine_tune_model&#45;&gt;llm_extract_icasa</title>
<path fill="none" stroke="#385723" stroke-width="2" d="M737.1,-387.16C632.74,-384.35 439.03,-376.06 418,-353 415.01,-349.72 414.92,-346.21 418,-343 433.29,-327.04 772.03,-327.93 841.07,-324.4"/>
<polygon fill="#385723" stroke="#385723" stroke-width="2" points="841.4,-327.89 851.1,-323.63 840.86,-320.91 841.4,-327.89"/>
<text text-anchor="middle" x="457" y="-345.8" font-family="Fira Sans" font-size="9.00" fill="#818281">irrigations_model</text>
</g>
<!-- fine_tune_model&#45;&gt;llm_extract_icasa -->
<g id="edge19" class="edge">
<title>fine_tune_model&#45;&gt;llm_extract_icasa</title>
<path fill="none" stroke="#385723" stroke-width="2" d="M737.32,-387.56C644.06,-385.06 487.82,-375.97 519,-343 542.25,-318.42 776.44,-328.6 841.09,-324.52"/>
<polygon fill="#385723" stroke="#385723" stroke-width="2" points="841.46,-328 851.09,-323.58 840.81,-321.03 841.46,-328"/>
<text text-anchor="middle" x="555.5" y="-345.8" font-family="Fira Sans" font-size="9.00" fill="#818281">fertilizers_model</text>
</g>
<!-- fine_tune_model&#45;&gt;llm_extract_icasa -->
<g id="edge20" class="edge">
<title>fine_tune_model&#45;&gt;llm_extract_icasa</title>
<path fill="none" stroke="#385723" stroke-width="2" d="M737.25,-382.59C675.99,-375.77 596.63,-362.89 615,-343 630.89,-325.79 790.48,-328.29 841.46,-324.47"/>
<polygon fill="#385723" stroke="#385723" stroke-width="2" points="841.92,-327.94 851.5,-323.42 841.19,-320.98 841.92,-327.94"/>
<text text-anchor="middle" x="650.5" y="-345.8" font-family="Fira Sans" font-size="9.00" fill="#818281">harvests_model</text>
</g>
<!-- fine_tune_model&#45;&gt;llm_extract_icasa -->
<g id="edge21" class="edge">
<title>fine_tune_model&#45;&gt;llm_extract_icasa</title>
<path fill="none" stroke="#385723" stroke-width="2" d="M737.41,-372.35C720.76,-365.16 710.26,-355.45 721,-343 737.23,-324.18 802.56,-328.92 841.3,-324.63"/>
<polygon fill="#385723" stroke="#385723" stroke-width="2" points="842.06,-328.06 851.45,-323.16 841.05,-321.13 842.06,-328.06"/>
<text text-anchor="middle" x="763" y="-345.8" font-family="Fira Sans" font-size="9.00" fill="#818281">plot_details_model</text>
</g>
<!-- json2tabular_exp_metadata&#45;&gt;evaluation -->
<g id="edge48" class="edge">
<title>json2tabular_exp_metadata&#45;&gt;evaluation</title>
<path fill="none" stroke="#385723" stroke-width="2" d="M1163.35,-206.21C1160.54,-205.8 1157.75,-205.4 1155,-205 1001.45,-182.93 819.78,-159.61 730.75,-148.36"/>
<polygon fill="#385723" stroke="#385723" stroke-width="2" points="730.98,-144.86 720.62,-147.08 730.1,-151.81 730.98,-144.86"/>
<text text-anchor="middle" x="1073" y="-179.8" font-family="Fira Sans" font-size="9.00" fill="#818281">context_metadata_dir</text>
</g>
<!-- json2tabular_exp_metadata_output_folder -->
<g id="node21" class="node">
<title>json2tabular_exp_metadata_output_folder</title>
<polygon fill="#cfeae6" stroke="#9fd6ce" stroke-width="2" points="1181,-297 1181,-316 1363,-316 1363,-297 1181,-297"/>
<text text-anchor="middle" x="1272" y="-304" font-family="Fira Sans" font-size="10.00">llm_output_tabular/exp_metadata</text>
</g>
<!-- json2tabular_exp_metadata_output_folder&#45;&gt;json2tabular_exp_metadata -->
<g id="edge26" class="edge">
<title>json2tabular_exp_metadata_output_folder&#45;&gt;json2tabular_exp_metadata</title>
<path fill="none" stroke="#385723" stroke-width="2" stroke-dasharray="5,2" d="M1271.57,-296.83C1271.04,-286.15 1270.12,-267.5 1269.35,-251.81"/>
<polygon fill="#385723" stroke="#385723" stroke-width="2" points="1272.83,-251.38 1268.84,-241.56 1265.84,-251.72 1272.83,-251.38"/>
<text text-anchor="middle" x="1300.5" y="-262.8" font-family="Fira Sans" font-size="9.00" fill="#818281">output_folder</text>
</g>
<!-- json2tabular_fertilizeration_improved&#45;&gt;evaluation -->
<g id="edge47" class="edge">
<title>json2tabular_fertilizeration_improved&#45;&gt;evaluation</title>
<path fill="none" stroke="#385723" stroke-width="2" d="M938,-205.42C876.26,-190.36 787.53,-168.71 730.83,-154.88"/>
<polygon fill="#385723" stroke="#385723" stroke-width="2" points="731.52,-151.44 720.97,-152.47 729.86,-158.24 731.52,-151.44"/>
<text text-anchor="middle" x="890" y="-179.8" font-family="Fira Sans" font-size="9.00" fill="#818281">fertilizers_dir</text>
</g>
<!-- json2tabular_fertilizeration_improved_output_folder -->
<g id="node23" class="node">
<title>json2tabular_fertilizeration_improved_output_folder</title>
<polygon fill="#cfeae6" stroke="#9fd6ce" stroke-width="2" points="1005,-297 1005,-316 1163,-316 1163,-297 1005,-297"/>
<text text-anchor="middle" x="1084" y="-304" font-family="Fira Sans" font-size="10.00">llm_output_tabular/fertilizers</text>
</g>
<!-- json2tabular_fertilizeration_improved_output_folder&#45;&gt;json2tabular_fertilizeration_improved -->
<g id="edge28" class="edge">
<title>json2tabular_fertilizeration_improved_output_folder&#45;&gt;json2tabular_fertilizeration_improved</title>
<path fill="none" stroke="#385723" stroke-width="2" stroke-dasharray="5,2" d="M1075.87,-296.83C1065.27,-285.54 1046.3,-265.32 1031.11,-249.13"/>
<polygon fill="#385723" stroke="#385723" stroke-width="2" points="1033.4,-246.46 1024.01,-241.56 1028.3,-251.25 1033.4,-246.46"/>
<text text-anchor="middle" x="1080.5" y="-262.8" font-family="Fira Sans" font-size="9.00" fill="#818281">output_folder</text>
</g>
<!-- json2tabular_fields&#45;&gt;evaluation -->
<g id="edge46" class="edge">
<title>json2tabular_fields&#45;&gt;evaluation</title>
<path fill="none" stroke="#385723" stroke-width="2" d="M285.18,-206.69C288.16,-206.11 291.11,-205.55 294,-205 410.26,-183.09 547.19,-161.3 621.43,-149.81"/>
<polygon fill="#385723" stroke="#385723" stroke-width="2" points="622.14,-153.25 631.48,-148.26 621.07,-146.33 622.14,-153.25"/>
<text text-anchor="middle" x="471.5" y="-179.8" font-family="Fira Sans" font-size="9.00" fill="#818281">fields_dir</text>
</g>
<!-- json2tabular_fields_output_folder -->
<g id="node25" class="node">
<title>json2tabular_fields_output_folder</title>
<polygon fill="#cfeae6" stroke="#9fd6ce" stroke-width="2" points="162,-297 162,-316 300,-316 300,-297 162,-297"/>
<text text-anchor="middle" x="231" y="-304" font-family="Fira Sans" font-size="10.00">llm_output_tabular/fields</text>
</g>
<!-- json2tabular_fields_output_folder&#45;&gt;json2tabular_fields -->
<g id="edge30" class="edge">
<title>json2tabular_fields_output_folder&#45;&gt;json2tabular_fields</title>
<path fill="none" stroke="#385723" stroke-width="2" stroke-dasharray="5,2" d="M228.86,-296.83C226.2,-286.05 221.53,-267.14 217.63,-251.36"/>
<polygon fill="#385723" stroke="#385723" stroke-width="2" points="221.01,-250.43 215.21,-241.56 214.21,-252.11 221.01,-250.43"/>
<text text-anchor="middle" x="253.5" y="-262.8" font-family="Fira Sans" font-size="9.00" fill="#818281">output_folder</text>
</g>
<!-- json2tabular_genotype&#45;&gt;evaluation -->
<g id="edge45" class="edge">
<title>json2tabular_genotype&#45;&gt;evaluation</title>
<path fill="none" stroke="#385723" stroke-width="2" d="M602.72,-205.32C616.04,-193.72 633.8,-178.25 648.5,-165.45"/>
<polygon fill="#385723" stroke="#385723" stroke-width="2" points="651.06,-167.86 656.31,-158.65 646.47,-162.58 651.06,-167.86"/>
<text text-anchor="middle" x="667" y="-179.8" font-family="Fira Sans" font-size="9.00" fill="#818281">genotypes_dir</text>
</g>
<!-- json2tabular_genotype_output_folder -->
<g id="node27" class="node">
<title>json2tabular_genotype_output_folder</title>
<polygon fill="#cfeae6" stroke="#9fd6ce" stroke-width="2" points="497.5,-297 497.5,-316 660.5,-316 660.5,-297 497.5,-297"/>
<text text-anchor="middle" x="579" y="-304" font-family="Fira Sans" font-size="10.00">llm_output_tabular/genotypes</text>
</g>
<!-- json2tabular_genotype_output_folder&#45;&gt;json2tabular_genotype -->
<g id="edge32" class="edge">
<title>json2tabular_genotype_output_folder&#45;&gt;json2tabular_genotype</title>
<path fill="none" stroke="#385723" stroke-width="2" stroke-dasharray="5,2" d="M579.43,-296.83C579.96,-286.15 580.88,-267.5 581.65,-251.81"/>
<polygon fill="#385723" stroke="#385723" stroke-width="2" points="585.16,-251.72 582.16,-241.56 578.17,-251.38 585.16,-251.72"/>
<text text-anchor="middle" x="611.5" y="-262.8" font-family="Fira Sans" font-size="9.00" fill="#818281">output_folder</text>
</g>
<!-- json2tabular_harvest&#45;&gt;evaluation -->
<g id="edge44" class="edge">
<title>json2tabular_harvest&#45;&gt;evaluation</title>
<path fill="none" stroke="#385723" stroke-width="2" d="M750.85,-205.32C737.25,-193.72 719.11,-178.25 704.09,-165.45"/>
<polygon fill="#385723" stroke="#385723" stroke-width="2" points="706,-162.48 696.12,-158.65 701.46,-167.8 706,-162.48"/>
<text text-anchor="middle" x="756.5" y="-179.8" font-family="Fira Sans" font-size="9.00" fill="#818281">harvests_dir</text>
</g>
<!-- json2tabular_harvest_output_folder -->
<g id="node29" class="node">
<title>json2tabular_harvest_output_folder</title>
<polygon fill="#cfeae6" stroke="#9fd6ce" stroke-width="2" points="679,-297 679,-316 833,-316 833,-297 679,-297"/>
<text text-anchor="middle" x="756" y="-304" font-family="Fira Sans" font-size="10.00">llm_output_tabular/harvests</text>
</g>
<!-- json2tabular_harvest_output_folder&#45;&gt;json2tabular_harvest -->
<g id="edge34" class="edge">
<title>json2tabular_harvest_output_folder&#45;&gt;json2tabular_harvest</title>
<path fill="none" stroke="#385723" stroke-width="2" stroke-dasharray="5,2" d="M757.61,-296.83C759.58,-286.15 763.04,-267.5 765.94,-251.81"/>
<polygon fill="#385723" stroke="#385723" stroke-width="2" points="769.46,-252.03 767.84,-241.56 762.58,-250.76 769.46,-252.03"/>
<text text-anchor="middle" x="794.5" y="-262.8" font-family="Fira Sans" font-size="9.00" fill="#818281">output_folder</text>
</g>
<!-- json2tabular_irrigation&#45;&gt;evaluation -->
<g id="edge43" class="edge">
<title>json2tabular_irrigation&#45;&gt;evaluation</title>
<path fill="none" stroke="#385723" stroke-width="2" d="M450.3,-205.42C500.9,-191.09 572.54,-170.8 621.45,-156.95"/>
<polygon fill="#385723" stroke="#385723" stroke-width="2" points="622.55,-160.27 631.22,-154.18 620.65,-153.54 622.55,-160.27"/>
<text text-anchor="middle" x="581" y="-179.8" font-family="Fira Sans" font-size="9.00" fill="#818281">irrigations_dir</text>
</g>
<!-- json2tabular_irrigation_output_folder -->
<g id="node31" class="node">
<title>json2tabular_irrigation_output_folder</title>
<polygon fill="#cfeae6" stroke="#9fd6ce" stroke-width="2" points="318.5,-297 318.5,-316 479.5,-316 479.5,-297 318.5,-297"/>
<text text-anchor="middle" x="399" y="-304" font-family="Fira Sans" font-size="10.00">llm_output_tabular/irrigations</text>
</g>
<!-- json2tabular_irrigation_output_folder&#45;&gt;json2tabular_irrigation -->
<g id="edge36" class="edge">
<title>json2tabular_irrigation_output_folder&#45;&gt;json2tabular_irrigation</title>
<path fill="none" stroke="#385723" stroke-width="2" stroke-dasharray="5,2" d="M398.04,-296.83C396.85,-286.15 394.78,-267.5 393.03,-251.81"/>
<polygon fill="#385723" stroke="#385723" stroke-width="2" points="396.48,-251.11 391.9,-241.56 389.52,-251.89 396.48,-251.11"/>
<text text-anchor="middle" x="426.5" y="-262.8" font-family="Fira Sans" font-size="9.00" fill="#818281">output_folder</text>
</g>
<!-- json2tabular_planting&#45;&gt;evaluation -->
<g id="edge42" class="edge">
<title>json2tabular_planting&#45;&gt;evaluation</title>
<path fill="none" stroke="#385723" stroke-width="2" d="M1390.31,-206.29C1387.51,-205.84 1384.73,-205.41 1382,-205 1140.99,-168.9 850.4,-150.66 731.15,-144.24"/>
<polygon fill="#385723" stroke="#385723" stroke-width="2" points="730.99,-140.73 720.82,-143.69 730.62,-147.72 730.99,-140.73"/>
<text text-anchor="middle" x="1257.5" y="-179.8" font-family="Fira Sans" font-size="9.00" fill="#818281">plantings_dir</text>
</g>
<!-- json2tabular_planting_output_folder -->
<g id="node33" class="node">
<title>json2tabular_planting_output_folder</title>
<polygon fill="#cfeae6" stroke="#9fd6ce" stroke-width="2" points="1395.5,-297 1395.5,-316 1552.5,-316 1552.5,-297 1395.5,-297"/>
<text text-anchor="middle" x="1474" y="-304" font-family="Fira Sans" font-size="10.00">llm_output_tabular/plantings</text>
</g>
<!-- json2tabular_planting_output_folder&#45;&gt;json2tabular_planting -->
<g id="edge38" class="edge">
<title>json2tabular_planting_output_folder&#45;&gt;json2tabular_planting</title>
<path fill="none" stroke="#385723" stroke-width="2" stroke-dasharray="5,2" d="M1474,-296.83C1474,-286.15 1474,-267.5 1474,-251.81"/>
<polygon fill="#385723" stroke="#385723" stroke-width="2" points="1477.5,-251.56 1474,-241.56 1470.5,-251.56 1477.5,-251.56"/>
<text text-anchor="middle" x="1504.5" y="-262.8" font-family="Fira Sans" font-size="9.00" fill="#818281">output_folder</text>
</g>
<!-- json2tabular_plotdetails&#45;&gt;evaluation -->
<g id="edge41" class="edge">
<title>json2tabular_plotdetails&#45;&gt;evaluation</title>
<path fill="none" stroke="#385723" stroke-width="2" d="M1575.76,-206.25C1572.81,-205.82 1569.88,-205.4 1567,-205 1252.27,-161.55 870.64,-146.98 730.76,-142.89"/>
<polygon fill="#385723" stroke="#385723" stroke-width="2" points="730.81,-139.39 720.72,-142.6 730.61,-146.39 730.81,-139.39"/>
<text text-anchor="middle" x="1431" y="-179.8" font-family="Fira Sans" font-size="9.00" fill="#818281">plot_details_dir</text>
</g>
<!-- json2tabular_plotdetails_output_folder -->
<g id="node35" class="node">
<title>json2tabular_plotdetails_output_folder</title>
<polygon fill="#cfeae6" stroke="#9fd6ce" stroke-width="2" points="1582.5,-297 1582.5,-316 1751.5,-316 1751.5,-297 1582.5,-297"/>
<text text-anchor="middle" x="1667" y="-304" font-family="Fira Sans" font-size="10.00">llm_output_tabular/plot_details</text>
</g>
<!-- json2tabular_plotdetails_output_folder&#45;&gt;json2tabular_plotdetails -->
<g id="edge40" class="edge">
<title>json2tabular_plotdetails_output_folder&#45;&gt;json2tabular_plotdetails</title>
<path fill="none" stroke="#385723" stroke-width="2" stroke-dasharray="5,2" d="M1667,-296.83C1667,-286.15 1667,-267.5 1667,-251.81"/>
<polygon fill="#385723" stroke="#385723" stroke-width="2" points="1670.5,-251.56 1667,-241.56 1663.5,-251.56 1670.5,-251.56"/>
<text text-anchor="middle" x="1697.5" y="-262.8" font-family="Fira Sans" font-size="9.00" fill="#818281">output_folder</text>
</g>
<!-- evaluation&#45;&gt;evaluation_directory -->
<g id="edge51" class="edge">
<title>evaluation&#45;&gt;evaluation_directory</title>
<path fill="none" stroke="#385723" stroke-width="2" d="M676,-122.32C676,-111.69 676,-97.81 676,-85.7"/>
<polygon fill="#385723" stroke="#385723" stroke-width="2" points="679.5,-85.65 676,-75.65 672.5,-85.65 679.5,-85.65"/>
<text text-anchor="middle" x="722" y="-96.8" font-family="Fira Sans" font-size="9.00" fill="#818281">evaluation_directory</text>
</g>
</g>
</svg>
