<?xml version="1.0" encoding="UTF-8" standalone="no"?>
<!DOCTYPE svg PUBLIC "-//W3C//DTD SVG 1.1//EN"
 "http://www.w3.org/Graphics/SVG/1.1/DTD/svg11.dtd">
<!-- Generated by graphviz version 2.43.0 (0)
 -->
<!-- Title: workflow Pages: 1 -->
<svg width="938pt" height="372pt"
 viewBox="0.00 0.00 938.00 372.00" xmlns="http://www.w3.org/2000/svg" xmlns:xlink="http://www.w3.org/1999/xlink">
<g id="graph0" class="graph" transform="scale(1 1) rotate(0) translate(4 368)">
<title>workflow</title>
<g id="clust1" class="cluster">
<title>cluster_inputs</title>
<polygon fill="#eeeeee" stroke="#818281" stroke-width="2" points="165.5,-280 165.5,-356 655.5,-356 655.5,-280 165.5,-280"/>
<text text-anchor="middle" x="410.5" y="-340.8" font-family="Fira Sans" font-size="14.00">Workflow Inputs</text>
</g>
<g id="clust2" class="cluster">
<title>cluster_outputs</title>
<polygon fill="#eeeeee" stroke="#818281" stroke-width="2" points="454.5,-8 454.5,-84 595.5,-84 595.5,-8 454.5,-8"/>
<text text-anchor="middle" x="525" y="-15.8" font-family="Fira Sans" font-size="14.00">Workflow Outputs</text>
</g>
<!-- markdown_papers -->
<g id="node1" class="node">
<title>markdown_papers</title>
<polygon fill="#6fc1b5" stroke="#0f9884" stroke-width="2" points="364,-288.5 364,-324.5 509,-324.5 509,-288.5 364,-288.5"/>
<text text-anchor="middle" x="436.5" y="-302.8" font-family="Fira Sans" font-size="14.00">markdown_papers</text>
</g>
<!-- process_paper -->
<g id="node6" class="node">
<title>process_paper</title>
<polygon fill="#c5e0b4" stroke="#385723" stroke-width="2" points="381,-205.5 381,-241.5 498,-241.5 498,-205.5 381,-205.5"/>
<text text-anchor="middle" x="439.5" y="-219.8" font-family="Fira Sans" font-size="14.00">process_paper</text>
</g>
<!-- markdown_papers&#45;&gt;process_paper -->
<g id="edge5" class="edge">
<title>markdown_papers&#45;&gt;process_paper</title>
<path fill="none" stroke="#385723" stroke-width="2" d="M437.14,-288.32C437.53,-277.69 438.04,-263.81 438.49,-251.7"/>
<polygon fill="#385723" stroke="#385723" stroke-width="2" points="441.99,-251.78 438.86,-241.65 435,-251.52 441.99,-251.78"/>
<text text-anchor="middle" x="466" y="-262.8" font-family="Fira Sans" font-size="9.00" fill="#818281">input_folder</text>
</g>
<!-- icasa_template -->
<g id="node2" class="node">
<title>icasa_template</title>
<polygon fill="#6fc1b5" stroke="#0f9884" stroke-width="2" points="527.5,-288.5 527.5,-324.5 647.5,-324.5 647.5,-288.5 527.5,-288.5"/>
<text text-anchor="middle" x="587.5" y="-302.8" font-family="Fira Sans" font-size="14.00">icasa_template</text>
</g>
<!-- generate_icasa_json -->
<g id="node7" class="node">
<title>generate_icasa_json</title>
<polygon fill="#c5e0b4" stroke="#385723" stroke-width="2" points="516.5,-205.5 516.5,-241.5 672.5,-241.5 672.5,-205.5 516.5,-205.5"/>
<text text-anchor="middle" x="594.5" y="-219.8" font-family="Fira Sans" font-size="14.00">generate_icasa_json</text>
</g>
<!-- icasa_template&#45;&gt;generate_icasa_json -->
<g id="edge7" class="edge">
<title>icasa_template&#45;&gt;generate_icasa_json</title>
<path fill="none" stroke="#385723" stroke-width="2" d="M588.98,-288.32C589.9,-277.69 591.1,-263.81 592.15,-251.7"/>
<polygon fill="#385723" stroke="#385723" stroke-width="2" points="595.64,-251.92 593.02,-241.65 588.67,-251.31 595.64,-251.92"/>
<text text-anchor="middle" x="624" y="-262.8" font-family="Fira Sans" font-size="9.00" fill="#818281">template_path</text>
</g>
<!-- training_data_dirname -->
<g id="node3" class="node">
<title>training_data_dirname</title>
<polygon fill="#6fc1b5" stroke="#0f9884" stroke-width="2" points="173.5,-288.5 173.5,-324.5 345.5,-324.5 345.5,-288.5 173.5,-288.5"/>
<text text-anchor="middle" x="259.5" y="-302.8" font-family="Fira Sans" font-size="14.00">training_data_dirname</text>
</g>
<!-- create_training_data -->
<g id="node5" class="node">
<title>create_training_data</title>
<polygon fill="#c5e0b4" stroke="#385723" stroke-width="2" points="445.5,-122.5 445.5,-158.5 603.5,-158.5 603.5,-122.5 445.5,-122.5"/>
<text text-anchor="middle" x="524.5" y="-136.8" font-family="Fira Sans" font-size="14.00">create_training_data</text>
</g>
<!-- training_data_dirname&#45;&gt;create_training_data -->
<g id="edge3" class="edge">
<title>training_data_dirname&#45;&gt;create_training_data</title>
<path fill="none" stroke="#385723" stroke-width="2" d="M254.96,-288.36C250.25,-266.39 246.02,-228.36 265.5,-205 287.28,-178.87 369.41,-161.82 435.41,-152.03"/>
<polygon fill="#385723" stroke="#385723" stroke-width="2" points="436.05,-155.47 445.44,-150.58 435.04,-148.54 436.05,-155.47"/>
<text text-anchor="middle" x="318.5" y="-221.3" font-family="Fira Sans" font-size="9.00" fill="#818281">output_directory_name</text>
</g>
<!-- training_data -->
<g id="node4" class="node">
<title>training_data</title>
<polygon fill="#f8cbad" stroke="#823909" stroke-width="2" points="470.5,-39.5 470.5,-75.5 578.5,-75.5 578.5,-39.5 470.5,-39.5"/>
<text text-anchor="middle" x="524.5" y="-53.8" font-family="Fira Sans" font-size="14.00">training_data</text>
</g>
<!-- create_training_data&#45;&gt;training_data -->
<g id="edge10" class="edge">
<title>create_training_data&#45;&gt;training_data</title>
<path fill="none" stroke="#385723" stroke-width="2" d="M524.5,-122.32C524.5,-111.69 524.5,-97.81 524.5,-85.7"/>
<polygon fill="#385723" stroke="#385723" stroke-width="2" points="528,-85.65 524.5,-75.65 521,-85.65 528,-85.65"/>
<text text-anchor="middle" x="555" y="-96.8" font-family="Fira Sans" font-size="9.00" fill="#818281">training_data</text>
</g>
<!-- process_paper&#45;&gt;create_training_data -->
<g id="edge1" class="edge">
<title>process_paper&#45;&gt;create_training_data</title>
<path fill="none" stroke="#385723" stroke-width="2" d="M449.42,-205.36C455.16,-196.31 462.94,-185.37 471.5,-177 476.02,-172.58 481.16,-168.37 486.42,-164.49"/>
<polygon fill="#385723" stroke="#385723" stroke-width="2" points="488.53,-167.28 494.71,-158.68 484.51,-161.55 488.53,-167.28"/>
<text text-anchor="middle" x="511" y="-179.8" font-family="Fira Sans" font-size="9.00" fill="#818281">markdown_folder</text>
</g>
<!-- generate_icasa_json&#45;&gt;create_training_data -->
<g id="edge2" class="edge">
<title>generate_icasa_json&#45;&gt;create_training_data</title>
<path fill="none" stroke="#385723" stroke-width="2" d="M579.65,-205.32C569.91,-194.05 557,-179.11 546.13,-166.52"/>
<polygon fill="#385723" stroke="#385723" stroke-width="2" points="548.51,-163.93 539.32,-158.65 543.21,-168.51 548.51,-163.93"/>
<text text-anchor="middle" x="588" y="-179.8" font-family="Fira Sans" font-size="9.00" fill="#818281">json_folder</text>
</g>
<!-- create_training_data_icasa_attributes -->
<g id="node8" class="node">
<title>create_training_data_icasa_attributes</title>
<polygon fill="#cfeae6" stroke="#9fd6ce" stroke-width="2" points="691,-214 691,-233 858,-233 858,-214 691,-214"/>
<text text-anchor="middle" x="774.5" y="-221" font-family="Fira Sans" font-size="10.00">../../R/icasa_attributes_config.R</text>
</g>
<!-- create_training_data_icasa_attributes&#45;&gt;create_training_data -->
<g id="edge4" class="edge">
<title>create_training_data_icasa_attributes&#45;&gt;create_training_data</title>
<path fill="none" stroke="#385723" stroke-width="2" stroke-dasharray="5,2" d="M748.22,-213.98C710.29,-201.7 639.09,-178.63 587.17,-161.8"/>
<polygon fill="#385723" stroke="#385723" stroke-width="2" points="587.97,-158.39 577.38,-158.63 585.82,-165.05 587.97,-158.39"/>
<text text-anchor="middle" x="699.5" y="-179.8" font-family="Fira Sans" font-size="9.00" fill="#818281">icasa_attributes</text>
</g>
<!-- process_paper_output_folder -->
<g id="node9" class="node">
<title>process_paper_output_folder</title>
<polygon fill="#cfeae6" stroke="#9fd6ce" stroke-width="2" points="0,-297 0,-316 155,-316 155,-297 0,-297"/>
<text text-anchor="middle" x="77.5" y="-304" font-family="Fira Sans" font-size="10.00">data/02_final_processed_md</text>
</g>
<!-- process_paper_output_folder&#45;&gt;process_paper -->
<g id="edge6" class="edge">
<title>process_paper_output_folder&#45;&gt;process_paper</title>
<path fill="none" stroke="#385723" stroke-width="2" stroke-dasharray="5,2" d="M103.03,-296.94C119.57,-291.59 141.66,-284.83 161.5,-280 251.53,-258.06 275.86,-261.25 366.5,-242 367.97,-241.69 369.46,-241.37 370.96,-241.04"/>
<polygon fill="#385723" stroke="#385723" stroke-width="2" points="371.99,-244.4 380.99,-238.81 370.47,-237.56 371.99,-244.4"/>
<text text-anchor="middle" x="291" y="-262.8" font-family="Fira Sans" font-size="9.00" fill="#818281">output_folder</text>
</g>
<!-- generate_icasa_json_json_folder_name -->
<g id="node10" class="node">
<title>generate_icasa_json_json_folder_name</title>
<polygon fill="#cfeae6" stroke="#9fd6ce" stroke-width="2" points="666,-297 666,-316 745,-316 745,-297 666,-297"/>
<text text-anchor="middle" x="705.5" y="-304" font-family="Fira Sans" font-size="10.00">manual_json</text>
</g>
<!-- generate_icasa_json_json_folder_name&#45;&gt;generate_icasa_json -->
<g id="edge8" class="edge">
<title>generate_icasa_json_json_folder_name&#45;&gt;generate_icasa_json</title>
<path fill="none" stroke="#385723" stroke-width="2" stroke-dasharray="5,2" d="M698.71,-297C690.59,-287.22 676.26,-271.09 661.5,-260 655.14,-255.22 648.04,-250.71 640.92,-246.62"/>
<polygon fill="#385723" stroke="#385723" stroke-width="2" points="642.37,-243.43 631.93,-241.67 639,-249.56 642.37,-243.43"/>
<text text-anchor="middle" x="711" y="-262.8" font-family="Fira Sans" font-size="9.00" fill="#818281">json_folder_name</text>
</g>
<!-- generate_icasa_json_icasa_attributes -->
<g id="node11" class="node">
<title>generate_icasa_json_icasa_attributes</title>
<polygon fill="#cfeae6" stroke="#9fd6ce" stroke-width="2" points="763,-297 763,-316 930,-316 930,-297 763,-297"/>
<text text-anchor="middle" x="846.5" y="-304" font-family="Fira Sans" font-size="10.00">../../R/icasa_attributes_config.R</text>
</g>
<!-- generate_icasa_json_icasa_attributes&#45;&gt;generate_icasa_json -->
<g id="edge9" class="edge">
<title>generate_icasa_json_icasa_attributes&#45;&gt;generate_icasa_json</title>
<path fill="none" stroke="#385723" stroke-width="2" stroke-dasharray="5,2" d="M832,-296.95C814.27,-286.83 783.07,-270.07 754.5,-260 740.64,-255.11 711.9,-248.39 682.56,-242.11"/>
<polygon fill="#385723" stroke="#385723" stroke-width="2" points="683.11,-238.65 672.6,-240 681.66,-245.49 683.11,-238.65"/>
<text text-anchor="middle" x="813.5" y="-262.8" font-family="Fira Sans" font-size="9.00" fill="#818281">icasa_attributes</text>
</g>
</g>
</svg>
